<svg xmlns="http://www.w3.org/2000/svg" version="1.1" xmlns:xlink="http://www.w3.org/1999/xlink" preserveAspectRatio="none" x="0px" y="0px" width="283px" height="283px" viewBox="0 0 283 283">


  <path fill="#CCCCCC" stroke="none" d="M0 283c94.33,0 188.67,0 283,0 0,-94.33 0,-188.67 0,-283 -94.33,0 -188.67,0 -283,0 0,94.33 0,188.67 0,283z"/>

  <path fill="#5A5A5A" stroke="none" d="M214.97 0l-6.12 7.51 -5.9 -4.96 0.06 -2.55 -24.04 0 24.69 24.25 19.57 -24.25 -8.26 0zm-77.21 0l-0.22 1.7 -1.1 -1.7 -7.06 0 11.34 17.05 2.76 -17.05 -5.72 0zm-49.38 0l-73.48 72.36 24.34 28.86 -39.24 21.6 0 9.07 25.09 63.85 41.88 -84.89 -39.62 -41.32 61.5 -53.01 84.53 142.44 -54.9 -9.34 27.73 55.18 56.6 -31.13 -112.73 -173.67 -1.7 0zm-77.24 129.83l35.41 -22.09 7.64 8.31 -27.82 53.26 -15.23 -39.48zm124.44 31.65l43.74 6.69 4.79 7.95 -35.33 14.65 -13.2 -29.29zm144.49 -37.05l2.93 7.46 0 -9.07 -2.93 1.61zm-180.13 114.33l29.44 44.24 7.06 0 -11.22 -17.35 16.28 -11.23 -3.74 28.58 5.72 0 4.88 -30.07 30.61 30.07 24.04 0 0.22 -11.04 15.81 6.04 -4.07 5 8.26 0 6.47 -8.01 -32.27 -11.89 0 18.87 -50.65 -38.96 -20.38 13.86 -2.26 -27.16 -24.2 9.05zm10.43 3.77l8.21 -2.55 2.66 19.64 -10.87 -17.09zm-21.99 40.47l1.7 0 -0.66 -1.03 -1.04 1.03z"/>

  <path fill="black" stroke="none" d="M245.57 0l1.11 52.41 36.32 -28.29 0 -9.89 -28.02 20.01 -0.81 -28.14 25.67 -6.1 -34.27 0zm-225.65 0l-19.92 14.23 0 9.89 30.98 -24.12 -11.06 0zm19.32 70.66l40.75 39.62 -70.01 152.82 102.3 -41.16 -29.46 -17.14 26.6 -69.33 39.36 6.67 -30.59 -52.24 -49.24 120.58 17.83 9.6 -45.81 17.99 58.97 -131.19 -39.19 -29.99 50.09 0 -24.06 -40.76 -47.54 34.53zm45.83 -18.82l10.72 16.33 -12.94 -0.08 -22.32 0.08 24.54 -16.33zm28.3 74.69l7.36 -18.11 11.88 21.65 -19.24 -3.54zm122.55 29.34l20.94 42.71 -14.15 46.41 -49.8 -6.23 18.11 -18.68 24.9 10.19 3.4 -42.45 -86.6 50.94 101.6 30 16.13 -66.79 -19.81 -35.66 15 -6.22 17.36 40.94 0 -34.39 -13.12 -30.89 -33.96 20.12zm-21.12 56.38l14.9 -9.34 0 13.3 -14.9 -3.96zm-44.72 24.62l34.53 -19.53 -19.84 20.29 -14.69 -0.76zm-170.08 -35.84l1.6 3.77 -1.6 5.61 0 49.3 17.16 -52.64 -17.16 -40.43 0 34.39zm263.31 78.46l-17.77 2.48 0.03 1.03 34.27 0 3.16 -0.75 0 -6.63 -5.67 1.47 5.67 -17.38 0 -49.3 -19.69 69.08zm-263.31 -3.87l0 6.63 31.41 -7.46 -11.49 8.21 11.06 0 29.6 -23.04 -60.58 15.66z"/>

  <path fill="white" stroke="none" d="M131.03 216.21l-24.91 -16.98 7.81 -20.37 17.1 37.35zm96.24 -162.98l0 62.4 -14.01 -20.8 14.01 -41.6zm-46.53 39.5l42.16 -50.94 -20.09 55.47 33.11 48.11 -1.19 -138.71 -67.01 90.04 51.17 76.41 -78.34 47.54 -28.3 -62.83 -16.41 42.45 47.54 32.27 91.13 -57.74 -53.77 -82.07z"/>

  <path fill="#999999" stroke="none" d="M152.93 0l-2.19 53.11 -36.53 -53.11 -14.13 0 60 88.77 34.52 -51.5 -29.05 -37.27 -12.62 0zm4.16 63.14l4.38 -56.48 24.77 30.73 -23.91 33.25 -5.24 -7.5zm-104.21 -63.14l-52.88 43.17 0 23.48 72.24 -66.65 -19.36 0zm194.36 72.36l0 63.39 35.76 -26.77 0 -11.09 -24.45 17.74 -1.74 -24.88 7.43 -6.84 18.76 11.48 0 -10.37 -11.7 -7.57 11.7 -10.8 0 -23.48 -35.76 29.19zm-247.24 23.03l1.87 1.14 -1.87 1.36 0 11.09 17.16 -12.85 -17.16 -11.11 0 10.37zm52.88 187.61l19.36 0 17.15 -15.83 10.69 15.83 14.13 0 -22.05 -32.07 -39.28 32.07zm100.05 0l12.62 0 -11.98 -15.37 -0.64 15.37z"/>

</svg>
