<svg xmlns="http://www.w3.org/2000/svg" version="1.1" xmlns:xlink="http://www.w3.org/1999/xlink" preserveAspectRatio="none" x="0px" y="0px" width="219px" height="283px" viewBox="0 0 219 283">

<polygon id="color3" fill="#CCCCCC" points="0,0 219,0 219,283 0,283 "/>
<path id="color4" fill="#5A5A5A" d="M133.4,260.4l12.6,6.1l1.3,16.5h-6.4L133.4,260.4z M85.5,173L63,88.9L47.9,67.6L85.5,173z M24.3,7.2
	L22,0h-1.3L24.3,7.2z M56.3,5l-3.5-5H31.5l2.4,6.6L56.3,5z M95.1,2.3L92.9,0H81.8l2.6,3.1L95.1,2.3z M94.6,198.6l29-134.9l-2.9-8.4
	L93,194.2L94.6,198.6z M106.7,55.3l4.3-28.1l-4.2-12.2L106.7,55.3z M53.7,65.9l41.8-38.8l-0.2-10.7L51.1,60.6L53.7,65.9z M93.4,90.1
	L67.6,63.7l-9,11.8l38.9,39.6L93.4,90.1z M52.8,283L7.5,217.9l24,65.1H52.8z M0,214.4L22,283h-1.3L0,242V214.4z M31.9,191.3
	L10.2,19.8l-5.8-4.1L8.5,79L0,72.5v10.3l9.3,9.5l5.5,85.7L31.9,191.3z M92.9,283L0,184v5.2L81.8,283H92.9z M179.9,283l-19.7-9.6
	l-3,9.6H179.9z M190.1,257.1l-80.6-68l6.6,19.8L190.1,257.1z M219,72.5l-12.8-9.8l3.1,10.3l9.7,9.8V72.5z M203,30.5l3.2,32.2
	l3.4-27.3L203,30.5z M188.1,96.9l-2.7-46.6l-11,25.1L188.1,96.9z M219,184l-62.8-66.9l62.8,72V184z M219,207.2l-62.8-90.1L219,242
	V207.2z M140.9,0l8.4,25.1l-2-25.1H140.9z M157.2,0h22.6l-17.6,41.1l-44.7,142.8l-23.1,14.7L157.2,0z"/>
<path id="color1" fill="#FFFFFF" d="M4.4,15.7L0,12.6v29.7L6.4,47L4.4,15.7z M95.4,16.3l-0.3-14L38.6,35.7l12.5,24.9L95.4,16.3z M24.3,7.2
	l9.6-0.7L31.5,0H22L24.3,7.2z M27,38l77.1,245h20.5L93,194.2l27.7-138.9L85.5,173L47.9,67.6L27,38z M130.8,175.3L219,283
	l-71.6-145.8L130.8,175.3z M7,56.6l-7,2.2v7l7.8,1.9L7,56.6z M14.8,177.9L0,138.8v12.8L14.8,177.9z M104.1,0l26.6,84.5l11.2-35.8
	L124.6,0H104.1z M219,12.6l-13-9.3l-9.7,22.2L219,42.3V12.6z M219,58.7l-12.8,3.9l12.8,3.1V58.7z M219,138.8l-33.6-88.5l2.7,46.6
	l30.9,54.7V138.8z M31.5,283l-24-65.1L0,207.2v7.2L22,283H31.5z M95,129.9L70.9,100l25.4,22.6L95,129.9z M214.7,201l4.3,13.3v-7.2
	L214.7,201z"/>
<path id="color2" fill="#000000" d="M9.3,92.2L0,82.8v8.9l10.6,20.5L9.3,92.2z M184.9,271.2l-51.5-10.8l-11.4-34.1L184.9,271.2z M184.9,271.2l-5,11.8
	h21.5L184.9,271.2z M219,82.8l-9.7-9.8l9.7,18.7V82.8z M179.9,0l-17.6,41.1l-44.7,142.8l13.2-8.6L207.4,0H179.9z M156.2,117.1
	l62.8,49.2V184L156.2,117.1z M0,166.3l84.5,66.2l17.3,50.5h-8.9L0,184V166.3z M70.9,100l20.5,53l-6,20L70.9,100z M70.9,100
	l25.4,22.6l1.2-7.5L58.6,75.5L70.9,100z M85.5,40.1l8,49.9L67.6,63.7L85.5,40.1z M101.8,0l5.1,14.9L92.9,0H101.8z"/>
<path id="color5" fill="#82072A" d="M219,12.6L201.4,0H219V12.6z M18.1,25.4l-6.9-4.9l46.4,190.8l-25.6-20.1L10.2,19.8L0,12.6V0
	C6.2,8.6,11.9,16.7,18.1,25.4z M7.8,67.6L0,65.7v6.7L8.5,79L7.8,67.6z M58.6,75.5l26.9-35.4l10.1-13.1L55.5,69.4L58.6,75.5z
	 M95.1,2.3L38.6,35.7l-5.7-11.4L95.1,2.3z M219,65.7l-12.8-3.1l12.8,9.8V65.7z M140.9,0l8.4,25.1l-7.4,23.7L124.6,0H140.9z
	 M94.6,198.6l36.2-114l-7.1-20.9L94.6,198.6l30,84.4h16.3l-18.9-56.7l79.4,56.7H219l-4.1-5l-24.9-21l-74-48.2l-6.6-19.8L94.6,198.6z
	"/>
</svg>
