<svg xmlns="http://www.w3.org/2000/svg" version="1.1" xmlns:xlink="http://www.w3.org/1999/xlink" preserveAspectRatio="none" x="0px" y="0px" width="283px" height="283px" viewBox="0 0 283 283">
  
  <path fill="#CCCCCC" stroke="none" d="M0 283c94.33,0 188.67,0 283,0 0,-94.33 0,-188.67 0,-283 -94.33,0 -188.67,0 -283,0 0,94.33 0,188.67 0,283z"/>

  <path fill="black" stroke="none" d="M70.75 188.67l23.58 -23.59 -23.58 0 -23.58 23.59c23.58,23.58 47.16,47.16 70.75,70.74l-23.59 23.59 23.59 0 23.58 -23.59c-23.58,-23.58 -47.16,-47.16 -70.75,-70.74zm212.25 -165.09l0 0 -23.58 23.59 23.58 23.58 0 23.58c-15.72,-15.72 -31.44,-31.44 -47.17,-47.16 -23.58,23.58 -47.16,47.16 -70.75,70.75l23.59 23.58 -23.59 0 -23.58 -23.58c23.58,-23.59 47.17,-47.17 70.75,-70.75l-23.58 -23.59 23.58 0 23.58 23.59 23.59 -23.59 23.58 0zm0 141.5l0 0 -23.58 23.59 23.58 23.58 0 23.58 -47.17 -47.16 23.59 -23.59 23.58 0zm-70.75 0l-23.58 0 23.58 23.59 -70.75 70.74 23.58 23.59 23.59 0 -23.59 -23.58c23.59,-23.59 47.17,-47.17 70.75,-70.75l-23.58 -23.59zm-165.08 23.59l-23.59 -23.59 -23.58 0 23.58 23.59 -23.58 23.58 0 23.58 47.17 -47.16zm-23.59 -165.09l-23.58 0 23.58 23.59 -23.58 23.58 0 23.58 47.17 -47.16 -23.59 -23.59zm47.17 23.59l23.58 -23.59 -23.58 0 -23.58 23.59c23.58,23.58 47.16,47.16 70.75,70.74l-23.58 23.59 23.58 0 23.58 -23.58c-23.58,-23.59 -47.16,-47.17 -70.75,-70.75z"/>

  <path fill="#5A5A5A" stroke="none" d="M259.42 94.33l-23.58 23.59 47.16 47.16 0 -23.58 -23.58 -23.58 23.58 -23.59 -23.58 0zm-259.42 188.67l0 0 23.58 -23.58 -23.58 -23.59 0 0 23.59 0 23.58 23.59 -23.59 23.58 -23.58 0zm0 -117.92l0 -23.58 23.58 -23.58 -23.58 -23.59 0 0 23.59 0 23.58 23.59 -47.17 47.16zm0 -141.5l0 -3.37 0 -20.21 23.58 0 -23.58 23.58zm259.42 212.25l-23.58 23.59 23.58 23.58 23.58 0 -23.58 -23.58 23.58 -23.59 -23.58 0zm-23.58 -117.91l-23.59 -23.59 -23.58 0 23.58 23.59 -70.75 70.74 23.58 23.59 23.59 0 -23.58 -23.58 70.75 -70.75zm-47.17 -47.17l-23.59 -23.58 47.17 -47.17 -23.58 0 -47.17 47.17 23.58 23.58 23.59 0zm23.58 165.08l-23.58 0 23.58 23.59 -23.58 23.58 23.58 0 23.59 -23.58 -23.59 -23.59zm-117.92 0l-23.58 0 -23.58 23.59 23.58 23.58 23.58 0 -23.58 -23.58 23.58 -23.59zm-23.58 -117.91l23.58 -23.59 -23.58 0 -23.58 23.59 70.75 70.75 -23.59 23.58 23.59 0 23.58 -23.59 -70.75 -70.74zm70.75 -70.75l-47.17 -47.17 -23.58 0 47.17 47.17 -23.59 23.58 23.59 0 23.58 -23.58zm117.92 -47.17l23.58 23.58 0 -23.58 -23.58 0z"/>

  <path fill="white" stroke="none" d="M23.58 0l-23.58 23.58 23.58 0 23.59 23.59 0 -23.59 -23.59 -23.58zm70.76 141.5l23.58 23.58 23.58 -23.58 0 -23.58 -23.58 23.58 -23.58 0zm23.58 141.5l23.58 0 0 -23.58 -23.58 23.58zm141.5 -212.25l-23.58 23.58 0 23.59 23.58 -23.59 23.58 0 -23.58 -23.58zm-141.5 -47.17l23.58 -23.58 -47.17 0 23.59 23.58zm-70.75 141.5l-23.59 -23.58 -23.58 23.58 23.58 0 23.59 23.59 0 -23.59zm23.58 -94.33l-23.58 23.58 0 23.59 23.58 -23.59 23.58 0 -23.58 -23.58zm0 141.5l-23.58 23.58 0 23.59 23.58 -23.59 23.58 0 -23.58 -23.58zm70.75 -165.08l0 23.58 23.58 23.58 23.59 -23.58 -23.59 0 -23.58 -23.58zm23.58 165.08l-23.58 -23.58 0 23.58 23.58 23.58 23.59 -23.58 -23.59 0zm70.76 -47.17l0 23.59 -23.59 -23.59 -23.58 0 23.58 -23.58 23.59 23.58zm-0.01 -141.49l0 23.57 -23.58 -23.58 -23.58 0 23.58 -23.58 23.58 23.59zm0.01 212.24l0 23.59 23.58 -23.59 23.58 0 -23.58 -23.58 -23.58 23.58z"/>

  <path fill="#999999" stroke="none" d="M235.84 235.83l0 23.59 -23.59 -23.59 -23.58 0 23.58 -23.58 23.59 23.58zm-235.84 0l0 0 23.58 -23.58 23.59 23.58 0 23.59 -23.59 -23.59 -23.58 0zm0 -141.5l0 0 23.58 -23.58 23.59 23.58 0 23.59 -23.59 -23.59 -23.58 0zm235.84 70.75l0 23.59 23.58 -23.59 23.58 0 -23.58 -23.58 -23.58 23.58zm-0.01 -141.49l0 23.57 23.59 -23.58 23.58 0 -23.58 -23.58 -23.59 23.59zm-165.08 -0.01l23.58 0 -23.58 -23.58 -23.58 23.58 0 23.59 23.58 -23.59zm94.34 0l23.58 -23.58 -47.17 0 23.59 23.58zm-23.59 235.83l0 23.59 23.58 0 -23.58 -23.59zm0 -141.49l0 23.58 23.58 23.58 23.59 -23.58 -23.59 0 -23.58 -23.58zm94.33 -23.59l-23.58 -23.58 -23.58 23.58 23.58 0 23.59 23.59 -0.01 -23.59zm-141.5 70.75l-23.58 -23.58 -23.58 23.58 0 23.59 23.58 -23.59 23.58 0zm47.17 23.58l-23.58 23.59 -23.59 0 23.59 23.58 23.58 -23.58 0 -23.59zm-23.58 -94.33l23.58 -23.58 0 -23.58 -23.58 23.58 -23.59 0 23.59 23.58z"/>

</svg>
