<svg xmlns="http://www.w3.org/2000/svg" version="1.1" xmlns:xlink="http://www.w3.org/1999/xlink" preserveAspectRatio="none" x="0px" y="0px" width="283px" height="197px" viewBox="0 0 283 197">

  <path fill="#CCCCCC" stroke="none" d="M0 197c0,-65.67 0,-131.33 0,-197 94.33,0 188.67,0 283,0 0,65.67 0,131.33 0,197 -94.33,0 -188.67,0 -283,0z"/>

  <path fill="black" stroke="none" d="M205.8 0l0 5.82 26.04 19.37 0 -25.19 -26.04 0zm-205.8 0l51.42 39.55 0 -37.62 -2.52 -1.93 -48.9 0zm77.06 39.55l25.81 19.79 0 -37.68 -25.81 -19.77 0 37.66zm51.68 1.83l51.42 39.45 0 -37.48 -51.38 -39.44 -0.04 37.47zm103.1 21.29l25.52 19.73 0 -37.47 -25.52 -19.74 0 37.48zm-26.04 18.3l25.81 19.79 0 -37.68 -25.81 -19.78 0 37.67zm-128.74 80.43l26.04 19.72 0 -57.3 -26.04 -19.65 0 57.23zm128.74 35.6l26.04 0 0 -37.42 -26.04 -19.79 0 57.21zm-205.8 0l48.9 0 -48.9 -37.51 0 37.51z"/>

  <path fill="#5A5A5A" stroke="none" d="M123.7 0l5.08 3.91 0 -3.91 -5.08 0zm-74.8 0l2.52 1.93 25.64 -0.04 -2.44 -1.89 -25.72 0zm79.88 3.91l51.38 39.44 25.64 -0.05 -51.28 -39.39 -25.74 0zm128.58 41.02l25.64 -0.05 -25.38 -19.67 -25.78 -0.02 25.52 19.74zm-205.94 -5.38l25.63 19.79 25.82 0 -25.81 -19.79 -25.64 0zm128.81 41.42l25.67 19.79 25.71 0 -25.71 -19.79 -25.67 0zm77.15 1.43l25.62 19.75 0 -19.75 -25.62 0zm-257.38 0l0 19.75 25.78 19.87 0 -39.62 -25.78 0zm103.1 41.42l51.42 39.62 0 -39.62 -51.42 0zm154.26 15.88l25.64 19.79 0 -19.79 -25.64 0zm-208.46 57.3l25.72 0 -48.84 -37.5 -25.78 -0.01 48.9 37.51zm54.2 -15.88l20.6 15.88 5.08 0 0 -15.88 -25.68 0z"/>

  <path fill="white" stroke="none" d="M74.62 0l2.44 1.89 0 -1.89 -2.44 0zm183 0l0 25.21 25.38 19.67 0 -44.88 -25.38 0zm-103.1 0l0 3.92 51.28 39.38 0 -37.48 -7.57 -5.82 -43.71 0zm-51.65 84.25l51.65 39.57 0 -25.1 -51.65 -39.38 0 24.91zm-77.09 75.25l48.84 37.5 2.44 0 0 -35.6 -51.28 -39.38 0 37.48zm128.74 37.5l43.71 0 -43.71 -33.56 0 33.56zm103.1 0l25.38 0 -25.38 -19.66 0 19.66z"/>
</svg>
