<svg xmlns="http://www.w3.org/2000/svg" version="1.1" xmlns:xlink="http://www.w3.org/1999/xlink" preserveAspectRatio="none" x="0px" y="0px" width="283px" height="236px" viewBox="0 0 283 236">

  <path fill="#CCCCCC" stroke="none" d="M0 236c94.33,0 188.67,0 283,0 0,-78.67 0,-157.33 0,-236 -94.33,0 -188.67,0 -283,0 0,78.67 0,157.33 0,236z"/>

  <path fill="#5A5A5A" stroke="none" d="M0 59l283 0 0 -29.5 -283 0 0 29.5zm0 59l283 0 0 -29.5 -283 0 0 29.5zm0 59l283 0 0 -29.5 -283 0 0 29.5zm0 59l283 0 0 -29.5 -283 0 0 29.5z"/>

</svg>
