<svg xmlns="http://www.w3.org/2000/svg" version="1.1" xmlns:xlink="http://www.w3.org/1999/xlink" preserveAspectRatio="none" x="0px" y="0px" width="197px" height="283px" viewBox="0 0 197 283"> 
<path id="color3" fill="#CCCCCC" d="M197,283H0V0h197V283z"/>
<path id="color4" fill="#5A5A5A"
 d="M99.8,94.4c-0.4,0-0.8,0-1.2,0c-2.1-1.4-4.4-2.5-6.9-3.1c4.9-1.6,12.3-5.1,14.3-5.5c3.9-0.9,4.8-1.2,5.6,1.6
	c0.7,2.8,1,2.7,2.9,3.9c1.9,1.2,1.9,3.5,0.5,3.9c-1.4,0.5-7.1-3.9-9-4.3C104.8,90.6,101.9,92.5,99.8,94.4z M98.7,191.5
	c-7.5,1.4-6.5,5.5-4.2,6c1.7,0.4,6.5-0.1,9.7,1c1.1-0.2,1.9-0.4,2.2-0.9c1.3-2,1-3.8-0.3-5.2C104.2,191.5,101.7,190.9,98.7,191.5z
	 M107.2,168.3c0.9-1.3-1.5-3.2-3.6-4.8c-0.5,1-0.7,2.9-4.1,6c-0.1,0.1-0.1,0.1-0.2,0.2C102.8,169.6,106.2,169.7,107.2,168.3z
	 M93,171.6c-1.7-1.1-2.6-3.8-2.4-6.6c0.3-5.2,4.4-3.9-0.3-4.7c-3.6-0.6-7.5-1.9-10.3-2.7c-0.8,0-1.7,0-2.7,0
	c-4.3,0.2-11,1.2-7.1,2.4c3.8,1.2,12.5-1.6,11.8,0.7c-0.7,2.4-5,1-5.7,3.7s10.5-0.2,11.4,2.6c0.9,2.8-0.6,4.9,0.5,7.1
	c0.1,0.3,0.7,0.5,1.6,0.7C90.8,173.7,91.9,172.5,93,171.6z M127.9,201.1c2.4-1.7,2.2-0.3,2.2,2.8c0,3.1,8.5,5.4,11.3,5.3
	c2.9-0.1,12.9-1.1,18-1.8c5.1-0.7,5.4-1.8,3.4-4.6c-2-2.8-5.4,0.4-7.6,2c-2.2,1.6-19.9,2.1-21.6-0.5c-0.6-0.9-0.4-1.8,0.4-2.7
	c-2.1-1.7-3-3.7-7-4.2c-4.3-0.5-9.1,0.3-12.2,0.1c-0.2,1.7-0.7,4-1.5,5.7c1.7,0.3,3.5,0.8,5,1.3C122.8,206,125.5,202.8,127.9,201.1z
	 M99.4,155.8c-0.3-0.5-0.7-0.9-1-1.4c-0.3,0-0.6,0.1-0.9,0.1c0.2,0.2,0.3,0.3,0.5,0.5C98.4,155.3,98.9,155.6,99.4,155.8z
	 M106.4,251.4c-3.4-0.6-7.4-1.1-8.6-2.5c-2.2-2.6-1-3.8,1-6.5c-1-0.8-1.8-1.7-2.4-2.8c-0.3-0.1-0.6-0.2-1-0.3
	c-4.4-1.3-8.7,3.6-11.5,5.7c-2.8,2.1-15.5-1.8-18.1-2.9c-2.6-1.1-2.2-1.6-1.3-2.8c1-1.3,4.3-0.3,6.9-0.5c2.6-0.1,3.4-1.9,5.3-3.6
	c1.9-1.7,4.9-1.2,8.6-1.8c3.7-0.6,5.7-3.3,8.5-4.4c2.8-1.1,4.4-2.5,3.6-3.7c-0.7-1.2-11.4,4-13.7,5.1c-2.2,1.1-6,1.9-7.3-0.3
	c-1.3-2.2,8.5-7.8,17-12.8c1.5-0.9,2.8-1.6,3.9-2.2c2.1-2.1,4.6-3.9,3.2-5.3c-2.2-2.3-12.4,8.5-17.4,9.1c-2,0.2-4.4-0.3-6.7-0.8
	c-1.3,0.3-2.7,0.7-4,0.9c-4.7,0.8-0.5-0.4-0.3,4.7c0.2,4.6-2.3,9.3-7.2,6c-1.5,0.1-3.3,0.1-5.1,0.2l0,0c-4.3-0.1-6.8-5-8.3-8.1
	c-1,0.7-1.2,1.4-4.8-0.1c-5.9-2.4-8-4.3-17.6-1.4c-1.6,0.5-3.7,0.7-6,0.6l-17.8,3.6c5.9,1.7,18.2-0.1,22.6,1
	c4.9,1.2,3.5,4.3,8.2,4.7c4.6,0.4,14.4-3.1,11.8,2c-2.6,5.2-10.6,4.3-13.9,3c-3.3-1.4-2.3-3.7-8.6-3.4c-6.3,0.3-17.1-3.1-18.5-0.1
	c-1,2.2,0.6,6.1-0.8,8.2c3.1,7.9,3.7,12.9,1.5,20.3c3.2-1.4,5.8,0,6.3-4.3c0.5-4.7-0.8-8.9,1.9-11.6c2.7-2.7,4.9-5.2,6.5,0
	c1.6,5.2,5,3.7,3.3,10.9c-1.8,7.2-3.7,9.4-4.7,10.2c-1,0.8-1.5-2.5-3.1,4.7c-0.3,1.3-0.5,2.4-0.6,3.4c6.2,0.2,12.7,0.3,13.6-1.3
	c-0.6,0.2-1.1,0.3-1.7,0.2c-3-0.2-1.9-3.7-0.8-4.9c0.1-0.1,0.1-0.1,0.2-0.2c-0.8-1-1.6-2.1-1.7-3.4c-0.3-3.5,3-1.9,10.2-3
	c7.2-1.1,10.1-5.4,16.6-8.3c4.5-2,0.5,4.8-1.6,9.9c1.4,0.7,2.8,1.6,3.9,2.1c0.9,0.4,2,0.8,3.4,1.2c5.4-2.5,11.4-7,11.4-10.6
	c0-0.2,0-0.5,0-0.7c3.9,0.1,8.7,0.1,9.4,2.9c1,4.2-1.1,5.8-1,8.4c0.1,1.8,1.2,2.3,1.9,3.3c2.3,0.1,3.4,0,3.4,0s-1.2-1.2-2.9-3
	c-1.7-1.9,0.8-3.1,5.1-5.4c1.7-0.9,3.1-1.6,4.4-2.2c0.3-5.5,1.4-12.2,5.9-6.5c0.8,1.1,1.3,2,1.4,3c2.1-0.3,5.1-0.2,7.7-0.3
	C106.3,253.9,106.3,252.6,106.4,251.4z M6.8,190.3c2,4.3-0.7,1.6-2.2,6.6c-0.2,0.8-0.4,1.7-0.4,2.7c11.1-3.2,6.2,4.4,1.7,7.4
	c0.7,1.3,1.5,2.3,2.5,2.7c13.1-6,13.6-2.6,13.6-2.6s6.4-5,11.4-0.9c1.8,1.5,2.5,2.9,3,4.2c5.9-0.3,11.1-0.9,14-2.5
	c8.2-4.5,17.3,3.7,19.3,0.1c2-3.5-15.2-7.7-21.5-6.8c-6.3,0.9-15.4,3.8-15.1-1.1c0.2-3.3,1.4-4.1,2.2-5.1c-2.4-0.2-3.8-0.3-3.8-0.3
	c-3.1-1.3-0.8-2.3,3.5-3.2c-1.9-2.2-6.6-4.1-10-0.9c-4.4,4.1-6.1,12.6-8.6,4.9c-2.4-7.7,0.1-13.3-8.2-11.4c-2.7,0.6-5.5,0.5-8.3,0.1
	v5.4C3.1,188.6,5.8,188.1,6.8,190.3z M128.8,247.3c-0.5,3-8.5,3.5-8,5.1c0.5,1.6,8.6,0.7,8,2.9c-0.5,2.2-8.2,3.9-7.5,7.1
	c0.7,3.2,5-0.7,7.9-2.4c2.9-1.7,12.4-0.7,15.9,0.1c3.5,0.8,4.6,6.3,2.6,8.6c-2,2.3-9-2.8-13.9-3.5c-5-0.6-8.4,5.3-7.4,6.9
	c1,1.6,7.6-1.2,11.9-2.6c4.4-1.4,2.1,1.4,5.4,2c3.3,0.5,7.3,4.7,9.3,9.4c0.3,0.7,0.6,1.3,0.4,1.8c6.6-0.4,17.4-1.6,11.2-8.9
	c-1.7-2-3.6-2.1-0.1-5.2c5-4.3,10.7-4.9,10.6-10.8c-0.1-6-16.6-14.4-19.3-12.2c-2.7,2.2,8.7,17.6,2.2,14.8
	c-6.5-2.8-9.4-7.2-16.6-8.3c-7.2-1.1-10.5,0.5-10.2-3c0.3-3.5,5.4-5.6,3.9-8.3c-0.9-1.6-7.6-1.5-13.9-1.3c-0.4,1.1-1.2,2.6-2.1,4.2
	C123.9,244.6,129.1,245.5,128.8,247.3z M138,283L138,283C138,283,138,283,138,283C138,283,138,283,138,283z M51.7,267.6
	c0.4,0.3,1,0.4,1.8,0.3c0.4-0.6-0.7-1.5-2.1-2.4C51.2,266.5,51.3,267.3,51.7,267.6z M90.2,86.2c1.9-1.6,6.9-9.4,13.3-7.7
	c5.9,1.6,7.7-0.3,8.9,2.7c0.7-0.4,1.8-0.8,3-1.2c-2.1-0.4-4.4-0.9-6.4-1.4c-4-1-3.5-1.4-1.9-2.6c-5.6,0.3-10.9,0.3-13.1,1.5
	c-2.8,1.5-4.5,3.4-11.1,2.6c-4.8-0.6-5.5-1.7-10.2-2.2c-1.2,0.5-2.5,1.2-4.3,2.1c-3.4,1.7-7.4-1.2-13.1-0.3c2.6,2,4.3,3.5,4.1,4.1
	c-0.4,1.4-4.3-0.4-8.7-2.7c-2.3,0.9-4.6,2.1-7,3.3c3.1,1.4,6.4,1.3,12.5,2c4.9-0.7,11-1.7,11.5,0.1c0.4,1.7,0.1,3.9-2.8,5.1
	c0.7,0.8,5.1,0.8,21.7-0.8c0.1,0,0.2,0,0.3,0C86.6,89,88.5,87.6,90.2,86.2z M21.3,47.7c1.6-3.7-4.6-5.8-4.5-8.3
	c0.1-2.4,2.3-2.3,2.4-4.9c0.1-1-0.2-1.8-0.5-2.7c-0.3,0.2-0.5,0.4-0.7,0.6c-1.3,1.3-2.2,1.2-2.3-0.6c-0.1-1.4,1.3-1.8,2.3-3.2
	c0-0.6,0-1.3,0.2-2.1c-1.4-0.2-5,1.2-8.7,1.4c-5,0.3-2.7-4.2-2.3-5.5c0.3-1.2,4.5-1.3,6.8-1.3c2.3,0,6.8-0.4,8.2-0.7
	c1.4-0.3,5.5-3.7,7.9-5c1-0.5,4-0.7,7.2-0.7c-1.8-3.5,7-7.3,15.9-10C55.3,3,55.9,1.6,55,0.4c-0.2-0.3-1.4-0.1-1.7,0
	C43.2,2.7,34.2,4.7,24.1,7C17.9,8.5,12.8,5.4,7.7,2.8C7.9,4.8,7.9,7.1,7,7.7c-1.7,1.1-5.3-2.2-5.5-4C1.3,2.6,1,2.3,0.6,1.7
	C0.4,1.3,0,0.9,0,0c0,0,0,0,0,0v0.8v0.8v0.8v0.8V4v0.8v0.8v0.8v0.8v0.8v0.8v0.8v0.8v0.8v0.8v0.8v0.8v0.8v0.8v0.8v0.8v0.8v0.8v0.8
	v0.8V21v0.5c0.4,1.4,1,3.7,0,4.3v0.8v0.8v0.8V29v0.8v0.8v0.8v0.8V33v0.8v0.8v0.8v0.8v0.8v0.8v0.8v0.8v0.8v0.7c1.5-0.5,2.7,4.8,0,4.1
	v0.1v0.8v0.8v0.8v0.8v0.8V50v0.8v0.8c0.3,0,8.3,2.3,8.7,2.3C13.3,53.9,19.2,52.4,21.3,47.7z M24.9,23.4c2.9-0.1,6,0,7.3-0.6
	c0.8-0.3,1.6-1,2.6-1.8c-1.3-0.3-2.5-0.5-3.6-0.7C27.2,19.4,25.8,20.7,24.9,23.4z M117.3,209.1c-0.2-0.2-0.4-0.3-0.6-0.5
	c-0.9-0.6-1.4-0.2-1.7,0.5C115.8,209,116.5,208.9,117.3,209.1z M109.6,35.2c0.1,0.7,0.9,1.3,2,1.8c0,0,0,0,0.1,0
	c-0.2-0.8-0.4-1.6-0.7-2.2c-0.2-0.5-0.7-0.7-1.4-0.7C109.5,34.5,109.5,34.8,109.6,35.2z M189,7.4c-0.8,2.1-1.4,3.9-1.5,5.3
	c2,0.5,4,1.7,5.1,3.7c1.6-0.2,3-1.1,4.4,5v-0.2V21v-0.2v-0.2V0C194,1.5,190.7,2.8,189,7.4z M21.9,108.1c-0.9-0.5-2.3-1.3-3.8-2.4
	c-1.7,0.1-3.1,0.2-3.9,0.1c-0.3,0-0.6-0.1-1-0.2c1,1,2.2,2.1,4.4,4.1c4.3,4,2.4,7.5,0.3,13c-0.1,0.2-0.1,0.3-0.2,0.5
	c1.6,1,4.1-0.1,4.1-0.1s4.5-1.5,9.4-2.2c4.9-0.7,8.4,5.2,11.7,8.1c3.3,3,4.9-0.4,5.4-4.7c0.5-4.3-5-1.8-6.9-7
	c-1.9-5.3,3.5-2,7.3-2.8c3.8-0.8-2.7-2.2-6.5-3.5c-3.8-1.4,1.1-0.9,2-5.3c0.1-0.4-0.1-0.7-0.4-1c-3.1,1-7,1.8-9,2.3
	C31.1,107.7,25.7,110.1,21.9,108.1z M121.3,281.8c-1.8-1.7-5.7-2.3-7.8-3.4c-3.3-1.7-3.9-2.2-8.7-1.4c-7,1.2-9.3,3.8-13.7,2
	c-2.1-0.8-4.2-2.4-5.5-4.2c-0.1,0-0.2,0-0.3,0c-2.2,0.2-5.5,1.5-8.2,3c0,0.4,0.1,0.8,0.3,1.3c0.5,1.1,2.3,1.3,3,3.8h41.7
	C122,282.5,121.7,282.2,121.3,281.8z M31.2,45.2c-0.6-3,2.7-4.5,4.1-2.6c1.4,2,5.4,9,8.1,8.8c3.4-0.2,0.4-3.1,1.6-3.4
	c1.9-0.5,5.2,0.2,8.6,0.5c-1.2-0.4-2-1-2-2c0.2-4.1,7.8-3,11.3-3.7c3.5-0.7,2.7-1.1,4.1-4.3c0.8-1.6,2.6-2.7,4.6-3.7
	c-1.1-0.5-1.7-1.1-1.1-1.4c1.6-0.8,5.7-2.6,6.9-3.9c1.2-1.3-7.4,1.4-5.3-0.3c1.7-1.4,5-1.1,10-2.2c2-2.5,3.3-5.3,1.8-6.8
	c-2.6-2.7-13.6,0.5-13.7-2.2c-0.1-2.6,9.3-3.8,13.6-5.6c4.3-1.8,6.9,0.7,10.9,3c3,1.8,9.2,1.1,13.1,0.1c-0.3-3.4,3.4-7.4,5.9-10
	c2.7-2.8-4.6,2.6-8.2,4.8c-3.7,2.2-12.7-0.1-12.7-1.4c0-0.4,1.1-0.9,2.6-1.3c0,0,0-0.1,0-0.1c-0.4-1.3-23.7-0.3-27,0.2
	c-1,0.1-2.4,0.8-4,1.6c1.5,0.6,3.5,0.5,0.2,3.3c-2.5,2.1-6.9,3.7-11.4,4.7c0,0.1,0,0.1,0.1,0.2c2.3-0.5,1.3,1.7,2.6,2.9
	c1.4,1.4,4.6,0,6.9-1c2.4-1,2.6,0.3,2.7,2c0.1,1.7-4,3.1-8.6,4.5c-4.6,1.4-16.8-0.1-16.3,2.8c0.5,2.9,5.5,4.2,5.5,6.7
	c0,2.6-13.9,0.7-18,0.7c-4.1,0-4,3.3-4.4,4.6c-0.3,1.4-2.2,11.1-0.1,13.9c0.6,0.9,1,1.8,1.3,2.8c0.9-1.1,1.7-2.1,1.7-2.9
	c0-2,8.9,0.3,12.6-1.2C37.5,50.9,31.7,47.5,31.2,45.2z M72.3,52.9c1.4-0.3,2.3-0.7,4.4-1c1.7-1.9,3.8-4.1,5.8-4.6
	c1.1-0.3,2.2,3.4,3.4,3.1c1.3-0.3,2.7-4.6,4-4.9c7.1-1.9,14-4.2,16.2-5.9c-1.4-3-5.4-0.2-9.3,1c-3.9,1.2-6.7-0.5-12.9-0.6
	c-6.2-0.1-7.6,2.8-12.7,5.9c-2.4,1.5-7,2.6-11.2,3c0.4,0.2,0.8,0.4,1.1,0.6C66.1,49.5,70.4,50.4,72.3,52.9z M112.6,241.8
	c0.1,0.1,0.2,0.2,0.4,0.3c0.1-0.4,0.3-1.2,0.5-2.3c-0.4,0-0.9,0-1.2,0C112.3,240.4,112.4,241.1,112.6,241.8z M186.8,29.7
	c-1.1,0.3-2.2,0.7-3.3,1c-8.3,2.7-20.5,3.4-21.8,0.5c-0.7-1.6,1.5-3,3.1-4.2c-0.2-0.1-0.3-0.2-0.4-0.4c-0.3-0.6,0.4-1.1,1.8-1.7
	c-0.1-0.1-0.2-0.2-0.4-0.3c-2.4-1.5-17.7-0.3-20.7-1.9c-3-1.6-4.5-3.3-3.5-4.6c1-1.3,4.3,0.4,5.7-1c-1-1.2-1.7-2.5-1.6-3.6
	c0.1-1.9,1.7-2.6,3.2-3.6c-0.1-1.4-0.5-2.7-1.2-3.7c-1.3-1.9-3-2.3-5-2.7c-6.6-0.5-14.9-0.2-15.8-0.9c-1.4-1.3-4.5-0.7-5-2.7h-4.4
	l-8.4,0h-0.7h-0.7h-0.8h-0.8h-0.8h-0.8h-0.8h-0.8h-0.8h-0.8h-0.8h-0.8h-0.8H80.5c0,0,0,0,0,0c0.9,2.1,11.8,4,22.4,5.3
	c0.1-0.1,0.2-0.1,0.3-0.2c0.8-0.9,0.5-1.6-0.2-2.3c-1.1-1,0.2-1,2.9-1.3c7.2-0.8,18.2-2.4,15,0.8c-1.9,1.9-0.7,1.4,1.5,2.8
	c2.2,1.5,11.7-2,15.4,0.4c3.7,2.4,1.2,2,6,4.5c4.8,2.4-3.1,6.1-7.3,4.1c-4.2-2-12-3.6-15.2-3.3c-3.1,0.3-4.5,3.3-4.1,6.1
	c0.4,2.8,9.4,1.6,10.1,4.1c0.7,2.4-6.1,2.2-5.7,4.3c0.4,2.2,10.1,4.9,9.7,6c-0.4,1.1-16.5-1.4-16.1,2.8c0.1,1.1,0.8,2.1,1.7,3
	c6.1,0.2,13.8,0.9,19.1,1.4c1.6-1.1,1.4-2.7,5.3-3.1c4.6-0.4,24.3-3.9,23.5,1.4c-0.8,5.2-5.9,5.2-10.1,4.4
	c-4.1-0.8-9.2-4.3-10.7,0.1c-0.3,1,0,1.7,0.7,2.1c4.7-0.1,10.9-0.2,12.4,0.6c2.4,1.3,6.5,4.7,7.9,5c0.7,0.2,2,0.3,3.5,0.5
	c3.5-2.1,10-5.4,12.8-3.3c1.9,1.5,0.6,4.4-0.6,7.6c0.1,0.9,0,1.7-0.7,2.2c-0.1,0.5-0.2,0.9-0.3,1.4c2.5,0.2,5.5,1.3,8.1,2.4
	c1.3-1.6,2.6-3.4,3.9-4.8c1.9-2.2,3.1-3.7,5.4-3.3v-6.5c-6.7-1.5-10.4,2.6-8,0c2.4-2.5,4.9-2.9,8-4.2V25.8c-1.3,0.9-3,1.6-4.9,2.2
	C191,30.3,189.4,31.7,186.8,29.7z M99.5,137.3c-1.9,0.1-2.6-0.6-4.5-3.8c-0.3-0.6-1.3-1.1-2.5-1.7c-0.3,0.9-0.6,1.8-0.9,2.5
	c1.1,0.2,1.9,0.4,2,0.8c0.7,1.6-4.1,2.6-7.1,3.2c-3,0.5-7.8-0.7-10.8-1.7c-3.1-0.9-0.4,0.9-5.7,0.3c-3.3-0.3-4.8-1.5-6.1-2.4
	c-1.3,0.3-2.6,0.6-4,1c-0.3,1.2-0.2,2.8,0.1,4.3c0.5,2.7-1.1,4.1-5.8,4c-0.8,0-1.4-0.4-2-0.9c0.5,1.7,1,3.5-0.5,4.3
	c-2.4,1.4-9.1,0.7-6.6,3.3c2.5,2.5,8.7-1.1,15.5-2.2c6.8-1.1,20.5,0.6,24.4-1.2c3.6-1.6,8.9-4.3,11.6-4c2.6-1.6,6.2-3.4,7.3-4.4
	C105.7,136.9,101.4,137.2,99.5,137.3z M157.7,48.4c-0.6,2.3-2.8,5.1-6.3,6.6c-5.9,2.5-9.8-0.8-10.8,4.5c-1,5.3,4.7,5.2,6.4,4
	c1.8-1.2,9.5-5.8,9.5-1.8c-0.1,3.9-12.8,4.1-14.8,9.4c-2,5.3,3.3,8.2,9,5.9c5.8-2.3,11.1-1.4,11.1,2.2c0,3.7-6.1,5.5-7,7.6
	c-0.9,2.2,0.3,2.9-2.9,3.5c-3.2,0.5-4.9,0.6-8,3.7c-3.1,3-1.6,4.9-6.3,5.4c-0.7,0.1-1.4,0.1-2.2,0.1c-1.9,1.4-3.3,2.9-2.1,4.2
	c2,2.3,2,5-3.8,6.6c-3.3,0.9-8.2,0-12.3-1.2c-0.6,0.2-1.2,0.4-1.6,0.6c-3.7,2.2-5.4,4.1-8.3,3.3c-2.9-0.9-5.8-5.4-9.7-2.8
	c-3.7,2.4-3.7,6.3-3.1,8.1c4.8,1.2,11,4.3,13.2,5.4c2.8,1.4,6.9,0.4,9.9,1.2c3,0.7,7.1,3.9,14.4,1.2c1.4-0.5,3-1,4.8-1.6
	c-3.9-0.2-7.7-0.4-8.5-3.1c-0.8-2.8,7.2-5.7,14.6-3.4c0.6-0.1,1.5-0.4,2.5-0.7c2.6-2.3,5.3-4.7,3.4-6.1c-3.4-2.4-8.4-2.6-7.7-5.9
	c0.7-3.3,12.4-2.8,12-5.5c-0.4-2.7-8.3-2.4-4.8-4.4c0.6-0.4,1.5-0.6,2.7-0.7c0-0.9,0.2-1.7,0.5-2.1c1.3-1.6,3.4-0.9,6.6,0
	c3.2,0.9,6.9-1.5,7.8-2.9c0.9-1.4-2.7-2.8-2.7-5.5c0-1.6,1.5-1.7,3.4-1.6c0.9-4.9,2.9-11.4,1.2-13.8c-2.6-3.5-5.7-8.7-4.6-13.4
	c-0.1-0.2-0.2-0.5-0.3-0.7C161.9,50.9,161.2,48.3,157.7,48.4z M193.5,185.7c-1.8,2.5-2.2,6.9-2.6,4.6c-1-5.7-8.6-7.7-14-11.7
	c-5.4-3.9-5.6-6.1-0.1-6.5c2.4-0.2,4.3-1.9,5.6-4c-2.1-0.1-4.2-0.4-6-0.9c-5.9-1.6-5.9-4.3-3.8-6.6c2-2.3-3.5-5-6.4-7.2
	c-2.9-2.2-4.5-2.4-3.3-4.7c0.8-1.6,6.1-7.3,9-11.7c-2.5-3.9-5.7-7-8.5-7.2c-1.2-0.1-3.2-0.4-5.5-0.9c-0.6,3.2-1.9,6.5-3.1,7.6
	c-2.3,2.2-0.4,3.6,2.7,7.9c3,4.4,1.6,5.3,0.1,6.8c-1.6,1.6-7.5-4.2-10.1-4.7c-2.6-0.5-12.5-5.8-13.8-6.8c-1.3-1-3.9-3.2-6.2-2.8
	c-2.2,0.4-3,4.7-4,5.7c-1,0.9-0.3,3.4-0.9,5.4c-0.5,2-4.1,1.3-5,3.4c-1,2.1,1.4,0.7,5.8,1.8c1.1,0.3,1.7,0.6,1.9,0.9
	c1.4-1.6,1-4.1,4.3-6.7c2.2-1.8,4.7-2.2,6.7-1.3c4.6,2.1,2.7,1.7,6.9,1.3c1.8-0.2,5.2,0.7,11.4,3.5c13.1,6-11.5,13.7-21,10.7
	c-9.2-2.9-11.5-1.2-17,1.1c-0.2,0.9,0.5,0.5,4.6-0.7c4.4-1.4,5-2,5.3-0.3c0.3,1.7-6.3,3.8-4.2,5.7c2.1,1.9,10.4-6.6,12.2-5.1
	c1.8,1.5-2.7,2.6-3.8,4.5c-1.2,2,2.9,3.3,3.6,5.9c0.7,2.6-2.9,0.1-5.6-1.1c-2.7-1.2-2.6,2-3.9,2.7c-1.4,0.7-5.2-2.6-8.4-2.8
	c-3.3-0.3-1.1,1.6,0,3c0.6,0.8,2.2,2.3,3.2,3.5c2,0.3,3.5,0.5,4.2,0.9c3.9,1.8,6.9,1.3,10.4,3.5c3.5,2.2,14.1,7.6,19.8,8
	c4.2,0.3,8.3-0.5,10.3-1.7c0.5-0.8,0.9-1.5,1-2.1c0.5-1.9-2.9-2.2-3.2-4.8c-0.3-2.6,6.3-6.6,7.7-3.4c1.4,3.2-1.4,4.1-0.7,7.3
	c0.7,3.2,4.4,1,4.8,6.6c0.3,5.6,1.3,11.7,2.7,11.2s5-4.5,5.2-1c0.1,3.5,0.1,4.3,0.8,4.1c0.7-0.3,4.4-1.8,6.1-0.9
	c1.5-2.1,3.1-5.5,4.7-8.8c1.3-2.7,2.1-6.4,3.9-7v-5.4C195.1,184.1,194.3,184.6,193.5,185.7z M179.4,220.3c-2.4-4.7-4.6-20.7-7.1-22
	c-1.5-0.8-3.4-1.4-5.3-0.8c-0.1,0.7-0.3,1.2-0.5,1.4c-0.2,0.1-0.8,0.4-1.6,0.6c-0.2,0.5-0.3,1.1,0,1.7c1.2,2.2,3.9,0.8,5.5,3.3
	c1.6,2.5-7.9,7.3-8.3,9.1s3.7,2.1,6.9,3c3.2,0.9,1.7,6.2-4.4,11.9c-1.1,1-2.8,1.7-4.8,2c-0.8,0.7-1.8,1.5-2.9,2
	c-1.3,0.7-2.5,1.3-3.5,1.9c2.4,0.5,7.7,0.5,11.9,0.4c-0.3-0.7,0.2-1.3,1.9-1.7c3.3-0.8,6.7-0.5,7.2-2.2c0.5-1.7,0.4-5,3.7-5
	c3.3,0,6.5,0.3,7.7-0.4c0.8-0.5,3.1-2.1,5-2.2c-0.2-0.6-0.5-1.1-1.2-1.6C185.5,222.6,180.7,222.9,179.4,220.3z"/>
<path id="color1" fill="#FFFFFF"
 d="M7.8,73.5c-2.3-2.3-5.1-2.9-7.8-3.1v-15c0.1,0.1,0.1,0.1,0.2,0.2c2.6,2.6,2.6,1.5,6.8,2
	c4.2,0.5,6,6.2,11.7,14.8c5.7,8.5,6.6,2,10.5,0.7c3.9-1.2-3.3-2.4-6.1-7.7c-1.8-3.3,0-5.9,1.5-7.8c0.9-1.1,1.7-2.1,1.7-2.9
	c0-2,8.9,0.3,12.6-1.2c0.4,0.7,0.5,1.4,0,2c-2.2,2.6-4.8,6.3-7.2,3.4C29.4,56,27,57.2,27,57.2c-1.9,0.4-2.8,12,3.3,12.1
	c0.9,0,1.7,0,2.4,0c1.7,2.7,10.2-0.7,10.2-0.7c7.9,0.7,23.3-3.5,24.7-1.4c1.8,2.8,2.3,2.7,7,3.9c4.7,1.2,4.7,3.5,1.3,3.9
	c-3.4,0.5-17.6-3.9-22.3-4.3c-4.7-0.4-23.8,5.8-21.1,7.2c2.7,1.4,22-0.1,33.3-0.3c3-0.1,5.1,0,6.7,0.2c-1.2,0.5-2.5,1.2-4.3,2.1
	c-3.4,1.7-7.4-1.2-13.1-0.3c0,0-0.1,0-0.1,0c-1.5,0.2-3,0.7-4.5,1.3c-2.3,0.9-4.6,2.1-7,3.3c-2.2,1.1-4.5,2.1-7,2.9
	c-6.9,2.2-8.8-4.2-12.5-4.2C20.5,83.1,12.8,78.4,7.8,73.5z M8.3,276.9c0.4-1.8,0.9-0.2,4.6,0.6c4.3,1,4,0.3,4.6-3.8
	c0.1-0.9,0.3-2.1,0.6-3.4c1.6-7.2,2.1-3.9,3.1-4.7c1-0.8,2.9-3,4.7-10.2c1.8-7.2-1.6-5.6-3.3-10.9c-1.6-5.2-3.8-2.7-6.5,0
	c-2.7,2.7-1.4,6.9-1.9,11.6c-0.5,4.3-3.1,2.9-6.3,4.3c-0.3,0.1-0.7,0.3-1,0.5c-3.7,2.4-4.1,11.6-5.8,16.7c-0.8,2.5-1,2.6-1.1,5.2
	h7.2C6.4,279,7.8,279,8.3,276.9z M47.9,15.1c1.5-0.1,4.6,0.5,5.2,2.3c4.5-0.9,8.9-2.6,11.4-4.7c3.3-2.7,1.2-2.6-0.2-3.3
	c-0.8-0.3-1.4-0.8-0.9-2.1c1.3-3.6,7.3-2.7,6.2-5.6c-0.1-0.3-1.9-0.2-4.6,0.2c-3,1.1-6.2,2-6.7,1.5c-1.7,0.4-3.4,0.9-5.1,1.4
	c-8.9,2.7-17.7,6.5-15.9,10C41.8,14.9,46.9,15.2,47.9,15.1z M122.3,43c-1.6,2.2-7.9,0.7-8.4,3.1c-0.5,2.4,5.8,7.6,4.6,10.4
	c-0.3,0.8-3.2,1.2-7.2,1.5c-4.1,2.8-8.7,5.4-5.4,7.2c3.3,1.8,9.4,6,9.4,8.4c0.9,0.1,1.7,0,2.4-0.4c2.2-1.1,5.2,2.2,3,4.3
	c-1,1-3.4,1.7-5.5,2.4c-1.1,0.4-2.2,0.8-3,1.2c0.1,0.2,0.2,0.4,0.2,0.7c0.3,1.1,0.8,2.4,1.4,3.8c0.8,0.6,1.6,1.3,2.4,2
	c-1.2-2.5-2.8-4.8,0.4-3.8c4.4,1.3,2.2,5.9,4.3,4.9c2-0.9,1.2-10,2-11.7c0.8-1.7-0.8-6.1,1.6-6.5c2.4-0.4,4.9-0.4,3.4,3.3
	c-1.5,3.7-2.7,8.9-0.9,11.5c1.8,2.5,5.7,9.3,2.7,10.2c-3,0.9-6.5,0.5-7.6,2c-1.2,1.5-1.8,3.4-4.5,2.6c-2.7-0.8-2.2-2.6-6.9-2.4
	c-4.6,0.2-12.4,1.6-13.5,0.3c-0.5-0.6,0.8-2.2,2.5-3.7c-0.4,0-0.8,0-1.2,0c-4.9-0.1-9.8,0.2-12.2,1.4c-4.8,2.4-5.4,7.3-10.5,6.8
	c-5-0.5-8-1.9-9.9-1.6c-1.9,0.3-0.5,4.3-5.4,3.1c-4.9-1.2-2.7-0.3-5.5,5.5c-2.9,5.8,0.3,6.6-0.8,11.1c-1.1,4.5-5,19.5-11,16.1
	c0,0-0.1,0-0.1,0c0,0.1,0,0.3,0,0.4c0.2,3.5-4.3,3.5-7.8,3.2c-3.5-0.3-5.1,4.2-4.8,6.6c4.2,1.7,7.9,2.8,9.4,2
	c4.2-2.3,8.2-3.1,8.7-8.3c0.2-2.2,1-4.1,1.9-5.7c0.3-2.6,1.4-4.6,2.9-3.8c0.4-0.4,0.7-0.7,1-1c1.1-1.1,3-2.5,5.1-4.3
	c-1.8-2.2-4.4-4.6-4.7-6.4c-0.5-3,2-4.5,3.1-2.6c0.7,1.3,2.7,4.3,4.4,6.5c1.1-1.1,2.3-2.3,3.3-3.6c3.9-5,2.4-6.8,12.8-8.4
	c10.3-1.6,8.3-3.3,14.6-5.4c6.3-2.2,14.7-0.4,17.4,0.8c1.2,0.5,3.8,1.6,6.9,2.5c4.1,1.2,8.9,2.1,12.3,1.2c5.9-1.6,5.9-4.3,3.8-6.6
	c-1.2-1.3,0.2-2.8,2.1-4.2c1.4-1,3.1-2,4.3-3c2.9-2.2,4.5-2.4,3.3-4.7c-1.2-2.3-12-13.7-11.1-16.5c1-2.8,8.5-4.9,6-8.5
	c-2.5-3.6-11-4.5-14.8-6.2c-3.8-1.7-1.6-6.6,2.3-8.2c2.2-0.9,5.9-1.7,9.2-2.6c-0.7-0.8-0.9-2-0.9-3.3c0-2.3,3.6-3,5.3-2.9
	c0.4,0,1.7,0,3.4-0.1c1.1-2.2,1.6-4.4-0.5-4.5c-0.7,0-3-0.3-6.1-0.5c-5.3-0.5-13-1.2-19.1-1.4C119.2,39.6,123.6,41.4,122.3,43z
	 M187.2,135.8c2.9,1.6,4.9,3.5,2.3,5.3c-1,0.7-1.1,2.5-1.1,4.4c2.1-2,5.3-4.2,6.1-5.7c1.2-2.2-4.9-3-8.1-4.6
	C186.6,135.5,186.8,135.6,187.2,135.8z M191.9,150.1c-1.5,0.3-3,1.1-4.2,0.4c-0.4,0.8-1,1.5-2,1.7c-4.5,1.1-9.2,0.4-6-3.7
	c3.2-4.1,7.4-5.4,3.7-6c-3.7-0.5-7,0-6.9-1.6c0.2-1.6,8.9-0.5,7.7-1.9c-1.1-1.2-8.9-2.2-10.6-5c-0.4,0.8-0.9,1.8-1.6,2.8
	c-3,4.4-8.2,10.1-9,11.7c-1.2,2.3,0.4,2.6,3.3,4.7c2.9,2.2,8.4,4.9,6.4,7.2c-2,2.3-2,5,3.8,6.6c1.8,0.5,3.9,0.8,6,0.9
	c4.7,0.3,9.3-0.1,10.4-0.6c1.5-0.7,2.9-0.6,4.2-0.3v-16.1C195,150.3,193.9,149.8,191.9,150.1z M168,123.6c-2.1,2.9,2.6,4.8,4.9,7
	c-0.6-3.5-1.3-6.5-3.1-8.6C169.1,122.4,168.4,123,168,123.6z M176.3,119.9c0.3-0.1,0.7-0.4,1.2-0.8c-0.6,0.2-1.3,0.4-1.9,0.5
	C175.8,119.8,176.1,119.9,176.3,119.9z M176.8,282.2c0.2-0.4-0.4-2.7,4.9-2.1c8.9,1,0.9-5.3,8.2-6.2c2.2-0.3,2.9-1.6,4.7-5.3
	c1.8-3.7-1.6-2.9-3.3-5.6c-1.6-2.7-3.8-1.4-6.5,0c-2.7,1.4-1.4,3.6-1.9,6c-0.5,2.4-3.6,1.3-7.3,2.5c-3.7,1.2-4.1,5.8-5.2,7.5
	c-1.1,1.7-0.4,3-2.7,3.9h8.2C176.1,282.8,176.6,282.6,176.8,282.2z M192.7,224.1c-0.5-0.5-1.2-0.7-1.9-0.7c-1.9,0.1-4.1,1.7-5,2.2
	c-1.2,0.7-4.4,0.4-7.7,0.4c-3.3,0-3.2,3.3-3.7,5c-0.5,1.7-3.9,1.4-7.2,2.2c-1.7,0.4-2.1,1-1.9,1.7c0.3,0.7,1.3,1.7,2.7,2.9
	c2.8,2.4,1.7,1.8,0.3,4.1c-2.3,4.1,9.2,1.3,10.9,2c1.7,0.7,5.8-0.7,6.9-3c1.5-3,4.6,4.8,5.1,6.1c3.5,1.3,1.7-4.1-1.8-6.8
	c-1.8-1.4-0.6-1.3,1.5-0.6c1.8,0.6,3.2,1.9,6,2v-19.4C195.5,221.6,194.5,226,192.7,224.1z M3.5,241.6c1.5-0.1,2.3-0.7,2.8-1.4
	c1.4-2.1-0.2-6,0.8-8.2c1.4-3,12.2,0.4,18.5,0.1c6.3-0.3,5.3,2,8.6,3.4c3.3,1.4,11.3,2.2,13.9-3c2.6-5.2-7.2-1.6-11.8-2
	c-4.6-0.4-3.3-3.5-8.2-4.7c-4.4-1.1-16.6,0.7-22.6-1c-0.7-0.2-1.4-0.5-1.9-0.8c-1.1-0.7-2.3-1.3-3.7-1.7v19.4
	C1.1,241.7,2.3,241.7,3.5,241.6z M33.9,156.5c0.9,0.7,1.8,1.7,2.4,2.5c2,3,2.4,5.2,4.9,1.5c1.9-2.9,4.8-0.8,6.1,2.2
	c1.2-1.1,3.1-1.7,7.5-2.3c7.6-1.1,14.7-2.2,6.9-4.6c-7.8-2.4-11.2,0.1-16.6-0.1c-2.2-0.1-7.1-0.1-12.6-0.1c0,0,0,0,0,0
	C33.1,155.9,33.6,156.1,33.9,156.5z M34.2,169.8c-2.1-2.4-4.3-5.5-4.9-10.4c0-0.2,0-0.5-0.1-0.7c0-0.2-0.1-0.4,0-0.7c0,0,0,0,0-0.1
	c0-0.2,0-0.5,0-0.7c0-0.7-0.1-1.2-0.2-1.7c-6.9,0-14-0.1-17.7-0.4c-4.3-0.4-8-2.5-11.4-4v16.1c4.7,1.2,9.4,2.1,15,2.8
	C20.5,170.7,28.1,170.6,34.2,169.8z M194.9,57.2c-3.2,4.2-3.2,12.3-3.8,9.5c-0.7-3.4,2.9-4.2-2.7-6.6c-0.2-0.1-0.5-0.2-0.7-0.3
	c-2.6-1.1-5.6-2.1-8.1-2.4c-2.9-0.2-5.1,0.6-5.3,3.9c-0.3,6.4,8.2,8.4,10.5,11c2.3,2.6-0.4,4.9-0.4,4.9c-1.8,2,0.7,6.1,3.9,4.9
	c1.2-0.4,3.5-4.9,5.6-8.2c1.1-1.8,1.5-3.4,3.1-3.4v-15C195.9,54.4,195.5,56.5,194.9,57.2z M106.8,38.3c0.1,0.4-0.1,0.8-0.7,1.3
	c-2.2,1.8-9,4-16.2,5.9c-1.3,0.3-2.7,4.6-4,4.9c-1.2,0.3-2.2-3.3-3.4-3.1c-2,0.5-4.1,2.7-5.8,4.6c-1.8,2-3.1,3.7-3.5,2.7
	c-0.2-0.6-0.5-1.2-0.9-1.7c-2-2.5-6.3-3.4-11.1-3.5c2,1.5,1.9,4.3-0.1,5.3c-2.9,1.4-5.7,2.1-3.7,3.5c1.9,1.4,23.3,0.9,24.2,2.6
	c0.7,1.4-5.9,2-10.4,2.5c3.6,4.1,10.4,10,10.1,7.1c-0.3-3.2-11.7-7.9-1-6.6c10.7,1.3,5.5,5.9,10.6,4.9c4.3-0.8,3.3-7.5,4.2-10.5
	c-6.9-0.1-12.6-0.4-12.6-0.4c-4.7-2.4,3.9-3,11-3c2.2,0,4.4-0.3,6.3-0.8c1.4-0.8,3.1-1.6,5.3-2c1.3-0.6,2.1-1.2,2.4-1.4
	c0.8-0.7,2.2-2.9,3.4-4.3c1.2-1.4-1.1-3-2.5-4c-1.4-1,0.3-1.8,2.2-1.8c1.3,0,1.3-1.7,1-3.4c0,0,0,0-0.1,0
	C108.5,37.1,106.5,37.5,106.8,38.3z M23.7,139.2c-0.1-2.7,4.5-1.2,7.8-1.1c2.9,0.1,2.6-1.4,4.7-3.7c-10.1-2.4-25.7-3.5-23.7,3.5
	c0,0,6.8,3.9,13.7,7.1c0.1-0.1,0.2-0.2,0.3-0.4C27.3,143.2,23.7,141.9,23.7,139.2z M188.3,93.4c-2.2,0.5-5.9,1.2-8.2,1.5
	c-1.1,0.1-2.2,0.2-3.3,0.3c-0.3,0.8-1.2,1.7-4,2.9c-3.9,1.7-0.9,4.1-1.1,6.5c-0.2,2.4-1.2-1.2-3.2-4.7c-0.9-1.5-3.2-1.9-5.7-1.9
	c0.4,1.8,1.9,4.2,3.2,5.8c2.2,2.7,10.8,3.8,14.7,5.4c3.7,1.5,5.9,6.1,2.8,8c0.1,0.1,0.3,0.3,0.4,0.5c1.8,3.3-6.2,8.3-5.2,10.7
	c0.8,1.9,4,5,6.1,5.1c-0.7-2,1.7-4.3,3.6-3.4c0.2,0.1,0.3,0.1,0.5,0.2c0.9-0.6,1.7-0.8,1.8-0.1c1.7-0.4,3.8-1.6,6.6-1.8V94
	C194.6,92.1,192.4,92.4,188.3,93.4z M157.7,122.1c-1.2-1.4-7.7-0.6-14.3,0.8c-2,1-3.9,1.8-5.7,1.7c-0.3,0-0.6,0-0.9-0.1
	c-1.8,0.5-3.5,1.1-4.8,1.6c-7.3,2.8-11.4-0.4-14.4-1.2c-3-0.7-7.1,0.2-9.9-1.2c-2.2-1.1-8.5-4.2-13.2-5.4c-1.2-0.3-2.3-0.5-3.2-0.5
	c-4.6,0-13.5-1.6-13.5,0.5c0,2.1,0.6,2.9,2,3.9c0.9,0.7-0.6,0.5-2.4,0.9c1.4,0.8,1.9,2.5,1.6,3.8c4.1,1.4,10.1,3.1,13.5,4.7
	c1.2,0.6,2.2,1.2,2.5,1.7c2,3.2,2.6,3.9,4.5,3.8s6.3-0.4,4.4,1.3c-1.1,1-4.7,2.8-7.3,4.4c-1.9,1.2-3.2,2.2-2.6,2.6
	c1.5,0.9,8.5-1.2,6.9,1c-1.6,2.2-4.2,2-4.5,3.9c-0.2,1.1,0.9,2.5,2,4c0.3,0.5,0.7,0.9,1,1.4c4.2,1.5,14.5,0.2,21-0.1
	c2.7-0.1,3.9-0.7,4.7-1.6c-0.2-0.3-0.8-0.6-1.9-0.9c-4.4-1.2-6.7,0.3-5.8-1.8c1-2.1,4.5-1.4,5-3.4c0.5-2-0.1-4.5,0.9-5.4
	c1-0.9,1.8-5.3,4-5.7c2.2-0.4,4.9,1.8,6.2,2.8c1.3,1,11.2,6.3,13.8,6.8c2.6,0.5,8.5,6.3,10.1,4.7c1.6-1.6,2.9-2.5-0.1-6.8
	c-3-4.4-5-5.7-2.7-7.9c1.2-1.2,2.5-4.5,3.1-7.6C158.5,125.9,158.6,123.2,157.7,122.1z M127.1,2.7c0.8,0.7,9.1,0.5,15.8,0.9
	c4.8,0.4,8.8,1.1,8.4,2.9C151,8.3,150,9.3,149,10c-1.5,1.1-3.1,1.7-3.2,3.6c-0.1,1.1,0.6,2.4,1.6,3.6c2,2.5,5,4.4,4.5,2.4
	c-0.7-3-0.7-6.7,1.8-4.8c2.6,1.9,15.3,4.8,17.9,2.8c2.6-2,5-4.7,1.2-4.9c-3.8-0.1-15.1-0.7-15.2-2c-0.1-1.4,17.2,0.3,20.9-0.6
	c3.7-0.9,6.2,0.3,7.9-4.9C188.1,0,175.3,1.1,176,0c0,0,0,0,0,0h-8.2c0,0,0,0,0,0c-4.8,1.2,0.8,2.3-3.8,2c-3.2-0.3-7.9-0.5-11.6-1.1
	C149.2,2.5,140.5,2.4,138,0l-9.3,0h-6.6c0,0,0,0,0,0C122.6,2,125.7,1.4,127.1,2.7z M107.3,162.3c-2.7,0.1-3.3,0.5-3.7,1.3
	c2,1.6,4.5,3.5,3.6,4.8c-1,1.4-4.4,1.3-7.8,1.4c-2.8,2.5-4.9,2.7-6.4,1.8c-1.1,0.9-2.1,2.1-3.3,3.3c-1.7,1.8-3.5,3.8-6.1,5
	c-5.6,2.6-11.3,2-14.4-0.1c-3.1-2.1-5.5-5.2-8.7-4.6c-3.2,0.6-6.6,2.6-7.8,4.6c-1.2,2,4.6,1.1,7.5,1.8c2.9,0.7,4.4,1.7,2.3,2.6
	c-2.1,0.9-6-1.2-6.2,1.2c-0.2,2.3,4.2,1.7,0.2,3c-2.5,0.8-14.6,1.8-21.5,3.2c-4.2,0.9-6.5,1.9-3.5,3.2c0,0,1.5,0.1,3.8,0.3
	c7.7,0.5,24.5,1.3,29.6-0.5c6.7-2.4,6.5-4.3,14.4-4.5c3.7-0.1,6.5-0.7,8.7-1.4c0,0,0,0,0,0c5.5-1.2,14.8,0.2,18,3.7
	c1.3,1.4,1.6,3.1,0.3,5.2c-0.3,0.5-1.2,0.7-2.2,0.9c-2.3,0.3-5.5,0.4-6.6,1.8c-1.1,1.6-10.8-0.7-11.8,1.6
	c-0.9,5.7,17.4,1.8,21.8,2.4c0.3,0.3,0.6,0.6,1,0.8c2.3,1.6,3.9,0.2,4.9-1.9c0.8-1.7,1.3-4,1.5-5.7c0.1-0.7,0.1-1.3,0.1-1.7
	c0-1.5-0.9-4.2-2.6-6c1,0.1,1.9,0.1,2.6,0c4.8-0.5,3.9-1.6,8.7-1.8c4.8-0.1,7.3-0.7,6.5-1.9c-0.8-1.2-7.3-2.8-10.6-3.5
	c-3.3-0.7-12.1-0.1-12.8-0.7c-0.7-0.5,12.4-1.1,13.5-1.8c0.5-0.3,0-1.2-0.9-2.2c-1.1-1.3-2.6-2.8-3.2-3.5c-1.1-1.4-3.3-3.3,0-3
	c3.3,0.3,7.1,3.5,8.4,2.8c1.4-0.7,1.2-3.9,3.9-2.7c2.7,1.2,6.3,3.7,5.6,1.1c-0.7-2.6-4.7-3.9-3.6-5.9c1.2-2,5.6-3,3.8-4.5
	c-1.8-1.5-10.1,7-12.2,5.1c-2.1-1.9,4.5-4,4.2-5.7c-0.3-1.7-0.9-1.1-5.3,0.3c-4.1,1.3-4.8,1.6-4.6,0.7c-0.2,0.1-0.4,0.2-0.6,0.3
	C110.2,165.4,113.3,162,107.3,162.3z M164.4,26.8c0.1,0.1,0.2,0.3,0.4,0.4c2.7,1.9,17.3,1.4,21.4,2.1c0.2,0.2,0.4,0.4,0.6,0.5
	c2.5,2,4.2,0.6,5.3-1.7c1.1-2.4,1.6-5.8,1.6-7.3c0-1.7-0.4-3.1-1.1-4.2c-1.2-2-3.1-3.2-5.1-3.7c-3.1-0.9-6.3-0.1-6.4,1.5
	c-0.4,6.5-10.7,9-14.9,10.9C164.9,25.7,164.1,26.2,164.4,26.8z M139.6,281.6c2.4-2.8-4.1-2.6-11.3-4.2c-7.2-1.6-10.7-4.1-16.1-5.2
	c-5.3-1.1-3.8-3-9.8-5.4c-6-2.4-6-3.4-4.9-6.4c0.7-1.9,1.3-3.6,1.1-5.3c-0.1-1-0.5-2-1.4-3c-4.6-5.7-5.7,1-5.9,6.5
	c-0.1,3,0,5.7-0.1,5.8c-1.1,2.3-4.1,2.2-6.5,4.8c-1.3,1.4-0.7,3.5,0.9,5.5c1.3,1.7,3.4,3.3,5.5,4.2c4.5,1.8,6.7-0.8,13.7-2
	c4.7-0.8,5.4-0.2,8.7,1.4c2.1,1,6,1.7,7.8,3.4c0.4,0.4,0.7,0.7,0.8,1.2H138c0,0,0,0,0,0C136.5,281.7,139.1,282.1,139.6,281.6z
	 M159.8,230.6c1.5-1.4,2.2-2.8,0.6-3c-2.4-0.3-3.8,0.3-3.8,0.3c-3.3,0.2,2.3-9.8,1-10.5c-1.4-0.7-4.7,0.7-5.3,2.4
	c-0.6,1.7-0.2,3.1-1.6,1.8c-1.4-1.3-0.1-2.2-3.8-2.2s-13.3,1-12.7-0.5c0.6-1.6,4.4-3,4.5-4.4c0.1-1.4-3.1-6.4-7.4-7.1
	c-4.4-0.7-8,5.2-10.2,3.6c-1.4-1-2.6-1.6-3.8-1.8c-0.8-0.2-1.6-0.2-2.3,0c-1.1,0.3-2,1-2.7,2c-0.9,1.2-1.4,2.8-1.5,4.3
	c-0.3,2.9,0.6,5.9,2.7,6.2c1,0.2,2-0.1,3-0.5c3.1-1.4,5.9-5.1,7.6-5.9c2.2-1,5.4-1.8,4.2,0.9c-1.2,2.7-4.5,0.5-3.3,4.3
	c0.7,2.1,3.7,1.6,6,1.2c1.7-0.3,3-0.5,2.2,0.6c-0.6,0.9-1.1,1.2-1.7,1.4c-1.1,0.4-2,0.1-2.6,1.2c-0.4,0.8,0.7,0.6,2.3,0.4
	c1.8-0.3,4.1-0.7,5.2,0.1c1.1,0.8,0.5,2.4,0.1,4c-0.3,1.5-0.4,2.9,1.2,3.8c1.9,1,3.4-1.2,5-3.1c1.3-1.5,2.5-2.8,3.8-1.7
	c1.2,1,2.2,1.7,2.6,2.4c0.6,1,0.2,1.9-2.2,3.4c-4.8,3.1-11.4,8.4-5.2,13.9c2.9,2.5,4.4,6.5,7,3c-0.1-0.5-4.4-1.4-2.9-5.5
	c1.5-4.1,6.3-4.1,5.8-7.2c-0.3-1.8,0.4-2.9,1.8-3.8c0.9-0.6,2.1-1.2,3.5-1.9C158,232.1,159,231.3,159.8,230.6z M17.6,123.3
	c0.1-0.2,0.2-0.3,0.2-0.5c2.2-5.6,4-9-0.3-13c-2.2-2-3.4-3.1-4.4-4.1c-1-1-1.8-1.9-3.1-3.6C7.4,98.5,0,94,0,94l0,0v34.4h0
	C0,128.4,14.8,128.3,17.6,123.3z M0.6,1.7c0.3,0.6,0.7,0.9,0.8,2c0.2,1.8,3.8,5.1,5.5,4c1-0.6,0.9-2.9,0.7-4.9C7.5,1.3,7.2,0,7.2,0
	l0,0H0c0,0,0,0,0,0l0,0C0,0.9,0.4,1.3,0.6,1.7z M118.4,230.5c-2.2,1.2-3.5,3.9-4.3,6.5c-0.3,1-0.5,2-0.7,2.8
	c-0.2,1.1-0.4,1.9-0.5,2.3c-0.1,0.4-0.2,0.3-0.4-0.3c-0.1-0.7-0.3-1.4-0.4-2c-0.1-0.5-0.2-1-0.3-1.4c-0.3-1.5-0.8-2.6-2.1-3.2
	c-5.6-2.4-13.9-5.2-14.1,1.2c-0.1,1.3,0.2,2.3,0.7,3.3c0.6,1.1,1.4,2,2.4,2.8c2.6,2.1,6,3.4,7.4,4.9c0.5,0.5,0.3,2.2,0.2,4.1
	c-0.1,1.2-0.1,2.5,0,3.5c0.2,1.8,1,3.1,3.3,2.2c0.4-0.2,6.1-7.6,9.5-13.3c0.9-1.6,1.7-3.1,2.1-4.2c0.2-0.6,0.3-1.1,0.3-1.5
	c0-0.6,0-1.4-0.1-2.3C121.3,232.9,120.5,229.3,118.4,230.5z"/>
<path id="color2" fill="#000000" d="M131.6,223.6c0-0.7-0.2-1.4-0.5-2.1c1.7-0.3,3-0.5,2.2,0.6C132.8,223,132.2,223.4,131.6,223.6z M146.6,228.3
	c-1.3-1.1-2.6,0.2-3.8,1.7c2,0.3,4.2,0.5,6.5,0.7C148.8,230,147.9,229.3,146.6,228.3z M136.5,225.3c-1.1-0.8-3.5-0.4-5.2-0.1
	c-0.7,1.6-2.7,2.8-6.3,1.9c-2.8-0.7-5.6-3.2-8.4-5.9c-1,0.5-2,0.7-3,0.5c-2.1-0.3-3-3.3-2.7-6.2c-1.5-1.3-2.8-2.2-3.9-2.2
	c-3.3-0.1-4.5-0.6-9.5,2c-1.1,0.6-2.4,1.3-3.9,2.2c-8.5,5-18.3,10.6-17,12.8c1.3,2.2,5,1.4,7.3,0.3c2.2-1.1,12.9-6.3,13.7-5.1
	c0.7,1.2-0.8,2.6-3.6,3.7c-2.8,1.1-4.8,3.8-8.5,4.4c-3.7,0.6-6.7,0.1-8.6,1.8c-1.9,1.7-2.7,3.5-5.3,3.6c-2.6,0.1-5.9-0.8-6.9,0.5
	c-1,1.3-1.3,1.8,1.3,2.8c2.6,1.1,15.3,5,18.1,2.9c2.8-2.1,7.1-7,11.5-5.7c0.4,0.1,0.7,0.2,1,0.3c-0.5-1-0.8-2-0.7-3.3
	c0.3-6.4,8.6-3.7,14.1-1.2c1.3,0.6,1.7,1.7,2.1,3.2c0.4-0.5,1.1-0.9,2.2-1.3c0.8-2.6,2-5.3,4.3-6.5c2.1-1.2,2.9,2.4,3.1,5.3
	c7.9-1.2,11.4-4.7,12.7-6.3c0.2-0.3,1.1-0.3,2.5-0.3C137,227.7,137.7,226.1,136.5,225.3z M73.6,280.5c0.7-0.8,2-1.8,3.6-2.6
	c2.7-1.5,6-2.8,8.2-3c0.1,0,0.2,0,0.3,0c-1.5-2-2.1-4.1-0.9-5.5c0,0-1.1,0.1-3.4,0c-2.1-0.1-5.1-0.4-9.2-1
	c-5.9-0.9-9.8-1.5-12.6-2.3c-1.3-0.4-2.4-0.8-3.4-1.2c-1.1-0.5-2.5-1.3-3.9-2.1c-2.2-1.2-4.5-2.2-5.6-1.4c-1.1,0.8,2.3,2.6,4.7,4.2
	c1.4,0.9,2.5,1.8,2.1,2.4c0,0,0,0,0,0.1c-1.3,1.6-3.1,0.8-5.2,0.3c-2.1-0.5-2.3-2.3-7.8-2c-5.2,0.3-10.2,0.2-11.7,1.1
	c-0.1,0.1-0.2,0.1-0.2,0.2c-1.1,1.2-2.2,4.7,0.8,4.9c0.5,0,1.1-0.1,1.7-0.2c2.7-0.8,5.7-3.1,8.2-1.9c3.1,1.5,10.5,2.4,17.6,2.4
	c7,0,15.3-0.9,14.3,1.3c-1,2.2-12.4-0.2-16.5,2.3c-4.1,2.5-7.8,3.3-7.2,5.1c0.6,1.8,6.9-0.1,10.8-1c3.9-0.9,10.9-1,6.8,1.3
	c-0.8,0.4-1.6,0.8-2.3,1.2h7.6C72,282.3,73,281.2,73.6,280.5z M81.9,266.3c1.7,1.9,2.9,3,2.9,3c2.4-2.6,5.4-2.5,6.5-4.8
	c0-0.1-0.1-2.8,0.1-5.8c-1.3,0.6-2.7,1.3-4.4,2.2C82.7,263.2,80.2,264.4,81.9,266.3z M153.1,280.9c-2-4.7-6-8.9-9.3-9.4
	c-3.3-0.5-1.1-3.3-5.4-2c-4.4,1.4-11,4.2-11.9,2.6c-1-1.6,2.4-7.5,7.4-6.9c5,0.6,11.9,5.8,13.9,3.5c2-2.3,1-7.8-2.6-8.6
	c-3.5-0.8-13-1.8-15.9-0.1c-2.9,1.7-7.2,5.6-7.9,2.4c-0.7-3.2,7-4.9,7.5-7.1c0.5-2.2-7.5-1.4-8-2.9c-0.5-1.6,7.4-2,8-5.1
	c0.3-1.8-5-2.7-9.6-3.5c-3.4,5.7-9.1,13.2-9.5,13.3c-2.3,0.9-3.1-0.3-3.3-2.2c-2.6,0.1-5.7,0-7.7,0.3c0.2,1.7-0.4,3.4-1.1,5.3
	c-1.1,3-1.1,3.9,4.9,6.4c6,2.4,4.5,4.3,9.8,5.4c5.3,1.1,8.8,3.5,16.1,5.2c7.2,1.6,13.7,1.4,11.3,4.2c-0.4,0.5-3.1,0.1-1.6,1.4
	c0,0,0,0,0,0h11.7h3.7c0-0.1,0.1-0.1,0.1-0.2C153.6,282.2,153.3,281.6,153.1,280.9z M97.8,248.9c1.2,1.4,5.2,1.9,8.6,2.5
	c0.1-1.8,0.3-3.5-0.2-4.1c-1.3-1.5-4.8-2.8-7.4-4.9C96.8,245,95.5,246.3,97.8,248.9z M112.6,241.8c0.1,0.7,0.2,0.7,0.4,0.3
	C112.8,242,112.6,241.9,112.6,241.8z M4.2,199.6c-0.1,0-0.2,0.1-0.4,0.1c-5.3,1.6-1.6,3.3-1.9,3.4c-1.7,5.9,1,5.9,3.9,3.9
	C10.4,204,15.3,196.4,4.2,199.6z M29.4,220.4c9.5-3,11.7-1.1,17.6,1.4c3.6,1.5,3.8,0.8,4.8,0.1c0.6-0.4,1.6-0.9,3.9-0.8
	c6,0.3,1.6,1.6,7.8,7.3c0.6,0.6,1.2,1,1.7,1.4c5,3.3,7.5-1.4,7.2-6c-0.3-5.2-4.4-3.9,0.3-4.7c1.3-0.2,2.6-0.6,4-0.9
	c3.5-0.9,6.8-2,8.7-2.2c2.6-0.3,5.4-5.2,4.2-8.1c-1.2-3-6.8,0.9-9.1,2.3c-2.3,1.4-6.9,0.4-9-0.3c-2-0.7-3.8,1.2-6.5,3.9
	c-2.7,2.7-15,1.1-22.4,0.7c-4.8-0.3-5.1-1.9-5.9-4.1c-0.5-1.3-1.2-2.7-3-4.2c-5.1-4.1-11.4,0.9-11.4,0.9s-0.5-3.4-13.6,2.6
	c0,0,0,0,0,0c-10.9,4.9,4.2,11.1,15,11.3C25.7,221.1,27.7,221,29.4,220.4z M161.5,194.4c-8.7-1.6-23.9,2.9-27.4,7.1
	c-0.8,0.9-1,1.9-0.4,2.7c1.7,2.6,19.3,2.1,21.6,0.5c2.2-1.6,5.6-4.9,7.6-2c2,2.8,1.7,3.9-3.4,4.6c-5.1,0.7-15.2,1.8-18,1.8
	c-2.9,0.1-11.3-2.2-11.3-5.3c0-3.1,0.2-4.5-2.2-2.8c-2.4,1.7-5.1,4.9-9.4,3.5c-1.6-0.5-3.4-1-5-1.3c-1,2.1-2.6,3.4-4.9,1.9
	c0.5,2.1,2.3,4.7,3.8,6c0.7-1,1.6-1.7,2.7-2c0.3-0.7,0.7-1.1,1.7-0.5c0.2,0.2,0.4,0.3,0.6,0.5c1.1,0.2,2.4,0.8,3.8,1.8
	c2.2,1.6,5.9-4.3,10.2-3.6c4.4,0.7,7.5,5.7,7.4,7.1c-0.1,1.4-3.9,2.8-4.5,4.4c-0.6,1.6,8.9,0.5,12.7,0.5s2.4,0.9,3.8,2.2
	c1.4,1.3,1-0.1,1.6-1.8c0.6-1.7,3.9-3,5.3-2.4c1.4,0.7-4.2,10.7-1,10.5c0,0,1.4-0.6,3.8-0.3c1.6,0.2,0.9,1.6-0.6,3
	c2-0.3,3.7-1,4.8-2c6.1-5.6,7.6-10.9,4.4-11.9c-3.2-0.9-7.3-1.2-6.9-3s9.8-6.6,8.3-9.1c-1.6-2.5-4.3-1.2-5.5-3.3
	c-0.3-0.6-0.3-1.2,0-1.7c0.2-0.5,0.5-0.9,0.8-1.3c0,0,0,0,0,0c0.4-0.3,0.9-0.5,1.3-0.6c1.9-0.6,3.8,0,5.3,0.8
	c2.4,1.3,4.7,17.3,7.1,22c1.3,2.6,6.1,2.3,10.2,1.5c3.3-0.6,6.1-1.6,6.1-1.6c4.1-2.1-4.9-12.8-7-14.5c-0.1-0.1-0.2-0.1-0.3-0.2
	c-1.7-0.9-5.4,0.7-6.1,0.9c-0.7,0.3-0.7-0.5-0.8-4.1c-0.1-3.5-3.7,0.5-5.2,1s-2.4-5.6-2.7-11.2c-0.3-5.6-4.1-3.5-4.8-6.6
	c-0.7-3.2,2.2-4.1,0.7-7.3c-1.4-3.2-8,0.7-7.7,3.4c0.3,2.6,3.7,2.9,3.2,4.8c-0.2,0.6-0.5,1.4-1,2.1c-1,1.6-2.3,3.2-2.6,4.1
	C161.3,193.2,161.3,193.8,161.5,194.4z M177.5,119.1c-0.5,0.4-0.9,0.7-1.2,0.8c-0.2,0.1-0.5,0-0.7-0.2c-1.2-1.1-2.6-5.7-6-7.8
	c-3.5-2.1-17.5,3.4-24.1,5.5c-1.1,0.3-1.9,0.6-2.5,0.7c-7.4-2.3-15.4,0.5-14.6,3.4c0.8,2.6,4.6,2.8,8.5,3.1c0.3,0,0.6,0,0.9,0.1
	c1.8,0.1,3.7-0.7,5.7-1.7c2.6-1.3,5.4-3.1,8.2-3.6c10.4-2,15.5-0.7,18.2,2.6c1.7,2.1,2.5,5.1,3.1,8.6c0.1,0.9,0.3,1.8,0.4,2.7
	c0,0.3,0.2,0.5,0.3,0.8c1.7,2.9,9.5,3.8,10.6,5c1.2,1.4-7.5,0.3-7.7,1.9c-0.2,1.6,3.2,1.1,6.9,1.6c3.7,0.5-0.5,1.9-3.7,6
	c-3.2,4.1,1.5,4.7,6,3.7c1-0.2,1.6-0.9,2-1.7c0.6-1.3,0.6-3.2,0.7-5c0-1.9,0.1-3.7,1.1-4.4c2.5-1.8,0.5-3.7-2.3-5.3
	c-0.4-0.2-0.6-0.4-0.7-0.6c-0.9-1.2,2.9-1.8,3.8-4.3c0.1-0.3,0.2-0.6,0.2-0.8c0-0.7-0.8-0.5-1.8,0.1c-1,0.6-2.1,1.7-2.8,2.6
	c-0.3,0.5-0.8,0.6-1.3,0.6c-2.1-0.1-5.3-3.1-6.1-5.1c-1-2.4,7-7.5,5.2-10.7c-0.1-0.2-0.2-0.4-0.4-0.5
	C181.8,115.5,179.2,117.8,177.5,119.1z M92.8,9.1c0,1.2,9,3.5,12.7,1.4c3.7-2.2,10.9-7.6,8.2-4.8c-2.5,2.6-6.2,6.6-5.9,10
	c0,0.2,0.1,0.5,0.1,0.7c1,3.5,4.1,3.7,0.5,4.1c-3.5,0.4-8.3,1.2-9.7,3.4c-1.4,2.2-6.5,3.1-7.2,3.1c-0.7,0,2.3-4.1-5.1-1.3
	c-1.6,0.6-3.1,1-4.5,1.4c-4.9,1.2-8.3,0.8-10,2.2c-2.1,1.8,6.5-0.9,5.3,0.3c-1.2,1.3-5.3,3-6.9,3.9c-0.6,0.3,0,0.9,1.1,1.4
	c1.8,0.7,4.8,1.1,6.7-0.4c3-2.6,2.1-4.3,4.6-3.8c2.4,0.5,7.2,1.8,10.2,1.8c3,0,2.5-1.1,4.1,0.1c1.6,1.2,3.5,2.6,6.3,2.6
	c2,0,4.6-0.9,6.3-0.9c0.7,0,1.2,0.2,1.4,0.7c0.2,0.6,0.5,1.4,0.7,2.2c0.3,1.7,0.3,3.4-1,3.4c-1.9,0-3.7,0.7-2.2,1.8
	c1.4,1,3.7,2.6,2.5,4c-1.2,1.4-2.6,3.6-3.4,4.3c-0.3,0.2-1.1,0.8-2.4,1.4c-2.2,0.4-3.9,1.1-5.3,2c-1.9,0.5-4,0.8-6.3,0.8
	c-7.1,0-15.7,0.6-11,3c0,0,5.7,0.3,12.6,0.4c-0.9,3,0.1,9.7-4.2,10.5c-5,0.9,0.2-3.7-10.6-4.9c-10.7-1.3,0.7,3.4,1,6.6
	c0.3,2.9-6.5-3-10.1-7.1c4.5-0.5,11.1-1.1,10.4-2.5c-0.9-1.6-22.2-1.2-24.2-2.6c-1.9-1.4,0.8-2,3.7-3.5c2-1,2.2-3.7,0.1-5.3
	c-0.3-0.2-0.7-0.4-1.1-0.6c-0.9-0.4-2-0.5-3.5-0.4c-1.1,0.1-2.1,0.1-3.2,0c-3.4-0.2-6.6-1-8.6-0.5c-1.2,0.3,1.9,3.2-1.6,3.4
	c-2.6,0.2-6.6-6.8-8.1-8.8c-1.4-2-4.7-0.5-4.1,2.6c0.5,2.4,6.3,5.7,7.8,8.4c0.4,0.7,0.5,1.4,0,2c-2.2,2.6-4.8,6.3-7.2,3.4
	C29.4,56,27,57.2,27,57.2c-1.9,0.4-2.8,12,3.3,12.1c0.9,0,1.7,0,2.4,0c1.7,2.7,10.2-0.7,10.2-0.7c7.9,0.7,23.3-3.5,24.7-1.4
	c1.8,2.8,2.3,2.7,7,3.9c4.7,1.2,4.7,3.5,1.3,3.9c-3.4,0.5-17.6-3.9-22.3-4.3c-4.7-0.4-23.8,5.8-21.1,7.2c2.7,1.4,22-0.1,33.3-0.3
	c3-0.1,5.1,0,6.7,0.2c4.7,0.5,5.4,1.6,10.2,2.2c6.5,0.8,8.2-1.1,11.1-2.6c2.1-1.1,7.4-1.1,13.1-1.5c1.9-0.1,3.8-0.3,5.7-0.5
	c1.9-0.3,2.7-0.9,2.7-1.8c0-2.4-6.1-6.6-9.4-8.4c-3.3-1.8,1.2-4.5,5.4-7.2c4-0.2,6.9-0.7,7.2-1.5c1.2-2.8-5.2-8-4.6-10.4
	c0.5-2.4,6.8-0.9,8.4-3.1c1.2-1.6-3.1-3.4-5.7-5.9c-0.9-0.9-1.6-1.9-1.7-3c-0.4-4.2,15.6-1.8,16.1-2.8c0.4-1.1-9.3-3.8-9.7-6
	c-0.4-2.2,6.4-1.9,5.7-4.3c-0.7-2.4-9.7-1.2-10.1-4.1c-0.4-2.8,1-5.8,4.1-6.1c3.1-0.3,11,1.3,15.2,3.3c4.2,2,12.1-1.6,7.3-4.1
	c-4.8-2.4-2.3-2-6-4.5c-3.7-2.4-13.2,1.1-15.4-0.4c-2.2-1.5-3.4-0.9-1.5-2.8c3.2-3.2-7.8-1.6-15-0.8c-2.7,0.3-3.9,0.3-2.9,1.3
	c0.7,0.7,1,1.4,0.2,2.3c-0.1,0.1-0.2,0.1-0.3,0.2c-1.2,0.8-4.9,1.6-7.4,2.4C93.9,8.2,92.8,8.6,92.8,9.1z M163.2,84.3
	c0.1,2.7,3.6,4.1,2.7,5.5c-0.9,1.4-4.6,3.9-7.8,2.9c-3.2-0.9-5.3-1.6-6.6,0c-0.4,0.4-0.5,1.2-0.5,2.1c0,2.3,1.5,5.2,5.3,4
	c0,0,3.2-0.8,6.4-0.8c2.4,0,4.8,0.4,5.7,1.9c2,3.5,3,7.2,3.2,4.7c0.2-2.4-2.7-4.8,1.1-6.5c2.8-1.2,3.8-2.1,4-2.9
	c0.1-0.3,0.1-0.6,0.1-0.9c-0.1-1.1-6.3,0.2-6.7-2.2c-0.3-2.4,1.2-7,4.8-6.6c3.5,0.3,8,0.3,7.8-3.2c-0.2-3.5-2.2-6.9-5.7-3.9
	c-3.5,3-2.6,5-5.9,4.9c-1.4-0.1-3-0.3-4.4-0.5C164.7,82.5,163.2,82.7,163.2,84.3z M54.2,143.6c4.7,0.1,6.3-1.3,5.8-4
	c-0.3-1.4-0.4-3.1-0.1-4.3c0.2-1.1,0.8-1.9,1.8-1.9c0.8,0,1.5,0.4,2.2,0.9c1.2,0.9,2.8,2.1,6.1,2.4c5.3,0.5,2.7-1.3,5.7-0.3
	c3.1,0.9,7.8,2.2,10.8,1.7c3-0.5,7.8-1.6,7.1-3.2c-0.1-0.3-0.9-0.6-2-0.8c-4.6-0.8-15.3-0.7-16.5-1.8c-1.5-1.4,0.6-2,2.9-3.5
	c0.6-0.4,1-1.1,1.1-1.9c0.2-1.4-0.3-3-1.6-3.8c-0.7-0.4-1.7-0.7-2.9-0.5c-4.9,0.6-8.9,4.5-10.3,3c-0.4-0.5-1.1-1.3-1.8-2.3
	c-1.6-2.2-3.6-5.1-4.4-6.5c-1.1-2-3.6-0.5-3.1,2.6c0.3,1.8,3,4.2,4.7,6.4c1.2,1.5,2,2.9,1.3,4c-1.7,2.6-3.7,6.3-5.5,3.4
	c-0.7-1.1-1.3-1.7-1.9-2c-1.6-0.8-2.6,1.2-2.9,3.8c-0.3,2.7,0.1,6.1,1.7,7.7C52.7,143.3,53.4,143.6,54.2,143.6z M111.5,87.3
	c0.7,2.8,1,2.7,2.9,3.9c1.9,1.2,1.9,3.5,0.5,3.9c-1.4,0.5-7.1-3.9-9-4.3c-1.1-0.2-3.9,1.6-6.1,3.5c-1.7,1.5-3,3.1-2.5,3.7
	c1.1,1.4,8.9-0.1,13.5-0.3c4.6-0.2,4.2,1.6,6.9,2.4c2.7,0.8,3.3-1.1,4.5-2.6c1.2-1.5,4.6-1,7.6-2c3-0.9-0.9-7.7-2.7-10.2
	c-1.8-2.5-0.6-7.7,0.9-11.5c1.5-3.7-1-3.7-3.4-3.3c-2.4,0.4-0.8,4.8-1.6,6.5c-0.8,1.7,0.1,10.7-2,11.7c-2,0.9,0.1-3.7-4.3-4.9
	c-3.2-0.9-1.6,1.3-0.4,3.8c0.4,0.9,0.8,1.9,0.8,2.7c0.1,2.3-1.7-1.1-3.2-4.7c-0.5-1.3-1-2.7-1.4-3.8c-0.1-0.3-0.2-0.5-0.2-0.7
	c-1.2-3-3-1.1-8.9-2.7c-6.3-1.7-11.4,6.2-13.3,7.7c-1.7,1.4-3.6,2.8-3.4,4.6c0,0.3,0.1,0.5,0.2,0.8c0.3,0.7,2.2,0.4,4.6-0.4
	c4.9-1.6,12.3-5.1,14.3-5.5C109.8,84.8,110.8,84.5,111.5,87.3z M67.6,86.5c-0.5-1.8-6.6-0.8-11.5-0.1c-0.7,0.1-1.3,0.2-1.9,0.2
	c-5,0.5-6.6,4.3-7.4,6.2c-0.8,1.9-12.8,1.4-16.7,3c-3.9,1.6-2.3,3.7-5.9,4.7c-3.5,0.9-12.1-5.9-12.1-5.9c-1.3-0.9-6.2-1.9-5.5,0.8
	c0.5,2,6.8,7.1,11.4,10.4c1.5,1,2.9,1.9,3.8,2.4c3.8,2,9.2-0.4,12.9-1.2c2-0.4,5.9-1.2,9-2.3c2.6-0.9,4.7-1.9,4.4-3
	c-0.5-2.4-7.6,1.1-10.1,0.7c-2.4-0.4-0.3-1.6,2.7-3.7c2.9-2.1,8.4-1.6,10.1-3.7c1.7-2.1,5.4-2,11-2.7c1.2-0.2,2.2-0.4,2.9-0.8
	C67.7,90.4,68,88.1,67.6,86.5z M139,43.5c-1.7-0.1-5.3,0.6-5.3,2.9c0,1.4,0.2,2.5,0.9,3.3c0.5,0.5,1.2,0.9,2.3,1
	c5.8,0.7,13.8-1,18.9-2.1c0.7-0.2,1.4-0.2,1.9-0.2c3.5-0.1,4.2,2.5,5.3,6.4c0.1,0.3,0.2,0.5,0.3,0.7c1.2,2.4,4.4,4.2,5.6,5.4
	c1.3,1.3,2.2,1.2,2.3-0.6c0.1-1.8-2-1.8-2.9-4.3c-0.9-2.4,4.2,0.1,9.1,0.4c1.2,0.1,1.9-0.1,2.4-0.5c0.7-0.5,0.8-1.4,0.7-2.2
	c-0.1-1.1-0.6-2.2-0.8-2.8c-0.3-1.2-4.5-1.3-6.8-1.3c-1.2,0-3-0.1-4.6-0.3c-1.5-0.1-2.9-0.3-3.5-0.5c-1.4-0.3-5.5-3.7-7.9-5
	c-1.5-0.8-7.7-0.7-12.4-0.6c-0.8,0-1.5,0-2.1,0.1C140.8,43.5,139.5,43.6,139,43.5z M152.4,0.9c0.5-0.2,0.8-0.5,1-0.9c0,0,0,0,0,0
	H138c0,0,0,0,0,0C140.5,2.4,149.2,2.5,152.4,0.9z M58.2,3.4c0,0.1,0,0.1,0.1,0.1c0.5,0.6,3.7-0.4,6.7-1.5c2.7-1,5.3-2,5.3-2.1
	c0,0,0,0,0,0h-7.6c0,0,0,0,0,0C62.6,0,58.1,1.8,58.2,3.4z M35.3,140.3c3.5,0.3,8,0.3,7.8-3.2c0-0.1,0-0.3,0-0.4
	c-0.3-3.3-2.3-6.4-5.7-3.5c-0.5,0.4-0.9,0.8-1.2,1.2c-2.1,2.3-1.8,3.8-4.7,3.7c-3.3-0.1-7.9-1.6-7.8,1.1c0.1,2.7,3.6,4.1,2.7,5.5
	c-0.1,0.1-0.2,0.2-0.3,0.4c-1.2,1.4-4.6,3.4-7.6,2.6c-3.2-0.9-5.3-1.6-6.6,0c-1.3,1.6-0.5,7.8,4.8,6.1c0,0,10.1-2.4,12,1.2
	c0.1,0.2,0.2,0.4,0.3,0.7c0.1,0.4,0.2,1,0.2,1.7c0,0.2,0,0.4,0,0.7c0,0,0,0,0,0.1c0,0.3,0,0.5,0,0.7c0,0.2,0,0.4,0.1,0.7
	c0.5,4.9,2.8,8,4.9,10.4c1.1,1.2,2.1,2.3,2.8,3.4c2,3.1-3.5,3.5-5.2,5.3c-1.6,1.8-3.5,1.5-0.4,4.7c3.1,3.3,0.6,6.4,5.9,6.5
	c2.9,0.5,3.3-4.2,3-8c-0.3-3.8,2.9-0.5,5-2.3c2.2-1.8,1-1.2,5.2-2.3c4.2-1.1,3.7-3,6-4.3c2.3-1.4-15.9,3.7-13.7-0.1
	c2.2-3.8,5.9-3.5,5.3-7.5c-0.1-0.8-0.4-1.6-0.7-2.4c-1.3-3-4.1-5.1-6.1-2.2c-2.4,3.7-2.9,1.5-4.9-1.5c-0.6-0.8-1.5-1.8-2.4-2.5
	c-0.3-0.4-0.8-0.6-1.4-0.9c0,0,0,0,0,0c-0.2-0.1-0.5-0.2-0.7-0.3c0,0,0,0,0,0c-1.3-0.5-2.9-1.1-1-1.9c3.9-1.7,9.9,0.3,6.9-1.7
	c-2.9-2-6.9-2.2-7.2-4.7c0,0,0,0,0,0C30.2,144.5,31.8,140,35.3,140.3z M120.5,155.6c-6.6,0.4-16.8,1.7-21,0.1
	c-0.6-0.2-1.1-0.5-1.4-0.8c-0.2-0.2-0.3-0.3-0.5-0.5c-2.4-2.4-4.1-4.1-6-3.4c-2,0.7-6.7,1.6-9,0.3c-2.3-1.4-7.9-5.3-9.1-2.3
	c-1.2,3,1.6,7.9,4.2,8.1c0.6,0.1,1.4,0.2,2.3,0.5c2.8,0.7,6.8,2,10.3,2.7c4.7,0.8,0.5-0.4,0.3,4.7c-0.1,2.7,0.7,5.5,2.4,6.6
	c1.5,0.9,3.6,0.7,6.4-1.8c0.1-0.1,0.1-0.1,0.2-0.2c3.4-3.2,3.6-5,4.1-6c0.4-0.8,1-1.2,3.7-1.3c6-0.3,2.9,3.1,8.7,0.7
	c0.2-0.1,0.4-0.2,0.6-0.3c5.4-2.3,7.8-4,17-1.1c9.5,3,34.1-4.7,21-10.7c-6.2-2.8-9.6-3.7-11.4-3.5c-4.2,0.4-2.3,0.7-6.9-1.3
	c-2-0.9-4.5-0.4-6.7,1.3c-3.3,2.6-2.9,5.1-4.3,6.7C124.4,154.9,123.2,155.5,120.5,155.6z M47.9,15.1c-1,0.1-6.1-0.2-10.6-0.2
	C34,14.9,31,15,30,15.6c-2.4,1.3-6.5,4.7-7.9,5c-1.4,0.3-5.9,0.7-8.2,0.7c-2.3,0-6.4,0.1-6.8,1.3c-0.3,1.2-2.7,5.8,2.3,5.5
	c3.7-0.2,7.4-1.7,8.7-1.4c0.5,0.1,0.7,0.4,0.4,1c-0.2,0.4-0.4,0.8-0.6,1.1c-1,1.4-2.4,1.7-2.3,3.2c0.1,1.8,1,1.8,2.3,0.6
	c0.2-0.2,0.4-0.4,0.7-0.6c1.6-1.3,4.5-3.2,5.2-5.5c0.3-1.1,0.6-2.2,1-3c1-2.6,2.3-4,6.3-3.1c1.1,0.2,2.3,0.5,3.6,0.7
	c4.8,1,10.7,1.9,15.3,1.4c2.7-0.2,3.1-2,3.1-4.3c0-0.2,0-0.3-0.1-0.5c0-0.1,0-0.1-0.1-0.2C52.5,15.6,49.4,15,47.9,15.1z"/>
</svg>
