<svg xmlns="http://www.w3.org/2000/svg" version="1.1" xmlns:xlink="http://www.w3.org/1999/xlink" preserveAspectRatio="none" x="0px" y="0px" width="209px" height="283px" viewBox="0 0 209 283">
  
  <path fill="#CCCCCC" stroke="none" d="M0 283c69.67,0 139.33,0 209,0 0,-94.33 0,-188.67 0,-283 -69.67,0 -139.33,0 -209,0 0,94.33 0,188.67 0,283z"/>
  <path fill="#5A5A5A" stroke="none" d="M194.09 0l-32.2 32.1 -0.69 0.69 0 0.98 0 20.18 -10.78 9.63 -0.78 0.71 0 1.05 -0.11 55.02 0 0.99 0.68 0.68 20.34 22.29 0 97.5 -16.72 18.33 0 -13.77 13.47 -13.43 0.69 -0.69 0 -0.98 0 -74.38 0 -0.98 -0.69 -0.69 -32.82 -32.73 0 -4.64 5.59 -5.58 0.69 -0.69 0 -0.98 0 -77.83 24.61 -24.54 0.69 -0.69 -0.01 -0.99 -0.03 -6.56 -4.73 0 -0.03 5.66 -7.61 7.59 0 -13.25 -4.74 0 0 17.97 -8.15 8.13 0 -26.1 -4.74 0 0 109.63 -1.56 1.56 0 -46.57 0 -0.97 -0.7 -0.7 -15.74 -15.67 0.03 -47.28 -4.72 0 -0.03 49.34 -11.46 11.43 -0.7 0.69 0 0.98 0 56.82 0 0.98 0.7 0.69 32.03 31.94 0 15.69 -9.78 9.75 -0.7 0.7 0 0.97 0 67.04 0 0.98 0.7 0.69 11.87 11.84 0.06 22.47 4.74 0 -0.06 -2.69 8.21 -8.18 0 10.87 4.74 0 0 -14.95 0 -0.71 20.94 -22.89 0.7 -0.7 0 -0.97 0 -96.5 13.96 -13.92 0.7 -0.7 0 -0.97 0 -7.41 19.05 19 0 -6.68 -19.05 -19 0 -56.81 5.96 -5.95 0 19.9 0 0.98 0.7 0.69 12.39 12.36 0 -6.68 -8.35 -8.33 0 -35.26 8.35 -8.32 0 -6.68 -8.35 8.32 -4.74 4.72 0 6.69 0 4.93 -10.01 9.98 -0.69 0.69 0 0.98 0 70.9 -11.27 11.24 -19.69 -21.57 0.1 -52.99 10.79 -9.64 0.8 -0.71 0 -1.04 0 -20.25 34.85 -34.75 -6.7 0zm-53.39 259.55l0 -0.98 -0.7 -0.69 -11.87 -11.84 0 -65.08 9.78 -9.75 0.69 -0.69 0 -0.98 0 -17.65 0 -0.98 -0.69 -0.69 -32.03 -31.94 0 -54.86 10.83 -10.79 13.01 12.96 0 51.45 0.02 0 0 6.44 0 0.98 0.69 0.69 32.82 32.73 0 72.42 -13.47 13.43 -0.69 0.7 0 0.97 0 19.86 -8.39 8.37 0 -14.08zm-36.18 -259.55l-0.01 6.12 -23.45 23.38 -0.19 -29.5 -4.72 0 0.1 16.65 -23.83 21.61 -0.79 0.71 0 1.04 0 159.55 -10.28 9.11 0 -1.66 0 -0.97 -0.69 -0.7 -9.66 -9.62 0 -27.23 11.57 -11.53 0.69 -0.69 0 -0.98 0 -66.52 0 -0.98 -0.69 -0.69 -10.41 -11.57 0 -53.53 9.19 -8.99 0 -13.01 -4.92 0 0 11.05 -9.01 8.99 0 0.98 0 22.31 -13.78 13.74 -0.69 0.69 0 0.98 0 35.26 -12.95 -12.91 0 6.68 12.95 12.91 0 28.85 -9.51 9.49 -3.44 -3.42 0 6.68 1.07 1.06 0 11.88 -1.07 1.07 0 6.68 1.07 -1.06 0 41.09 -1.07 -1.06 0 6.68 1.07 1.06 0 46.71 -1.07 1.06 0 6.68 30.31 -30.22 0.69 -0.69 0 -0.98 0 -29.84 5.61 5.59 0 49.69 -11.87 11.84 -0.7 0.69 0 0.98 0 10.33 -1.48 1.48 1.48 0 0.62 0 4.6 0 0 -10.84 7.97 -8.1 -0.06 18.94 3.3 0 0.88 0 0 -24.11 0 -43.9 34.95 -30.98 0 73.88 0 0.97 0.7 0.69 10.36 10.35 -11.21 11.18 0 1.92 4.72 0 11.49 -11.43 1.68 -1.66 -0.01 -0.01 10.31 -10.25 0.18 23.35 4.72 0 -0.22 -28.01 0 0 0 -0.98 0 -26.99 4.31 -4.29 0 60.27 4.74 0 0 -113.84 0 -0.98 -0.69 -0.69 -42.47 -42.35 0 -82.82 33.65 -33.55 0.69 -0.7 0 -0.98 0 -7.09 -4.73 0zm-48.15 41.04l19.92 -18.07 0.07 11.22 -5.5 5.48 -0.69 0.69 0 0.98 0 84.78 0 0.98 0.69 0.69 29.06 28.98 -43.55 38.59 0 -154.32zm-50.56 102.3l11.18 -11.16 0.7 -0.69 0 -0.98 0 -70.79 9.73 -9.7 0 26.49 0 0.98 0.69 0.69 10.42 11.57 0 64.56 -11.57 11.54 -0.7 0.69 0 0.98 0 63.74 -20.45 20.4 0 -108.32zm75.23 113.58l0 -77.11 22.24 -19.7 10.05 10.03 0 45.91 -8.35 8.32 -0.7 0.7 0 0.98 0 26.98 -13.58 13.54 -9.66 -9.65zm-58.48 -256.92l-22.56 22.5 0 6.68 29.26 -29.18 -6.7 0zm176.56 166.14l-0.69 0.69 0 0.98 0 74.83 -36.45 36.34 -0.69 0.69 0 0.98 0 2.35 4.73 0 0.01 -1.38 36.44 -36.33 0.7 -0.69 0 -0.98 0 -40.82 5.83 5.82 0 -6.68 -5.83 -5.82 0 -27.33 5.83 -5.82 0 -6.68 -9.88 9.85zm-2.41 103.57l-0.7 0.69 0 0.98 0 9.7 -1.92 1.92 1.92 0 1.18 0 3.6 0 -0.04 -10.64 8.25 -8.23 0 -6.68 -12.29 12.26z"/>
  <path fill="black" stroke="none" d="M188.94 0l0 25.27 -24.25 22.98 -0.78 0.78 0 1.1 0 37.48 -33.34 -33.25 28.26 -25.78 0 -28.58 -5.34 0 0 26.25 -26.69 24.35 -15.8 -15.74 0 -34.86 -5.33 0 0 29.54 0 5.86 0 1.66 71.1 70.89 0 65.6 0 1.11 0.78 0.77 11.39 11.36 0 96.21 5.33 0 0 -97.31 0 -1.1 -0.78 -0.78 -11.39 -11.36 0 -65.6 0 -1.1 -0.78 -0.78 -11.01 -10.97 14.1 -14.05 24.59 24.52 0 -7.51 -20.82 -20.77 20.82 -20.75 0 -7.52 -39.76 39.62 0 -36.31 24.25 -22.98 0.78 -0.78 0 -1.1 0 -26.37 -5.33 0zm-106.89 0l0 60.62 0 1.1 0.78 0.78 41.39 41.27 0 64.54 -26.51 26.43 -0.78 0.78 0 1.1 0 76.56 0 1.1 0.78 0.78 7.96 7.94 5.33 0 0 -2.2 -8.74 -8.72 0 -74.36 26.51 -26.43 0.78 -0.78 0 -1.1 0 -41.6 23.94 23.88 0 131.31 5.34 0 0 -132.41 0 -1.1 -0.79 -0.78 -28.49 -28.42 0 -17.62 0 -1.1 -0.78 -0.78 -41.39 -41.27 0 -59.52 -5.33 0zm-19.97 0l0.99 122.59 0.01 1.1 0.76 0.76 14.87 14.83 0 62.12 -15.84 15.8 -0.79 0.78 0 1.1 0 63.92 5.34 0 0 -51.48 14.63 13.61 0 37.87 5.33 0 0 -40.19 -19.96 -18.56 0 -4.07 15.84 -15.8 0.78 -0.78 0 -1.1 0 -64.33 0 -1.1 -0.78 -0.78 -14.89 -14.84 -0.95 -121.45 -5.34 0zm-26.29 0l0 139.75 0 1.1 0.78 0.78 8.61 8.58 0.36 111.38 -8.97 8.94 -0.78 0.78 0 1.1 0 10.59 5.34 0 0 -9.49 8.96 -8.94 0.78 -0.78 0 -1.1 -0.36 -113.58 0 -1.1 -0.78 -0.78 -8.6 -8.58 0 -138.65 -5.34 0zm-19.73 0l0 31.97 -16.06 15.95 0 7.52 20.61 -20.49 0.78 -0.78 0 -1.1 0 -33.07 -5.33 0zm-16.06 104.47l4.05 4.04 0 66.25 12.01 11.97 0 96.27 5.33 0 0 -97.37 0 -1.1 -0.78 -0.78 -11.23 -11.19 0 -65.15 0 -1.1 -0.78 -0.78 -8.6 -8.57 0 7.51z"/>
  <path fill="white" stroke="none" d="M178.13 0l0 11.26 16.68 15.01 0 48.16 -14.35 13.12 0.19 52.78 11.53 10.12 0 27.63 -14.05 12.75 0 92.17 2.97 0 0 -90.85 14.04 -12.75 -0.31 -52.26 14.17 -12.53 0 -3.92 -16.93 14.93 0.06 20.85 -8.53 -7.48 -0.19 -50.14 13.89 -12.69 0.47 -0.44 0 -0.65 0 -50.11 -16.67 -15 0 -9.96 -2.97 0zm-12.5 0l0 59.21 -36.78 32.77 0 27.22 -8.11 6.5 0 -75.69 14.71 -12.66 0 -37.35 -2.96 0 0 36.01 -14.71 12.66 0 128.25 0 0.65 0.5 0.45 47.35 43.41 0 61.57 2.96 0 0 -62.87 -47.85 -43.86 0 -46.79 11.07 -8.88 0 -27.3 36.78 -32.77 0 -60.53 -2.96 0zm-65.95 0l0 90.9 -5.21 -4.7 -0.08 -86.2 -2.96 0 0.06 67.46 -41.97 36.18 -0.31 103.72 -13.52 12.3 0 63.34 2.96 0 0 -62.05 10.72 -9.75 30.44 27.21 -0.04 37.21 -5.99 6.15 0 1.23 2.97 0 5.97 -6.14 0.04 -39.79 -30.6 -27.36 0.31 -104.72 24.51 -21.12 0 17.17 -15.62 13.81 0 72 30.07 26.57 0 69.58 2.96 0 0 -66.96 5.29 4.67 0 62.29 2.96 0 0 -63.61 -38.31 -33.85 0 -69.37 15.61 -13.82 0 -21.04 11.55 -9.96 0.02 16.17 17.27 15.59 0.06 60.31 -14.42 13.62 0 17.17 38.07 33.58 0 55.21 2.96 0 0 -56.53 -38.06 -33.57 0 -14.59 13.94 -13.18 0.46 -0.44 0 -0.63 -0.06 -62.28 -9.09 -8.2 0 -93.58 -2.96 0zm-25.9 0l0 36.63 -12.86 11.97 0.06 17.12 -22.33 19.88 0 -85.6 -2.96 0 0 88.23 -15.88 14.13 0 43.62 -8.06 -6.86 0 -50.74 13.92 -12.13 0.12 -76.25 -2.96 0 -0.12 74.92 -13.92 12.13 0 15.88 -8.79 7.76 0 3.92 8.79 -7.75 0 33.62 11.02 9.37 0 28.24 -11.49 10.27 0 72.47 14.51 12.8 0 9.37 2.96 0 0 -10.68 -14.51 -12.8 0 -69.88 11.49 -10.26 0 -75.7 41.17 -36.64 -0.06 -17.15 12.87 -11.97 0 -37.92 -2.97 0z"/>
</svg>
