 <svg xmlns="http://www.w3.org/2000/svg" version="1.1" xmlns:xlink="http://www.w3.org/1999/xlink" preserveAspectRatio="none" x="0px" y="0px" width="283px" height="197px" viewBox="0 0 283 197">

  <path fill="#CCCCCC" stroke="none" d="M0 197c94.33,0 188.67,0 283,0 0,-65.67 0,-131.33 0,-197 -94.33,0 -188.67,0 -283,0 0,65.67 0,131.33 0,197z"/>

  <path fill="#5A5A5A" stroke="none" d="M40.39 153.52c0,0 2.01,0.39 -1.6,-5.33 -3.62,-5.71 -4.5,-9.49 -5.91,-12.59 -1.41,-3.1 -2.38,-8.03 -4.23,-11.13 -1.85,-3.1 -3,-4.94 -3,-2.52 0,2.42 4.28,10.8 5.51,12.93 1.23,2.13 4.36,11.05 5.16,12.99 0.79,1.93 1.76,3.41 4.07,5.65zm165.33 -153.52c3.06,3 8.25,8.22 9.2,9.43 0.95,1.22 8.15,9.54 9.08,10.85 0.92,1.31 4.34,3.32 6.54,6.9 2.21,3.58 6.17,5.57 7.23,8.72 1.06,3.14 2.93,11.11 3.11,12.71 0.17,1.59 -1.55,-3.39 -2.74,-5.23 -1.19,-1.84 -3.74,-5.62 -4.84,-7.61 -1.11,-1.98 -8.6,-8.18 -9.57,-9.49 -0.97,-1.3 -6.41,-9.22 -8.13,-10.92 -1.72,-1.69 -6.66,-3 -9.04,-5.61 -2.02,-2.22 -6.03,-7.06 -7.68,-9.75l6.84 0zm9.46 3.14c0,0 3.04,0.53 4.98,3.1 1.94,2.56 2.56,5.28 4.59,6.39 2.02,1.11 4.53,1.84 5.72,4.26 1.19,2.42 1.99,4.02 2.69,5.13 0.71,1.12 2.05,1.87 3.46,5.84 1.41,3.97 2.16,5.08 1.77,5.66 -0.4,0.58 -2.91,-4.94 -4.24,-6.44 -1.32,-1.5 -4.23,-4.69 -5.11,-6 -0.88,-1.31 -3.39,-4.94 -4.93,-6.1 -1.55,-1.16 -2.83,-3.92 -3.84,-5.09 -1.01,-1.16 -2.14,-3.6 -2.97,-4.18 -0.84,-0.59 -3.48,-1.84 -2.12,-2.57zm7.59 -3.14c0.64,1.06 0.89,1.73 2.56,3.42 1.67,1.69 6.39,6.78 7.62,7.41 1.24,0.63 2.08,-0.05 3.75,1.59 1.67,1.65 3.97,6.54 4.36,8.04 0.4,1.5 1.12,9.46 0.94,10.54 -0.18,1.09 -0.09,3.25 -0.71,3.06 -0.61,-0.2 -0.88,-3.78 -2.38,-8.09 -1.49,-4.31 -4.67,-9.3 -5.24,-10.99 -0.57,-1.7 -3.17,-2.52 -5.02,-3.59 -1.86,-1.06 -2.79,-2.89 -3.77,-4.28 -0.98,-1.39 -4.85,-6.05 -5.82,-7.11l3.71 0zm-176.18 39.47c0,0 2.46,3.29 2.73,5.27 0.26,1.99 -2.56,6.93 -2.78,5.57 -0.22,-1.35 0.97,-3.05 0.93,-4.26 -0.05,-1.21 -1.59,-5.13 -0.88,-6.58zm-3.29 -16.59c0,0 3.84,-0.34 6.48,3.63 2.65,3.97 4.94,6.35 5.47,9.93 0.53,3.58 0.59,7.48 0.06,6.95 -0.53,-0.53 -3.3,-11.04 -4.49,-13.07 -1.19,-2.04 -6.24,-5.55 -6.88,-6.49l-0.64 -0.95zm-16.99 -17.07c0,0 2.12,2.76 3.22,6.11 1.1,3.34 4.41,7.45 4.41,7.45 0,0 3.46,3.51 5.57,4.77 2.12,1.26 3.57,1.07 5.2,3.92 1.63,2.86 3.18,5.81 4.06,7.75 0.88,1.94 3.04,4.02 3.61,5.18 0.58,1.16 -0.75,0.53 -2.33,-0.58 -1.59,-1.11 -5.69,-6.2 -6.75,-8.38 -1.05,-2.17 -7.93,-6.58 -9.3,-7.89 -1.36,-1.31 -3.96,-5.03 -5.9,-9.34 -1.94,-4.31 -3.04,-7.36 -3,-8.57 0.04,-1.21 1.21,-0.42 1.21,-0.42zm-6.24 -5.81c0.47,0.71 0.64,1.73 0.88,2.92 0.24,1.2 2.14,6.28 3.51,9.67 2.93,7.27 6.6,16.07 3.95,24.09 -1.77,5.33 -6.2,13.54 -7.65,14.94 -1.45,1.4 -4.72,5.62 -5.29,6.1 -0.57,0.48 0.62,-3.73 1.9,-6.92 1.27,-3.2 2.07,-4.02 3.79,-6.88 1.72,-2.86 2.99,-4.65 3.7,-8.86 0.7,-4.21 0.57,-6.1 0.48,-7.55 -0.09,-1.46 -3.41,-8.79 -4.16,-11.94 -0.75,-3.15 -2.38,-6.2 -2.56,-8.47 -0.17,-2.28 -0.86,-3.87 -1.41,-4.99 -0.55,-1.12 -0.94,-1.6 -1.41,-2.11l4.27 0zm-12.66 0c1,1.16 1.56,1.82 3.08,2.86 1.52,1.04 4.45,2.52 5.55,1.99 1.11,-0.54 0.18,-1.46 -1.89,-2.57 -0.84,-0.45 -1.78,-1.36 -2.61,-2.28l-4.13 0zm-7.41 8.23c1.33,1.58 3.79,2.32 4.86,2.53 3.58,0.7 9.03,0.05 10.09,3.95 0.13,0.49 0.97,3 2.25,5.23 1.97,3.43 3.87,9.37 2.46,13.18 -0.58,1.55 -3.37,8.21 -3.95,11.07 -0.57,2.85 -2.07,10.12 -2.25,12.54 -0.17,2.42 0.62,0.68 1.33,-2.42 0.7,-3.1 4.36,-13.22 5.68,-16.13 1.98,-4.35 4,-10.17 1.15,-14.81 -3.51,-5.72 -2.13,-5.2 -4.34,-10.78 -1.19,-3 -0.13,-3.63 -3.4,-4.69 -3.26,-1.07 -6.83,-1.11 -8.86,-2.57 -2.02,-1.46 -2.75,-2.03 -5.02,-2.95l0 5.85zm8.14 32.8c0,0 3.35,-0.24 2.74,-10.22 -0.43,-6.86 -3.53,-10.65 -5.76,-12.61 -1.76,-1.55 -2.67,-2.56 -5.12,-3.12l0 2.75c1.15,0.3 2.51,1.63 3.5,3.01 2.06,2.86 3.33,6.83 3.58,8.76 0.62,4.68 -0.04,11.48 1.06,11.43zm-2.68 -1.48c0,0 -0.3,-7.41 -1.45,-9.5 -1.16,-2.08 -3.03,-3.64 -4.01,-4.63l0 5.78c1.77,1.07 2.43,2.88 3.03,4.79 0.51,1.63 1.04,3.24 1.17,3.52 0.21,0.47 1.28,0.76 1.26,0.04zm1.06 16.07c0,0 -1.27,-11.15 -3.26,-14.77 -2,-3.62 -2.38,-3.77 -3.26,-4.8l0 9.26c1.46,1.18 3.27,1.12 4.01,4.74 0.73,3.62 2.15,7.89 2.51,5.57zm5.64 25.66c0,0 0.88,-6.34 2.69,-11.67 1.81,-5.32 4.56,-9.07 7.12,-13.09 2.55,-4.02 7.49,-9.01 8.59,-11.48 1.1,-2.47 2.48,-6.81 2.4,-11.93 -0.07,-5.13 -2.33,-8.38 -2.99,-9.2 -0.67,-0.83 2.15,7.31 1.45,11.52 -0.71,4.21 -3.83,10.51 -5.29,12.4 -1.45,1.88 -6.87,7.6 -7.58,8.71 -0.7,1.11 -3.24,6.61 -4.39,8.35 -1.14,1.75 -1.58,2.67 -2.11,2.09 -0.53,-0.59 0.22,-5.62 -0.53,-8.24 -0.75,-2.61 -1.5,-3.39 -1.06,-6.05 0.44,-2.66 6.33,-13.63 6.99,-17.41 0.66,-3.77 0.64,-5.54 -1.04,-10.29 -1.67,-4.74 -3.66,-6.58 -3.57,-8.61 0.09,-2.04 -0.97,-0.59 -1.1,0.82 -1.19,12.63 7.62,6.97 -0.62,26.58 -0.26,0.63 -3.9,9.42 -3.9,11.74 0,2.33 2.45,12.08 2.63,13.83 0.17,1.74 1.41,3.1 1.41,5.81 0,2.71 -0.09,6.2 0.9,6.12zm8.98 -1.99c4.31,-18.29 9.2,-16.59 15.84,-29.42 1.28,-2.47 1.33,-3.63 1.33,-5.86 0,-2.23 -2.3,-6.39 -2.91,-6.63 -0.62,-0.24 -0.14,4.36 -0.71,5.76 -0.57,1.4 -9.3,10.7 -11.32,13.85 -2.03,3.15 -7.25,11.09 -8.11,14.67 -0.86,3.58 -0.85,5.02 -0.77,9.19 0.09,4.16 1.42,8.66 2.08,8.95 0.66,0.3 1.32,-0.82 1.23,-3.63 -0.09,-2.81 0.62,-9.54 1.32,-13.8 0.71,-4.26 1.41,-5.95 1.81,-7.21 0.4,-1.26 4.12,-6.42 6.32,-9.47 2.21,-3.05 4.5,-6.05 5.91,-7.55 1.41,-1.5 2.43,-3.1 2.56,-3.97 0.13,-0.87 0.31,-2.28 0.57,-1.7 3.31,7.27 -6.91,12.59 -9.92,19.28 -1.67,3.72 -6.56,11.96 -5.23,17.54zm0.37 14.69c0,0 2.65,-4.7 2.91,-7.21 0.27,-2.52 0.27,-2.91 1.19,-4.99 0.93,-2.08 3.77,-6.9 5.23,-9.37 1.45,-2.47 4.09,-4.6 5.68,-7.5 1.59,-2.91 3.31,-9.11 3.22,-11.34 -0.09,-2.22 -1.24,2.04 -1.68,3.3 -0.44,1.26 -4.32,8.32 -5.51,10.07 -1.18,1.74 -2.26,2.76 -2.84,2.28 -0.57,-0.48 -0.24,-0.2 1.13,-3.3 1.36,-3.1 1.76,-5.28 2.64,-6.49 0.88,-1.21 3.48,-2.9 3.57,-4.74 0.09,-1.84 -3.88,2.66 -5.73,4.94 -1.85,2.27 -4.19,7.55 -5.55,11.18 -1.37,3.63 -3.44,9.15 -4.06,11.91 -0.62,2.76 -1.72,11.62 -0.2,11.26zm-21.51 11.05c0,0 1.53,-1.3 1.61,-2.65 0.24,-3.59 0.98,-3.8 0.49,-9.68 -0.34,-4.05 -0.23,-8.11 -2.1,-8.24l0 20.57zm0 20.92c0.86,-0.19 1.71,-1.28 1.46,-2.86 -0.27,-1.72 -0.86,-4.06 0.09,-6.66 1.06,-2.91 1.67,-2.7 3.17,-5.8 1.5,-3.1 5.47,-7.21 5.73,-12.34 0.26,-5.13 1.37,-4.3 -0.31,-5.56 -1.67,-1.26 -2.2,4.97 -2.2,6.91 0,1.44 -2.44,4.66 -4.68,7.24 -1.35,1.56 -3.11,3.28 -3.26,3.46l0 15.61zm4.64 11.95c0,0 0.36,-5 1.41,-7.71 1.06,-2.71 5.34,-16.03 6.92,-18.84 1.59,-2.81 1.5,-3.97 1.86,-6.58 0.35,-2.62 2.64,-4.65 1.93,-9.49 -0.7,-4.85 -4.31,-7.85 -4.93,-9.2 -0.62,-1.36 -0.78,-0.6 -2.33,-6.58 -1.54,-5.98 -3.04,-12.85 -4.32,-17.94 -0.44,-1.78 -1.26,-5.07 -2.29,-8.04 -0.85,-2.42 -1.34,-5.56 -2.89,-5.62l0 9.68c1.27,-1.12 1.88,0.14 2.47,2.19 1.13,3.84 2.69,9.71 3.07,12.01 0.57,3.53 1.5,10.31 2.29,11.96 0.79,1.65 3.24,1.86 4.65,7.77 1.41,5.91 -1.02,13.99 -1.5,15.3 -0.48,1.31 -0.86,5.21 -2.75,10.05 -1.9,4.84 -6.48,11.18 -6.7,12.78 -0.22,1.6 0.77,6.58 1.25,7.69 0.49,1.11 1.72,1.89 1.86,0.57zm6.66 32.47c0,0 -2.9,-0.9 -5.2,-1.81 -2.71,-1.08 -3.94,-0.58 -6.1,-0.89l0 -9.67c3.56,-0.37 5.34,2.24 7.31,4.18 3.86,3.79 5.7,8.62 3.99,8.19zm2.4 14.83c-0.23,-0.71 -1.09,-2.38 -4.18,-4.25 -1.47,-0.88 -6.76,-3.38 -9.52,-2.36l0 -6.29c2.61,-1.23 6.02,0.1 8.87,1.29 2.74,1.15 4.97,3.18 5.47,6.57 0.22,1.47 0.38,4.09 0.01,5.02 -0.25,0.59 -0.51,0.43 -0.65,0.02zm6.37 11.8c-0.58,-0.84 -2.59,-3.94 -4.32,-5.37 -1.73,-1.43 -9.17,-2.68 -11.17,-4.48 -2,-1.8 -3.37,-2.76 -4.58,-3.56l0 3.87c1.07,0.97 2.11,2.37 2.57,2.94l4.84 6.6 4.13 0c-2.5,-3.18 1.76,-3.05 4.26,0l4.27 0zm14.83 0c-2,-4.02 -8.76,-6.47 -10.22,-13.31 -0.84,-3.92 -1.83,-7.02 -3.55,-11.67 -1.72,-4.65 -2.56,-8.91 -3.66,-10.6 -1.1,-1.7 -3.28,-5.21 -5.27,-6.9 -1.98,-1.7 -4.73,-5.11 -6.56,-7.31 -1.84,-2.21 -4.39,-3.79 -5.64,-5.04l0 8.17c1.34,1.09 3.53,0.83 5.06,3.11 1.53,2.29 3.18,3.88 4.98,6.39 1.81,2.52 2.65,3.1 3.49,5.38 0.83,2.27 1.16,12.9 1.78,15.08 0.62,2.18 2.68,7.64 3.35,9.15 0.67,1.51 4.89,4.8 6.15,7.55l3.14 0c-0.73,-0.94 -5.15,-5.01 -5.94,-7.98 -0.79,-2.98 -3.55,-7.29 -2.58,-7.39 0.97,-0.09 2.34,3.04 2.95,4.36 3.5,7.44 6.96,8.04 9.19,11.01l3.33 0zm4.26 0c-0.74,-1.02 -3.44,-2.92 -4.81,-7.31 -1.37,-4.38 -2.95,-12.34 -4.23,-15.2 -1.28,-2.86 -6.22,-8.38 -7.05,-10.65 -0.84,-2.28 -2.18,-6.66 -2.71,-8.64 -0.53,-1.99 -2.6,-3.83 -2.74,-6.06 -0.13,-2.22 -1.58,-4.16 -3.7,-7.41 -2.11,-3.24 -4.38,-8.64 -5.26,-9.61 -0.89,-0.96 0.57,5.52 0.97,8.43 0.39,2.9 2.77,6.58 3.7,7.5 0.92,0.92 4.14,6.73 4.8,8.48 0.66,1.74 2.14,7.28 2.45,9.12 0.31,1.84 1.98,3.1 2.73,5.09 0.75,1.98 1.52,4.24 2.93,7.91 1.41,3.69 2.85,6.46 3.44,8.72 0.59,2.26 5.79,8.7 6.39,9.63l3.09 0zm8.09 0c-8.53,-8.14 -6.67,-4.51 -8.77,-19.5 -0.61,-4.4 -0.35,-7.45 -2.69,-10.02 -2.33,-2.56 -3.65,-2.9 -4.18,-5.03 -0.53,-2.13 -1.57,-5.74 -3.6,-8.55 -2.02,-2.81 -2.33,-4.02 -2.51,-6.2 -0.17,-2.18 0.52,-4.17 -0.85,-8.1 -1.36,-3.92 -2.71,-6.31 -3.5,-7.23 -0.79,-0.92 -4.99,-6.87 -5.52,-8.54 -0.53,-1.67 -0.52,-4.54 0.5,-7.32 1.01,-2.79 3.56,-7.91 4.13,-10.33 0.57,-2.42 1.24,-6.91 0.25,-8.12 -0.99,-1.21 -3,5.23 -3.3,7.26 -0.31,2.04 -2.27,5.98 -2.45,6.61 -0.18,0.63 -1.99,6.6 -1.99,8.1 0,1.5 -0.48,4.73 0.23,6.82 0.7,2.08 2.67,5.31 3.69,7.13 1.01,1.81 2.31,2.51 2.71,3.92 0.4,1.4 0.52,4.85 1.18,6.84 1.15,3.45 2.51,9.81 3.08,11.28 1.1,2.81 3.53,7.12 4.89,9.3 1.37,2.17 3,4.3 3.62,6.53 0.62,2.23 1.52,2.59 1.7,8.01 0.27,8.59 5.3,12.12 9.36,17.14l4.02 0zm-19.3 -197c1.09,1.39 2.26,2.74 3.24,5.4 0.98,2.65 6.57,9.78 7.76,11.33 1.19,1.55 3.21,2.66 5.06,2.95 6.32,0.99 17.69,11.89 19.07,18.38 0.92,4.35 -3,7.79 -3.27,8.03 -0.26,0.25 -1.65,2.16 -5.66,3.95 -4.01,1.79 -6.96,5.57 -7.36,6.44 -0.4,0.87 -2.4,4.82 -3.19,6.71 -0.8,1.88 -0.71,2.76 -1.81,5.13 -1.1,2.37 -3.07,5.93 -4.39,7.96 -1.32,2.04 -2.51,2.18 -2.73,4.07 -0.22,1.89 0.18,2.18 -1.23,4.75 -1.41,2.56 -2.82,3.87 -3.22,4.94 -0.4,1.06 -0.86,15.66 -1.17,17.69 -0.31,2.04 -1.21,2.88 -2.89,7.19 -1.67,4.31 -2.42,5.23 -2.42,7.22 0,1.98 1.41,3.97 1.67,4.94 0.27,0.96 5.45,10.72 6.2,13.77 0.75,3.05 0.79,3.83 1.94,6.25 1.14,2.42 2.62,6.95 4.03,9.08 1.41,2.13 5.07,4.55 6.96,7.65 1.9,3.1 3.09,6.53 2.78,8.86 -0.31,2.32 -1.65,6.17 -0.33,9.22 1.45,3.34 2.83,6.63 4.19,9.53 0.99,2.1 2.22,4.53 2.92,5.56l-3.51 0c-1.08,-1.74 -5.96,-6.2 -7.35,-11.4 -0.73,-2.74 -1.01,-8.68 -1.45,-11.1 -0.44,-2.42 -2.58,-7.57 -3.59,-9.66 -1.02,-2.08 -3,-3.92 -3.53,-5.61 -0.53,-1.7 -2.07,-8.04 -2.25,-8.77 -0.17,-0.72 -1.43,-2.39 -1.74,-4.77 -1.38,-10.64 -6.55,-12.78 -8.79,-20.74 -0.57,-2.04 -0.8,-4.8 0.04,-6.4 0.84,-1.59 2.21,-2.76 2.51,-4.64 0.31,-1.89 0.16,-7.44 0.91,-9.42 0.75,-1.99 1.94,-4.12 1.94,-7.12 0,-3 -0.73,-7.72 0.37,-11.26 1.1,-3.53 3.53,-8.13 4.72,-9.83 1.19,-1.69 7.12,-11.64 7.56,-13.72 0.44,-2.09 1.21,-9.61 1.03,-14.6 -0.17,-4.99 -2.71,-9.76 -4.38,-12.61 -1.68,-2.86 -1.28,-3.66 -0.84,-4.82 0.44,-1.16 2.69,-2.01 5.55,2.39 2.87,4.41 3.84,6.59 3.84,11.53 0,4.94 -0.93,9.05 -1.59,10.99 -0.58,1.71 -2.11,7.14 0.53,1.98 1.19,-2.32 2.86,-6.19 4.98,-7.74 3.62,-2.66 9.74,-3.16 10.53,-9.44 0.97,-7.6 -9.26,-16.6 -14.32,-18.19 -1.7,-0.53 -5.93,-1.79 -8.88,-5.18 -2.95,-3.39 -7.41,-8.52 -8.33,-10.75 -0.63,-1.5 -1.99,-3.55 -3.25,-6.12l3.14 0zm27.04 71.34c0,0 -1.85,12.35 -3.13,16.23 -1.28,3.87 -5.82,11.18 -6.04,12.87 -0.22,1.7 0.73,6.76 -1.17,10.78 -1.89,4.02 -4.1,6.68 -4.27,9.2 -0.18,2.52 1.14,5.61 1.14,5.61 0,0 7.08,12.81 7.65,14.94 0.57,2.13 3.68,9.9 3.86,12.08 0.17,2.18 3.65,9.98 3.96,12.64 0.31,2.66 0.27,3.83 -0.75,0.87 -1.01,-2.95 -4.31,-8.91 -5.2,-12.68 -0.88,-3.78 -4.45,-13.66 -5.42,-15.74 -0.97,-2.08 -7.38,-11.21 -8.17,-13.97 -0.8,-2.76 -0.09,-5.13 0.53,-6.25 0.61,-1.11 2.84,-3.07 2.75,-6.41 -0.09,-3.34 -0.66,-4.94 0.49,-8.48 1.14,-3.53 5.66,-8.64 7.33,-12.46 1.68,-3.83 2.36,-4.43 3.51,-9.57 1.14,-5.13 1.63,-9.15 2.93,-9.66zm16.47 -30.61c0,0 2.18,3.34 1.32,9.95 -0.86,6.61 -2.64,9.23 -2.64,9.23 0,0 -2.72,4.9 -3.16,8.05 -0.44,3.14 -0.54,3.95 -1.43,6.3 -3.91,10.44 -1.28,12.99 -2.88,18.38 -0.66,2.23 -1.41,3.87 -1.59,6.05 -0.18,2.18 0.09,6.54 -0.75,9.15 -0.84,2.62 -2.22,9.42 -2.84,10.77 -0.62,1.36 -3.04,4.02 -3.62,4.22 -0.57,0.19 -0.74,-1.02 0.18,-2.47 0.93,-1.46 1.1,0.09 2.03,-3.73 0.93,-3.83 0.53,-5.96 1.1,-7.99 1.46,-5.18 2.47,-2.04 2.47,-10.26 0,-1.02 0.49,-4.69 0.58,-5.44 0.09,-0.75 -0.33,-10.77 0.73,-14.7 1.06,-3.92 2.05,-8.69 3.2,-10.91 1.14,-2.23 3.39,-5.33 4.09,-7.56 0.71,-2.22 0.14,-2.37 0.67,-3.92 0.52,-1.55 0.7,-1.16 1.27,-2.66 0.58,-1.5 1.13,-3.61 1.17,-6.08 0.05,-2.47 -0.31,-6.58 0.1,-6.38zm3.27 8.08c0.18,0.29 2.03,6.64 1.77,9.49 -0.88,9.43 -3,17.8 -4.74,26.65 -0.35,1.79 -2.54,9.85 -2.8,12.18 -0.26,2.32 0.29,11.79 -1.3,15.81 -1.59,4.02 -3.35,6.78 -4.14,8.52 -0.8,1.74 -0.47,5.2 -0.07,6.95 0.4,1.74 2.82,3.92 4.1,8.13 1.28,4.21 3.11,12.52 2.71,15.71 -0.4,3.2 -0.53,4.99 -0.75,3.97 -0.22,-1.01 -1.01,-10.26 -4.19,-15.39 -3.17,-5.14 -5.33,-8.57 -5.77,-11.87 -0.44,-3.29 0.29,-6.31 0.95,-8.25 0.66,-1.94 1.96,-6.47 1.96,-6.47 0,0 1.94,-6.63 2.69,-9.53 0.75,-2.91 0.04,-3.3 0,-4.27 -0.05,-0.96 -0.16,-8.88 0.94,-12.27 1.11,-3.39 3.42,-9.71 4.57,-13.58 1.14,-3.87 2.07,-6.83 2.95,-10.61 0.88,-3.77 0.97,-5.51 0.97,-8.23 0,-2.71 -0.83,-5.62 0.15,-6.94zm2.26 -0.74c0,0 4.89,5.52 5.34,8.18 0.44,2.66 0.44,5.28 -0.4,7.94 -0.84,2.66 -0.97,6.25 -0.97,6.54 0,0.29 0.06,3.89 -1.04,6.22 -1.1,2.32 -2.91,5.28 -3.57,6.1 -0.66,0.82 -1.23,0.63 -0.48,-1.21 0.75,-1.84 2.42,-4.89 2.73,-7.12 0.31,-2.22 0.71,-6.68 1.06,-8.86 0.35,-2.18 0.7,-3.19 0.7,-4.79 0,-1.6 -0.44,-4.36 -0.83,-5.81 -0.4,-1.45 -1.8,-4.57 -2.28,-5.51 -0.49,-0.94 -0.26,-1.68 -0.26,-1.68zm1.74 67.32c0,0 1.72,-9.97 3.35,-14.23 1.63,-4.26 4.28,-7.22 5.6,-10.07 1.32,-2.86 2.62,-4.72 2.71,-8.84 0.09,-4.11 -0.31,-8.47 0.18,-10.94 0.48,-2.47 0.7,-3.88 0.88,-4.94 0.18,-1.07 -1.15,1.02 -1.81,2.71 -0.66,1.7 -2.11,10.9 -2.11,12.59 0,1.69 -0.49,3.83 -1.46,5.86 -0.97,2.03 -4.76,5.91 -5.33,8.33 -0.58,2.42 -1.83,9.9 -2.36,12.27 -0.53,2.37 -0.97,8.43 0.35,7.26zm-2.5 25.27c0,0 2.78,-7.99 1.99,-12.01 -0.8,-4.02 -4.02,-4.12 -4.37,-7.02 -0.35,-2.91 -0.31,-3.25 0.71,-6.1 1.01,-2.86 1.83,-9.76 2.09,-11.74 0.26,-1.99 1.59,-2.33 1.63,-5.14 0.05,-2.81 -0.22,-5.86 0.22,-7.4 0.44,-1.55 0.52,-1.69 1.89,-3.38 1.36,-1.7 1.98,-2.98 2.79,-5.28 0.82,-2.3 3.73,-9.39 4.3,-10.85 0.57,-1.45 4.56,-10.91 4.56,-12.8 0,-1.89 0,-3.25 -0.44,-2.91 -0.44,0.34 -3.48,10.17 -7.01,16.47 -3.52,6.29 -5.81,11.52 -5.81,11.52 0,0 -3.11,5.59 -3.42,7.82 -0.31,2.23 -0.48,9.78 -0.53,11.52 -0.04,1.75 -2.62,10.34 -3.77,12.62 -1.14,2.27 -1.89,5.03 -1.45,6.68 0.44,1.64 1.67,1.74 2.82,3.87 1.15,2.13 2.31,4.29 2.49,7.24 0.18,2.95 -0.31,7.89 1.31,6.89zm7.49 -3.88c0,0 3,-10.02 2.08,-13.07 -0.93,-3.05 -1.9,-2.18 -1.42,-4.79 0.49,-2.62 2.96,-4.41 3.75,-7.85 1.6,-6.93 2.42,-6.42 3.59,-10.72 0.75,-2.76 0.36,-2.04 1.24,-3.78 0.88,-1.74 1.23,-1.84 1.94,-3.78 0.7,-1.93 2.49,-6.12 2.75,-12.8 0.27,-6.68 -0.04,-10.07 0.58,-12.98 0.61,-2.9 2.88,-4.09 4.78,-7.92 1.89,-3.82 3.04,-6.19 2.6,-7.21 -0.44,-1.02 -3.22,5.18 -4.19,6.39 -0.97,1.21 -2.78,3.68 -4.1,6.05 -1.32,2.38 -1.76,4.36 -2.42,4.46 -0.66,0.1 -0.93,-1.16 0.53,-5.18 1.89,-5.23 3.5,-6.23 5.95,-10.65 0.75,-1.36 2.6,-1.36 2.2,-2.72 -0.4,-1.35 -3.17,-0.48 -4.72,1.12 -1.54,1.6 -4.18,7.6 -5.02,10.26 -0.84,2.67 -0.88,4.7 -1.01,7.12 -0.14,2.42 0.04,10.22 0.04,10.22 0,0 -1.96,11.54 -2.62,13.92 -0.66,2.37 -4.89,7.74 -5.25,8.76 -0.35,1.02 0.11,4.87 -0.72,6.95 -0.84,2.08 -3.97,10.22 -4.1,11.81 -0.14,1.6 1.25,1.77 1.96,5.06 0.7,3.3 1.28,6.4 1.28,8.09 0,1.69 -0.62,3.83 0.3,3.24zm-11.92 27.09c0,0 -0.04,-6.73 0.88,-10.02 0.93,-3.29 2.34,-6.58 2.03,-10.07 -0.31,-3.49 -3.88,-9.3 -4.41,-9.49 -0.52,-0.19 0.71,1.79 1.24,6.25 0.53,4.45 1.06,7.7 0.35,10.6 -0.7,2.9 -1.37,4.31 -1.5,7.99 -0.13,3.68 1.41,4.74 1.41,4.74zm-6.23 33.13c-2.08,-2.53 -4.36,-6.8 -6.24,-11.38 -1.41,-3.44 -4.06,-7.22 -4.54,-8.67 -0.48,-1.45 -0.24,-6.66 -1.17,-9.08 -0.92,-2.42 -2.07,-4.99 -3.13,-6.78 -1.05,-1.79 -1.54,-2.03 -2.03,-4.07 -0.48,-2.03 -0.19,-4.81 -2.04,-9.27 -1.86,-4.45 -3.49,-9.39 -4.46,-10.75 -0.96,-1.35 -7.03,-8.74 -7.16,-12.37 -0.13,-3.63 -0.53,-4.11 -0.97,-5.23 -1.38,-3.48 1.42,-7.61 2.45,-10.72 0.75,-2.28 1.81,-4.07 2.03,-5.62 0.22,-1.55 0.57,-3.58 1.05,-4.79 0.49,-1.21 0.11,-1.04 2.45,-4.34 2.34,-3.29 3.79,-4.07 5.07,-7.26 1.28,-3.2 3,-6.73 3.13,-7.07 0.13,-0.34 5.24,-12.35 3.92,-12.83 -1.32,-0.49 -4.67,6.58 -6.43,8.62 -1.77,2.03 -4.68,7.26 -5.56,10.26 -0.88,3 -4.93,8.33 -6.52,10.27 -1.59,1.93 -1.5,1.64 -1.85,5.03 -0.35,3.39 -1.68,6.78 -2.12,9.01 -0.28,1.42 -1.94,7.89 -1.56,9.32 0.48,1.84 1.85,1.94 2.51,4.55 0.66,2.62 0.79,2.57 1.72,4.65 0.93,2.08 3.48,6.29 3.66,6.54 0.17,0.24 5.62,8.88 6.15,13.97 0.52,5.08 0.28,6.99 1.21,10.19 0.92,3.19 4.49,9.73 5.24,12.06 0.75,2.32 0.99,6.65 1.52,9.02 2.65,11.89 3.88,9.99 7.73,16.74l5.94 0zm11.15 -4.63c-0.68,-3.91 -0.2,-4.09 -1.74,-8.64 -1.55,-4.56 -1.97,-8.02 -3.55,-10.68 -1.59,-2.66 -2.43,-2.08 -3.09,-4.79 -0.66,-2.72 0.22,-7.99 -0.17,-9.83 -0.4,-1.84 -1.04,-5.16 -3.95,-10.73 -2.91,-5.56 -5.07,-5.86 -5.68,-9.25 -0.62,-3.38 -1.55,-4.98 -2.08,-6.05 -0.52,-1.06 -2.44,-4.33 -3.41,-3.99 -0.97,0.34 3.39,5.86 3.52,9.05 0.14,3.2 2.16,6.59 2.96,7.99 0.79,1.41 5,7.29 5.4,12.08 0.39,4.79 0.39,9.4 0.79,10.8 0.4,1.4 1.12,1.14 2.58,4.04 1.45,2.91 3.57,5.23 4.36,9.74 0.8,4.5 1.37,7.26 2.16,10.16 0.28,1.03 2.58,4.01 1.9,0.1zm8.77 4.63c-8.67,-10.54 -2.29,-12.83 -5.07,-23.51 -0.62,-2.38 -2.82,-3.44 -2.95,-5.57 -0.14,-2.13 0.26,-3 0.75,-4.17 0.48,-1.16 0.72,-6.7 0.9,-7.96 0.18,-1.26 2.56,-8.57 2.69,-11.33 0.13,-2.76 0.11,-8.31 -0.38,-9.32 -0.48,-1.02 -1.23,3.73 -2.46,7.07 -1.24,3.34 -4.63,11.28 -4.85,13.22 -0.22,1.93 -1.13,8.74 -0.69,10.58 0.44,1.84 3,4.16 3.18,5.76 0.17,1.6 0.5,12.27 1.17,14.01 0.66,1.75 1.66,2.96 1.98,4.02 0.32,1.06 1.16,4.82 1.88,7.2l3.85 0zm2.11 -4.97c-0.25,-2.03 -1.54,-11.59 -2.6,-14.3 -1.06,-2.71 -1.42,-5.35 -1.95,-4.77 -0.52,0.58 0.41,4.4 0.37,8.08 -0.05,3.68 -0.15,9.46 1.23,11.18 3.81,4.78 3.21,1.84 2.95,-0.19zm8.24 4.97c-1.59,-2.76 -2.91,-6.75 -3.94,-8.72 -1.03,-1.98 -1.37,-3.15 -1.37,-4.7 0,-1.55 1.04,-8.11 -0.19,-11.16 -1.24,-3.05 -4.5,-4.07 -4.46,-6.88 0.05,-2.8 0.73,-9.17 1.26,-13.82 0.53,-4.65 0.44,-10.02 0.31,-11.72 -0.13,-1.69 0.29,-8.06 0.86,-9.99 0.57,-1.94 0.62,-3.25 -0.18,-1.94 -0.79,1.3 -2.02,8.76 -2.02,11.57 0,2.81 -1.99,10.17 -2.3,12.4 -0.31,2.22 -0.68,13.87 -0.46,15.9 0.22,2.04 2.07,3.78 3,5.81 0.92,2.04 2.05,6.56 2.05,10.05 0,3.49 3.02,7.76 3.52,8.86 0.5,1.1 0.81,2.67 1.43,4.34l2.49 0zm1.33 -49.95c0,0 1.58,-6.1 1.76,-8.72 0.18,-2.61 0.93,-4.02 1.76,-7.65 0.84,-3.63 0.84,-7.02 0.84,-7.02 0,0 0.27,-1.74 -1.15,1.79 -1.41,3.54 -3.04,10.03 -3.04,12.64 0,2.62 -0.61,4.31 -0.83,6.25 -0.22,1.93 0.17,3.87 0.66,2.71zm1.5 38.73c0,0 1.36,-10.12 0.61,-13.02 -0.75,-2.91 -1.63,-5.57 -2.16,-8.67 -0.53,-3.1 0.99,-8.93 1.74,-10.72 0.75,-1.79 2.76,-6.37 2.94,-10.15 0.17,-3.77 0.26,-6.34 -0.23,-7.89 -0.48,-1.55 -1.19,-0.14 -1.19,2.37 0,2.52 -1.76,10.32 -2.6,12.59 -0.83,2.28 -1.49,2.71 -1.93,5.33 -0.45,2.61 -0.45,3.97 -1.15,3.92 -0.71,-0.05 -0.53,-4.02 -0.04,-5.76 0.48,-1.74 0.57,-6.88 0.44,-10.12 -0.14,-3.24 0.57,-5.23 0.66,-8.62 0.09,-3.39 0.39,-4.94 -0.31,-4.99 -0.71,-0.04 -1.98,10.03 -1.98,11.24 0,1.21 -0.36,5.76 -0.67,7.5 -0.3,1.74 -0.3,7.85 -0.57,10.56 -0.26,2.71 -0.62,4.36 -0.4,5.52 0.22,1.16 2.8,4.04 2.8,7.62 0,3.59 1.19,6.01 1.77,8.38 0.57,2.37 1.67,5.96 2.27,4.91zm23.29 -105.23c0,0 -2.42,-7.03 -3.28,-10.95 -0.86,-3.92 -1.13,-9.1 -1.7,-11.72 -0.57,-2.61 -2.95,-8.81 -4.45,-7.79 -1.5,1.01 -1.02,5.37 -0.49,7.41 0.53,2.03 2.16,1.11 2.87,5.47 0.7,4.36 2.29,10.99 3.21,13.07 0.93,2.08 4.06,5.71 3.84,4.51zm-21.08 1.97c0.79,0.68 4.01,5.13 4.98,8.37 0.97,3.25 1.54,4.51 0.71,7.03 -0.84,2.51 -4.01,7.45 -4.37,9.15 -0.35,1.69 0.55,9.58 -1.03,13 -1.59,3.41 -7.58,7.65 -8.02,8.47 -0.45,0.82 -2.05,8.01 -2.01,10.19 0.04,2.18 0.49,4.55 0.22,6.49 -0.26,1.94 -0.48,3.63 -0.48,3.63 0,0 -0.07,10.15 -0.64,10.87 -0.58,0.73 -1.06,-0.58 -1.06,-2.61 0,-2.04 0.13,-7.99 0.04,-10.07 -0.08,-2.08 -0.44,-4.22 -0.35,-6.88 0.09,-2.77 1.19,-13.42 1.52,-15.47 0.27,-1.64 1.15,-4.31 2.43,-7.17 1.27,-2.85 1.93,-4.45 2.02,-6.14 0.09,-1.7 0.11,-5.74 0.16,-8.5 0.04,-2.76 0.48,-5.38 1.63,-6.97 1.14,-1.6 1.72,-2.28 2.69,-2.14 0.97,0.15 -0.27,1.6 -0.88,3.68 -0.62,2.09 0,15.11 -0.49,16.56 -0.49,1.46 -5.07,8.09 -5.29,9.35 -0.22,1.26 -1.1,2.18 -0.13,2.18 0.97,0 4.54,-4.36 5.73,-6.39 1.19,-2.04 1.67,-2.38 1.67,-4.7 0,-2.32 -0.66,-4.65 0.22,-7.31 0.88,-2.66 2.07,-4.17 3.13,-6.59 1.06,-2.42 1.32,-2.76 1.1,-5.13 -0.22,-2.37 -0.88,-3.48 -1.49,-5.18 -0.62,-1.69 -2.58,-4.87 -2.54,-6.03 0.05,-1.16 0.53,-1.69 0.53,-1.69zm17.12 9.51c0,0 0.44,-1.16 -0.48,-1.89 -0.93,-0.72 -3.48,-2.51 -3.84,-4.21 -0.35,-1.69 -1.01,-4.7 -1.93,-6.58 -0.93,-1.89 -2.21,-3.05 -3.44,-5.86 -1.24,-2.81 -3.29,-12.52 -3.82,-13.58 -0.52,-1.07 -1.23,4.16 -1.1,6.53 0.13,2.37 3,6.68 3.31,8.77 0.31,2.08 1.76,5.57 2.73,7.4 0.97,1.85 5.36,7.82 6.24,8.99 0.88,1.16 2.33,0.43 2.33,0.43zm1.39 34.94c0,0 0.93,-5.52 0.8,-8.14 -0.14,-2.61 4.49,-11.91 4.98,-13.55 0.48,-1.65 3.28,-5.26 4.07,-9.42 0.8,-4.17 0.4,-9.49 -0.09,-9.69 -0.48,-0.19 -4.98,6.59 -5.06,8.72 -0.09,2.13 0.79,3.63 -0.44,6.87 -1.24,3.25 -5.34,5.77 -5.51,9.64 -0.18,3.87 -0.31,6.92 -0.14,8.33 0.18,1.4 0.64,8.64 1.39,7.24zm0.13 25.8c0,0 -1.85,-3.97 -3.26,-7.16 -1.41,-3.2 -1.76,-3.91 -2.11,-7.01 -0.36,-3.1 0.17,-2.96 -0.62,-5.14 -1.1,-3.03 -4.74,-9.52 -4.12,-12.57 0.53,-2.61 1.98,-4.07 2.42,-6.83 0.44,-2.76 -0.2,-7.77 0.29,-9.56 0.48,-1.79 3,-6.34 3.04,-8.23 0.05,-1.89 -2.18,-4.67 -3.55,-7 -1.36,-2.32 -4.43,-6.27 -5.57,-8.93 -1.15,-2.66 -2.12,-7.8 -3.79,-10.46 -1.68,-2.66 -0.62,-0.58 -0.62,2.47 0,3.05 0.7,9.15 1.94,11.48 1.23,2.32 8.06,8.9 8.46,11.71 0.4,2.81 -1.5,5.76 -1.54,6.93 -0.04,1.16 0.29,2.88 -0.24,4.43 -0.53,1.55 -1.11,5.42 -1.59,9.58 -0.49,4.17 -0.84,4.51 -0.62,6.49 0.22,1.99 1.04,3.85 2.54,7.05 1.5,3.19 2.16,4.55 2.38,5.81 0.22,1.26 0.02,6.61 0.55,8.4 0.1,0.35 4.94,10.19 6.01,8.54zm13.04 16.07c0,0 -2.25,-8.01 -6.83,-10.07 -4.59,-2.07 -5.47,-0.05 -6.75,-0.88 -1.27,-0.82 -5.29,-5.76 -6.39,-8.03 -1.1,-2.28 -0.94,-7.72 -0.72,-9.57 0.22,-1.84 0.17,-4.11 -0.62,-6.29 -0.79,-2.18 -2.38,-3.83 -3.13,-5.37 -0.75,-1.55 -1.73,-6.19 -1.73,-7.18 0,-1 0.29,-12.23 0.73,-14.17 0.44,-1.93 1.54,-4.5 1.8,-6.44 0.27,-1.93 -0.04,-4.4 -0.3,-4.31 -0.27,0.1 -2.65,8.19 -3.75,10.27 -1.1,2.08 -1.23,13.7 -0.84,15.74 0.4,2.03 1.15,3.77 3.09,6.97 1.94,3.19 2.55,4.21 2.82,4.94 0.26,0.72 0.37,3.85 -0.6,7.04 -0.97,3.2 -1.36,6.1 -0.83,8.04 2.34,8.6 9.28,9.73 11.96,15.42 0.66,1.41 3.84,0.68 5.03,1.31 1.19,0.63 6.92,3.97 7.06,2.58zm1.61 13.72c0,0 1.45,-6.1 -2.74,-9.15 -4.18,-3.05 -4.71,-1.4 -8.68,-3.05 -3.96,-1.64 -8.46,-4.55 -10.13,-6.53 -1.1,-1.3 -6.94,-8.01 -7.34,-11.89 -0.12,-1.17 0.94,-10.77 0.9,-14.21 -0.04,-3.44 -1.41,-8.77 -2.42,-10.22 -1.02,-1.45 0.48,6.88 0.48,11.14 0,4.26 -1.28,10.17 -1.23,12.39 0.14,6.96 5.64,14.2 10.38,18.04 5.2,4.21 7.93,6.63 9.21,7.21 1.28,0.59 3.26,0.05 5.24,1.31 1.99,1.26 5.97,6.51 6.33,4.96zm-29.53 14.44c-0.94,-2.06 -1.25,-5.3 -3.33,-6.57 -2.08,-1.27 -6.7,-3.87 -7.05,-3.24 -0.35,0.63 4.21,4.16 4.93,5.28 0.73,1.12 0.95,2.99 1.9,4.53l3.55 0zm10.3 0c-4.85,-4.55 -2.52,-1.1 -6.51,-8.58 -0.75,-1.4 -3.81,-2.97 -4.87,-4.72 -1.06,-1.74 -1.94,-4.6 -2.43,-4.11 -0.48,0.48 2.48,6.99 3.66,9 1.18,2.01 2.93,6.05 4.69,8.41l5.46 0zm-0.87 -11.72c-2.16,-2.72 -4.41,-8.62 -7.45,-10.46 -3.04,-1.84 -4.1,-1.6 -3.26,-0.05 0.84,1.55 5.38,8.04 6.79,9.59 1.41,1.55 1.67,0.92 2.77,3.53 1.11,2.62 3.04,4.92 4.5,5.69 2.87,1.52 0.24,-3.79 -3.35,-8.3zm20.78 11.72c-1.8,-2.98 -5.71,-5.85 -7.07,-6.76 -1.36,-0.91 -5.55,-1.86 -6.52,-4.14 -0.97,-2.27 -4.94,-3.68 -4.55,-2.62 0.4,1.07 7.1,7.78 8.73,8.99 1.64,1.2 5.08,2.38 6.27,4.53l3.14 0zm10.52 0c-1.32,-4.14 -14.44,-12.03 -17.79,-13.99 -1.41,-0.82 -6.37,-2.24 -7.25,-3.45 -0.88,-1.21 -9.63,-7.82 -10.87,-9.75 -1.23,-1.94 -4.36,-6.83 -6.12,-7.75 -1.77,-0.92 -1.63,1.12 -0.84,3.2 0.79,2.09 3.44,6.68 7.32,9.1 3.87,2.42 7.84,4.11 9.69,6.78 4.37,6.28 20.38,13.5 21.74,15.86l4.12 0zm12.29 0c-0.17,-0.21 -8.48,-7.93 -9.74,-9.11 -1.72,-1.6 -3.35,-2.86 -4.19,-6 -0.84,-3.15 -0.79,-8.38 -2.11,-11.58 -1.33,-3.19 -1.96,-6.9 -5.89,-12.22 -3.92,-5.33 -10.13,-11.23 -11.41,-12.93 -1.28,-1.69 -3.59,-4.77 -5.36,-6.22 -1.76,-1.45 -2.69,-3.83 -2.95,-1.89 -0.27,1.94 3.17,9.83 4.36,11.28 1.19,1.45 1.9,0.58 3.75,3 1.85,2.42 4.05,4.89 5.24,6.44 4.13,5.38 4.74,3.46 5.09,12.18 0.27,6.49 1.28,10.12 2.03,11.91 0.75,1.79 2.62,3.99 3.95,7.44 1.32,3.44 5.54,5.61 6.86,7.7l2.59 0c-1.19,-1.58 -3.68,-4.07 -4.61,-5.43 -0.92,-1.36 -3.65,-6.15 -4.23,-7.8 -0.57,-1.64 -2.24,-4.4 -0.88,-3.92 1.37,0.49 2.5,3.12 3.75,6.98 1.14,3.51 6.52,7.32 9.01,10.17l4.74 0zm8.88 0c-2.33,-1.74 -10.91,-7.71 -12.63,-12.83 -1.72,-5.12 -1.94,-10.03 -3.74,-12.93 -1.81,-2.91 -5.65,-6.44 -7.01,-9.11 -1.37,-2.66 -1.87,-6.66 -3.02,-8.55 -1.15,-1.88 -2.42,-3.24 -2.42,-4.01 0,-0.78 -0.67,-4.26 -2.34,-6.88 -1.68,-2.61 -4.43,-3.9 -5.58,-7.67 -1.14,-3.78 -2.38,-6.06 -2.82,-5.33 -0.44,0.73 1.11,12.49 4.24,15.64 3.12,3.15 6.3,8.47 6.91,9.97 1.9,4.62 5.96,13.45 7.25,16.88 0.75,1.98 1.59,4.65 1.81,5.37 4.71,15.52 13.21,17.57 15.11,19.45l4.24 0zm6.29 0c-2.07,-1.85 -8.21,-5.25 -9.46,-8.16 -1.26,-2.92 -2.38,-8.33 -2.82,-10.13 -0.44,-1.79 -0.56,-7.62 -2.23,-10.57 -1.67,-2.96 -4.41,-4.99 -5.51,-7.51 -1.1,-2.52 -0.44,-2.47 -1.76,-4.7 -1.32,-2.22 -4.78,-5.4 -5.14,-7.62 -0.35,-2.23 -0.24,-7.34 -0.72,-9.37 -0.49,-2.03 -3.53,-7.41 -6.31,-11.28 -2.77,-3.88 -4.1,-5.38 -4.36,-6.49 -0.26,-1.11 -0.46,-5.06 0.73,-8.5 1.19,-3.44 3.39,-6.15 4.27,-10.36 0.88,-4.21 1.28,-7.6 -0.17,-7.46 -1.46,0.15 -5.2,13.08 -6.48,16.51 -1.28,3.44 -1.55,10.85 -1.06,12.74 0.48,1.89 6.08,10.36 6.74,11.52 0.66,1.16 0.73,6.03 1.83,8.35 1.1,2.33 2.43,3.39 2.69,5.33 0.26,1.94 -0.15,3.51 1.96,7.63 4.11,7.99 8.83,10.68 10.12,20.74 0.7,5.52 5.07,9.91 6.7,12.93 1.63,3.03 5.63,4.44 7.73,6.4l3.25 0zm-10.04 -41.09c0,0 -0.48,-6.59 -2.02,-8.81 -1.55,-2.23 -5.98,-8.26 -6.5,-10.53 -0.53,-2.28 -3.62,-10.66 -5.91,-14.77 -2.29,-4.12 -2.82,-3.68 -2.69,-1.7 0.13,1.99 6.48,15.69 7.27,17.39 0.8,1.69 5.38,12.49 6.44,14.67 1.06,2.18 3.13,5.28 3.41,3.75zm31.58 4.14c0,0 0.53,-6.56 1.24,-8.16 0.7,-1.6 2.95,-7.72 2.77,-9.85 -0.17,-2.13 -3.08,-7.65 -4.01,-8.77 -0.92,-1.11 -1.41,-0.82 -0.92,0.58 0.48,1.41 1.89,3.64 2.02,6.35 0.14,2.71 -0.96,7.84 -1.45,10.12 -0.48,2.27 -1.06,10.36 0.35,9.73zm-136.69 -138.26c-6.19,-11.51 -5.49,-6.45 -13.45,-11.3 -0.79,-0.48 -2.55,-2.21 -2.55,-1.39 0,0.82 6.43,6.63 8.15,7.6 1.72,0.97 3.68,1.98 4.96,3.1 1.28,1.11 3.46,3.1 2.89,1.99zm-18.52 -21.79c0.94,1.26 1.53,2.76 2.73,3.86 2.69,2.47 10.49,6.92 12.82,9.01 2.34,2.08 4.37,5.13 5.47,7.02 1.1,1.89 4.08,7.28 4.96,9.17 0.88,1.89 2.2,3.39 3.17,5.67 0.97,2.27 1.43,9.03 0.37,14.69 -1.05,5.67 -3.08,9.45 -3.87,11.72 -0.8,2.28 -6.45,11.12 -6.45,13.5 0,2.37 -2.97,23.55 -3.64,26.12 -0.66,2.57 -0.66,6.44 -0.61,8.13 0.04,1.7 -0.42,7.97 -1.52,10.29 -1.11,2.33 -3.09,4.85 -2.96,8.19 0.14,3.34 5.27,12.32 5.4,14.89 0.14,2.56 -0.13,2.18 0.62,3.97 0.75,1.79 3.04,2.22 4.05,5.18 1.02,2.95 2.54,9.95 2.41,13.97 -0.14,4.01 -0.27,3.72 0.88,5.61 1.14,1.89 3.72,3.37 6.01,9.66 2.69,7.37 1.27,9.32 5.21,16.35l-3.85 0c-1.4,-2.06 -5.38,-7.97 -6.38,-10.78 -1,-2.81 -2.16,-9.83 -2.78,-13.36 -0.61,-3.54 -3.13,-9.35 -3.13,-9.35 -1,-2.65 -12.6,-36.67 -12.6,-37.67 0,-6.83 3.5,-12.42 4.78,-16.29 1.28,-3.88 0.49,-8.86 1.1,-11.48 0.62,-2.61 5.18,-18.18 5.36,-20.94 0.17,-2.76 0.13,-9.83 1.01,-12.06 0.88,-2.22 5.05,-8.4 6.33,-11.79 1.27,-3.39 1.76,-3.58 1.45,-4.55 -0.31,-0.97 -1.15,1.7 -4.28,4.17 -3.12,2.47 -6.52,4.02 -7.53,5.9 -1.02,1.89 -3.44,8.43 -4.85,10.85 -1.41,2.42 -5.49,7.58 -7.21,9.85 -1.72,2.28 -3.7,7.27 -4.8,7.61 -1.1,0.33 0.84,-4.56 1.54,-6.01 0.71,-1.45 6.22,-10.41 8.16,-15.78 1.93,-5.38 2.44,-7.39 4.12,-9.37 1.67,-1.99 5.15,-3.63 8.19,-6.01 3.05,-2.37 4.77,-3.09 6,-5.71 1.23,-2.62 0.68,-3.95 0.77,-6.75 0.09,-2.81 -1.63,-4.85 -2.38,-5.52 -0.75,-0.68 -3.48,-2.13 -4.41,-3.01 -0.92,-0.87 -2.86,-4.02 -3.83,-4.89 -0.97,-0.87 -1.17,-2.15 -5.27,-4.14 -5.26,-2.55 -11.83,-5.8 -14.98,-11.67 -0.68,-1.25 -1.75,-6.11 -3.17,-8.25l3.33 0c0.74,1.48 0.67,2.95 1.09,4.41 0.42,1.45 3.31,6.34 5.16,8.27 1.85,1.94 4.98,3.88 7.49,4.9 2.51,1.01 4.76,2.42 6.3,3.53 1.55,1.11 4.39,3.75 5.45,5.01 1.06,1.26 1.14,2.23 2.38,2.42 1.23,0.2 -0.84,-2.18 -1.63,-3.82 -0.8,-1.65 -4.76,-7.56 -5.95,-9.2 -1.19,-1.65 -7.1,-4.6 -8.73,-5.62 -1.63,-1.02 -5.4,-3.94 -7.01,-5.37 -1.61,-1.44 -2.17,-2.79 -3.38,-4.53l3.09 0zm8.09 0c1.38,1.53 3.93,4.23 6.53,6.29 3.83,3.05 6.34,3.49 8.15,5.72 1.81,2.22 1.98,1.5 3.13,4.84 1.15,3.34 3.34,7.1 4.81,9.84 1.48,2.74 3.13,4.48 3.44,5.52 0.31,1.04 0.29,0.34 1.08,4.07 0.8,3.73 3.18,4.69 4.19,5.66 1.01,0.97 4.1,2.37 5.38,4.12 1.27,1.74 4.16,7.24 4.65,9.95 0.48,2.71 0.39,2.76 -0.71,0.24 -1.1,-2.52 -2.03,-4.26 -5.95,-7.6 -3.92,-3.34 -7.84,-5.18 -8.73,-7.85 -0.88,-2.66 -1.05,-5.71 -1.67,-7.5 -0.62,-1.79 -3.39,-4.79 -3.83,-5.96 -0.45,-1.16 -2.5,-7.24 -3.95,-8.25 -1.45,-1.02 -3.83,-4.12 -4.23,-5.38 -0.4,-1.26 -2.73,-3.1 -4.76,-4.4 -1.61,-1.04 -6.74,-4.33 -9.36,-6.78 -1.05,-0.98 -1.23,-1.36 -2.19,-2.53l4.02 0zm16.31 9.88c0,0 6.57,6.29 7.1,8.37 0.53,2.08 2.55,4.26 3.61,6.39 1.06,2.13 3.4,4.75 3.97,6.54 0.57,1.79 0.86,3.17 2,4.67 1.81,2.37 10.3,6.46 12.03,10.51 0.71,1.65 2.98,5.45 2.89,7.38 -0.09,1.94 -5.33,-3.19 -5.86,-4.11 -0.53,-0.92 -0.75,-3.49 -2.42,-4.79 -1.68,-1.31 -5.25,-2.33 -7.23,-4.22 -1.98,-1.89 -3.35,-4.74 -3.62,-6.44 -0.26,-1.69 -0.3,-2.56 -0.74,-3.53 -0.45,-0.97 -3.73,-6.32 -4.83,-7.14 -1.1,-0.83 -1.59,-0.92 -2.12,-3.49 -0.53,-2.57 -0.39,-3.44 -1.72,-5.04 -1.32,-1.59 -4.23,-5.27 -3.06,-5.1zm-9.46 -9.88c0.61,0.93 3.9,5.03 4.99,5.69 1.08,0.66 2.64,1.55 1.94,1.74 -0.71,0.19 -5.22,-2.23 -6.53,-3.29 -1.3,-1.06 -2.73,-2.13 -3.91,-4.14l3.51 0zm27.27 4.32c1.52,2.71 5.31,9.42 6.32,10.76 1.28,1.7 3,0.92 5.25,3.1 2.24,2.18 4.89,3.44 5.77,4.65 0.88,1.21 4.47,5.88 6.63,8.84 2.16,2.95 9.92,11.13 11.73,13.84 1.8,2.71 1.69,4.24 2.49,6.42 0.79,2.18 4.05,9.15 4.45,10.75 0.4,1.6 5.49,17.5 6.94,19.92 1.46,2.42 3.22,3.92 3.83,5.72 0.62,1.79 -0.11,8.11 -0.55,11.3 -0.83,6.04 -3.59,10.22 -5.31,16.15 -0.66,2.28 -3.21,9.1 -3.39,10.6 -0.18,1.51 -1.39,14.94 -2.23,14.94 -0.83,0 -2.42,-6.24 -2.68,-9.59 -0.27,-3.34 0.08,-5.76 1.36,-8.13 1.28,-2.37 4.45,-8.96 5.25,-10.94 0.79,-1.99 1.69,-5.84 2.09,-8.16 0.4,-2.33 1.1,-6.68 1.5,-8.09 0.4,-1.4 1.23,-3.44 0.97,-5.03 -0.27,-1.6 -0.6,-3.03 -1.57,-5.45 -0.97,-2.42 -2.82,-3.44 -4.05,-7.6 -1.24,-4.17 -3,-10.51 -3,-10.51 0,0 -5.49,-16.53 -6.76,-18.23 -1.28,-1.69 -3.88,-5.66 -4.85,-6.34 -0.97,-0.68 -6.59,-5.26 -9.02,-8.11 -1.04,-1.24 -2.73,-5.41 -5.47,-8.01 -4.15,-3.94 -8.25,-5.02 -9.82,-6.86 -1.64,-1.92 -2.72,-8.04 -3.86,-7.53 -1.09,0.5 1.97,10.61 4.37,12.83 1.41,1.31 4.14,1.84 6.34,4.12 2.21,2.28 6.64,5.79 8.49,8.69 1.85,2.91 3.92,4.21 4.93,6.83 1.02,2.61 1.86,4.99 1.99,6.39 0.13,1.4 0.37,7.67 1.08,9.9 0.7,2.23 1.76,2.66 2.2,5.67 0.44,3 1.02,4.11 1.46,5.61 0.44,1.5 5.35,9.03 7.03,10.83 1.67,1.79 2.11,1.84 2.46,3.34 0.36,1.5 -0.08,4.74 -0.83,6.19 -0.75,1.46 -1.99,3.97 -2.12,4.6 -0.13,0.63 -0.68,3.56 -1.25,5.45 -0.58,1.89 -2.08,2.91 -2.56,5.62 -0.49,2.71 -0.29,11.64 0.02,16.1 0.31,4.45 0.62,9.25 0.31,10.46 -0.31,1.21 -1.98,-3.1 -2.73,-4.7 -0.75,-1.6 -2.38,-2.03 -1.94,-5.76 0.44,-3.73 1.01,-3.92 1.5,-7.27 0.48,-3.34 0.22,-6.92 0.74,-9.49 1.34,-6.47 3.92,-9.53 4.88,-13.82 0.44,-1.98 0.7,-0.53 0.79,-3.68 0.09,-3.15 -0.97,-5.23 -1.76,-6.39 -0.8,-1.16 -3.75,-3.2 -4.63,-5.23 -0.88,-2.03 -4.12,-9.71 -5.36,-14.7 -1.23,-4.98 -1.28,-8.37 -1.28,-8.37 0,0 0.2,-5.01 -0.55,-6.13 -0.75,-1.11 -0.48,-1.64 -3.04,-2.42 -2.55,-0.77 -8.99,-2.32 -10.93,-3.39 -1.94,-1.06 -7.45,-5.95 -9.17,-8.81 -1.71,-2.86 -3.81,-4.87 -4.47,-6.61 -4.5,-11.86 -3.73,-10.48 -13.22,-19.51 -0.85,-0.81 -4.36,-5.04 -6.51,-9.08l5.94 0c1.52,1.82 3.6,3.6 4.73,5.18 1.13,1.58 3.53,5.29 3.97,5.33 0.44,0.04 -2.22,-7.76 -3.91,-10.51l3.85 0c0.5,0.83 0.73,1.26 1.4,2.48 0.67,1.22 1.83,1.39 2.54,4.83 0.7,3.44 1.81,9.1 2.51,11.82 0.71,2.71 2.03,5.32 2.03,5.32 0,0 2.18,4.38 3.42,7.24 1.23,2.86 4.23,5.37 5.95,6.63 1.71,1.26 8.28,4.41 10.26,5.52 1.99,1.12 2.75,1.06 3.24,1.49 0.48,0.44 -0.33,-1.1 -1.56,-2.55 -1.24,-1.45 -1.46,-1.65 -2.78,-2.62 -1.32,-0.97 -7.01,-4.4 -8.68,-6.58 -1.67,-2.18 -6.74,-7.41 -7.89,-9.49 -1.15,-2.08 -1.67,-3.44 -2.16,-5.76 -0.32,-1.55 -0.88,-5.49 -1.21,-7.96 -0.25,-1.83 -0.5,-2.45 -0.85,-4.15 -0.13,-0.65 -0.22,-1.34 -0.19,-1.94 0.12,-1.85 0.64,-0.84 1.13,0.04zm4.11 -4.32c1.27,1.6 2.83,3.43 3.8,4.14 1.85,1.35 3.22,2.71 4.98,4.36 1.76,1.64 6.12,5.61 7.76,7.4 1.63,1.8 11.57,14.02 13.15,16.3 1.59,2.27 4.83,6.27 5.62,9.17 1.19,4.37 2.52,11.54 0,6.4 -0.79,-1.63 -4.63,-6.59 -5.46,-8.09 -0.84,-1.5 -1.15,-1.99 -1.9,-3.15 -0.75,-1.16 -7.62,-8.42 -8.81,-10.41 -1.19,-1.98 -3.22,-5.47 -4.32,-6.34 -1.11,-0.87 -1.52,-1.96 -4.74,-3.9 -3.22,-1.94 -6.58,-3.98 -8.38,-6.15 -1.79,-2.17 -4.21,-5.74 -5.54,-9.73l3.84 0zm13.67 7.62c0,0 1.41,-0.58 4.14,4.02 2.74,4.6 4.85,6.39 6.09,7.85 1.23,1.45 3.5,5.3 5,6.8 1.5,1.5 1.81,0.97 2.82,3.68 1.01,2.71 1.37,5.04 2.42,6.05 1.06,1.02 1.15,-1.16 0.66,-2.9 -0.48,-1.75 -1.93,-7.12 -2.86,-8.38 -0.93,-1.26 -2.07,-2.03 -2.78,-3.77 -0.7,-1.75 -0.79,-2.38 -2.33,-3.49 -1.55,-1.12 -1.81,-0.24 -3.71,-2.37 -1.89,-2.13 -3.65,-5.38 -5.68,-6.93 -2.03,-1.55 -4.14,-1.31 -3.77,-0.56zm-3.31 -7.62c1.28,2.04 2.98,4.65 3.53,5.06 0.93,0.68 -2.3,-0.28 -3.04,-1.02 -0.74,-0.74 -2.33,-2.34 -2.98,-4.04l2.49 0zm8.8 0c1.49,2.77 5.18,6.62 7.2,8.45 2.03,1.83 4.63,3.58 6.57,4.65 1.94,1.06 3.39,2.47 3.97,3.72 0.57,1.26 1.96,5.45 2.66,9.52 0.71,4.07 -0.74,10.55 -1.63,11.09 -0.88,0.53 -0.3,-6.1 -0.97,-8.14 -0.66,-2.03 -4.71,-10.46 -4.93,-11.91 -0.22,-1.45 -1.41,-2.81 -2.21,-3.1 -0.79,-0.29 -5.84,-2.03 -7.27,-4.55 -1.43,-2.52 -4.99,-6.61 -6.94,-9.73l3.55 0zm10.3 0c1.23,1.1 1.76,1.35 3.91,2.1 2.15,0.76 6.83,0.59 8.68,1.75 1.86,1.16 4.02,5.13 4.72,6.68 0.71,1.55 4.03,8.16 4.65,10.14 0.62,1.99 1.37,6.69 0.57,8.82 -0.79,2.13 -3.02,7.57 -4.03,11.06 -1.01,3.49 -1.76,11.48 -2.29,12.64 -0.53,1.16 -0.49,-0.58 -0.66,-1.84 -0.18,-1.26 0.04,-10.36 0.79,-13.37 0.75,-3 3,-7.55 3.39,-10.55 0.4,-3 -1.41,-7.41 -1.98,-9.4 -0.57,-1.98 -2.71,-8.64 -5.09,-9.8 -2.38,-1.16 -9.18,-0.53 -10.71,-1.5 -1.53,-0.98 -5.46,-4.45 -7.41,-6.73l5.46 0zm19.91 0c1.15,2.08 3.32,6 4.12,8.23 0.81,2.23 3.73,4.87 4.78,11.45 1.06,6.59 1.02,11.57 0.22,14.04 -0.79,2.47 -3.72,8.69 -4.91,10.53 -1.19,1.84 -4.85,6.59 -5.64,8.14 -0.8,1.55 -1.41,2.71 -1.41,1.5 0,-1.21 2.03,-7.46 2.91,-9.73 0.88,-2.28 2.99,-3.34 4.32,-8.19 1.32,-4.84 1.67,-7.21 1.67,-9.87 0,-2.67 -0.92,-5.33 -1.67,-7.07 -0.75,-1.75 -5.4,-11.02 -5.93,-13.44 -0.28,-1.28 -0.76,-3.62 -1.6,-5.59l3.14 0zm-3.81 78.05c0,0 0.09,-10.55 1.23,-13.75 1.15,-3.2 2.58,-4.33 3.46,-6.17 0.88,-1.84 1.41,-3.73 2.29,-5.33 0.89,-1.6 7.23,-8.18 8.55,-10.8 1.33,-2.61 3.38,-5.78 2.54,-11.26 -0.84,-5.47 -3.53,-10.89 -3.84,-10.94 -0.3,-0.05 2.43,11.04 1.55,14.09 -0.89,3.05 -4.01,8.04 -5.38,10.27 -1.37,2.23 -5.6,7.31 -6.04,8.18 -0.44,0.87 -2.71,5.74 -3.19,6.8 -0.49,1.07 -1.28,3.49 -2.12,3.68 -2.29,0.53 -4.04,-12.76 -2.28,-18.7 0.3,-1.01 4.09,-10.4 4.26,-11.78 0.18,-1.38 0.52,-5.24 0.1,-7.54 -0.42,-2.3 -3.51,-7.15 -3.86,-9.04 -0.36,-1.89 -0.42,-3.87 -0.95,-4.41 -0.53,-0.53 -1.76,4.24 -0.84,7.32 0.93,3.07 3.17,8.9 3.24,9.9 0.07,0.99 0.41,3.59 -0.52,5.87 -2.23,5.49 -5.67,11.34 -5.03,17.83 0.3,3.15 2.63,9.91 2.63,11.51 0,1.6 1.39,3.41 1.61,4.36 0.22,0.94 1.6,9.35 1.86,9.94 0.27,0.58 0.73,-0.03 0.73,-0.03zm8.2 -1.31c0,0 0.3,-8.76 2.11,-13.51 1.81,-4.74 5.75,-12.22 7.78,-14.3 2.03,-2.08 4.32,-3.49 4.54,-5.09 0.22,-1.59 0.09,-4.79 -0.62,-4.5 -0.7,0.29 -1.5,3.05 -4.67,6.54 -3.17,3.48 -9.69,12.63 -10.22,14.72 -0.53,2.08 -0.97,4.98 -0.97,6.29 0,1.31 -0.47,20.22 -0.91,20.12 -0.44,-0.1 -1.85,-2.95 -2.07,-5.08 -0.22,-2.14 -1.19,-11.96 -0.57,-14.68 0.62,-2.71 0.59,-4.38 4.34,-10.43 3.75,-6.05 11.97,-15.81 12.58,-17.17 0.62,-1.35 0.31,-5.52 0.44,-5.95 0.14,-0.44 2.47,1.16 3.22,3.24 0.75,2.08 1.68,3.83 1.37,6.15 -0.31,2.33 -4.15,5.72 -4.94,7.07 -0.79,1.36 -7.71,13.95 -7.84,14.33 -0.14,0.39 -2.85,14.31 -3.57,12.25zm18.49 -28.97c-0.09,0.53 -1.24,9.44 -2.52,11.86 -1.28,2.42 -6.56,10.17 -7.62,12.83 -1.06,2.66 -2.98,6.03 -3.15,7.72 -0.18,1.7 -1.16,4.71 -2.06,6.7 -0.91,1.98 -2.1,4.35 -2.45,3.7 -0.35,-0.65 1.45,-9.78 1.54,-11.33 0.09,-1.55 1.76,-7.78 2.04,-9.72 0.29,-1.94 1.6,-6.79 2.28,-8.17 0.68,-1.38 3.45,-8.03 6.27,-10.23 2.82,-2.2 3.37,-1.96 2.67,-1.07 -0.71,0.9 -4.67,8.14 -5.27,9.93 -0.59,1.79 -1.48,3.68 -2.09,4.5 -0.62,0.83 -1.26,1.77 -0.88,2.16 0.37,0.39 4.6,-4.04 6.08,-7.02 1.47,-2.98 3.13,-9.47 3.59,-10.65 0.46,-1.19 1.1,-2.45 1.57,-1.21zm7.2 -2.01c0,0 1.98,-1.89 1.85,-3.73 -0.13,-1.84 -2.69,-6.15 -3.13,-6.35 -0.44,-0.19 1.82,3.25 1.57,5.04 -0.24,1.79 -1.13,4.99 -0.29,5.04zm8.86 -5.86c0,0 0,-8.57 -3.26,-12.98 -3.26,-4.41 -6.26,-6.73 -8.16,-7.21 -1.89,-0.49 -4.05,-0.78 -3.08,-0.25 0.97,0.54 6.79,4.26 9.12,8.28 2.34,4.02 3.57,7.65 3.93,9.25 0.35,1.6 1.45,2.91 1.45,2.91zm-35.19 -39.05c0.13,0.29 5.42,14.18 9.03,17.19 3.62,3 7.32,4.74 9.17,6.34 1.85,1.6 6.76,8.06 8.31,10.05 1.54,1.98 4.54,4.06 5.15,4.06 0.62,0 0.09,-1.26 -1.1,-2.66 -1.19,-1.4 -3.96,-5.62 -4.76,-7.31 -0.79,-1.7 -2.55,-5.28 -5.29,-6.97 -2.73,-1.7 -7.22,-2.57 -9.16,-5.33 -1.94,-2.76 -7.47,-11.79 -8.8,-13.87 -1.32,-2.08 -2.82,-2.57 -2.55,-1.5zm6.77 -0.85c0.91,2.99 2.47,6.61 4.4,8.3 1.93,1.69 5.11,6.26 9.61,7.86 4.5,1.6 3.3,0.04 7.89,2.89 4.58,2.86 10.11,9.03 10.69,9.71 0.57,0.68 3.26,4.41 3.26,6.05 0,1.65 -1.06,4.31 -2.21,5.96 -1.14,1.64 -3.1,3.61 -5.22,4.53 -2.12,0.92 -3.44,0.77 -5.29,2.95 -1.85,2.18 -5.68,8.81 -6.52,10.99 -0.84,2.18 -0.6,6.51 -2.89,10.05 -2.29,3.53 -4.05,4.89 -4.41,6.68 -0.35,1.79 0.18,3.73 -1.1,6.05 -1.28,2.33 -3.66,5.04 -3.66,5.04 0,0 -1.12,6.99 -0.99,13.05 0.13,6.05 -0.35,8.08 -0.92,9.15 -0.58,1.06 -2.19,2.2 -2.54,3.41 -0.35,1.21 -2.42,5.91 -2.24,8.62 0.17,2.71 7.69,13.39 8.21,16 0.53,2.62 1.37,6.06 2.12,7.56 0.75,1.5 2.15,3.78 3.1,6.13 0.94,2.35 3.13,4.97 3.63,5.52 0.51,0.56 3.77,5.41 5.45,8.22 1.67,2.81 2.68,6.62 2.68,8.17 0,1.55 -0.08,6.25 0.64,7.58 2,3.65 4.51,7.11 7.22,9.52 3.68,3.28 5.74,4.15 7.97,7.01l-6.66 0c-3.83,-4.44 -13.42,-2.77 -13.42,-22.97 0,-2.18 -4.27,-9.83 -4.27,-9.83 0,0 -5.14,-8.25 -5.76,-10.63 -0.61,-2.37 -3.3,-10.75 -3.92,-12.73 -0.62,-1.99 -1.74,-6.22 -2.84,-7.92 -1.1,-1.69 -5.01,-8.68 -5.59,-10.42 -0.57,-1.74 -0.99,-3.51 -0.28,-6.08 0.7,-2.56 2.95,-5.56 2.95,-8.18 0,-2.61 0.64,-6.22 0.99,-8.64 0.35,-2.42 0.84,-3.29 0.88,-5.72 0.05,-2.42 0.99,-12.12 1.79,-14.59 0.79,-2.47 4.93,-8.77 4.93,-8.77 0,0 4.21,-8.93 5.18,-11.59 0.97,-2.67 0.73,-8.79 0.11,-16.06 -0.61,-7.26 -7.34,-13.38 -8.35,-15.85 -1.01,-2.47 -2.6,-4.26 0.04,-2.86 2.65,1.4 5.43,0.92 7.72,4.36 2.29,3.44 4.14,8.18 4.62,10.94 0.49,2.76 0.09,7.36 -0.22,9.35 -0.3,1.98 -0.9,3.6 -0.41,3.79 0.48,0.2 2.33,-6.19 5.02,-7.3 2.69,-1.12 8.68,-2.04 10.05,-5.09 4.06,-9.07 -2.9,-11.28 -7.03,-16.79 -2.54,-3.39 -6.88,-4.87 -11.04,-5.69 -1.39,-0.27 -6.96,-3.71 -10.54,-7.64 -3.57,-3.93 -5.37,-7.29 -6.95,-10.09l4.12 0zm10.75 5.35c0.04,0.34 5.24,5.13 8.24,6.29 2.99,1.17 6.87,2.81 7.67,3.93 0.79,1.11 1.98,4.4 2.2,3.14 0.22,-1.26 -1.67,-4.4 -4.32,-6.34 -2.64,-1.94 -6.17,-3.29 -7.54,-3.58 -1.36,-0.29 -4.62,-3.54 -6.25,-3.44zm16.71 -5.35c0.98,0.81 1.97,1.68 2.79,1.98 0.82,0.31 -0.32,0.48 -2.73,-0.14 -2.42,-0.62 -2.58,-1.18 -3.31,-1.84l3.25 0zm50.63 121.9c0,0 -0.09,7.65 -1.06,10.45 -0.97,2.81 -0.44,4.94 -1.14,6.78 -0.71,1.84 -0.36,-7.74 -0.27,-9.39 0.09,-1.65 2.03,-10.27 2.47,-7.84zm17.82 -7.38c0.19,-3.67 2.91,-9.97 3.88,-12.39 0.97,-2.42 3.68,-4.63 3.85,-8.74 0.18,-4.12 0.67,-11.04 -0.66,-11.04 -1.32,0 -4.93,7.89 -4.54,10.17 0.4,2.27 1.72,2.85 0.88,4.84 -0.83,1.98 -4.84,6.2 -5.42,9.05 -0.57,2.86 -0.76,6.86 -0.22,8.33 0.89,2.4 2.03,3.45 2.23,-0.22zm-19.11 56.29c0.09,-3.1 -2.07,-7.75 -2.16,-10.55 -0.08,-2.81 -0.35,-4.6 0.35,-6.69 0.71,-2.08 3.38,-7.62 4.3,-9.56 0.93,-1.94 0.53,-11.43 0.05,-12.59 -0.49,-1.16 -0.8,6.59 -1.15,9.1 -0.35,2.52 -3.3,5.72 -4.14,8.28 -0.84,2.57 -1.46,6.25 -2.16,6.59 -0.71,0.34 -1.24,-1.79 -0.44,-4.12 0.79,-2.32 1.72,-4.5 1.89,-6.63 0.18,-2.13 0.53,-8.28 0.18,-11.38 -0.35,-3.1 -0.04,-6.58 -0.53,-6.58 -0.49,0 -0.79,6.39 -1.15,9.24 -0.35,2.86 0.36,5.04 -0.13,7.7 -0.48,2.67 -1.41,3.15 -1.81,6.59 -0.39,3.44 -0.66,10.31 0.05,12.05 2.29,5.67 0.42,7.59 1.65,10.83 0.66,1.74 1.69,1.91 2,3.8 1.29,7.91 3.2,-5.89 3.2,-6.08zm-47.38 -103.13c0,0 -0.35,10.07 -2.6,15.78 -2.25,5.72 -5.26,10.53 -5.66,13.25 -0.4,2.71 -0.31,10.31 -1.54,12.58 -1.24,2.28 -3.82,6.52 -3.82,10.05 0,3.54 3.75,9.15 4.98,11.23 1.24,2.09 5.51,8.19 6.31,12.21 0.79,4.02 4.4,12.92 4.62,13.7 0.19,0.64 3.92,9.46 1.48,7.72 -0.75,-0.53 -6.83,-16.17 -7.4,-17.38 -0.58,-1.21 -2.67,-8.35 -3.38,-9.56 -0.7,-1.21 -6.25,-9.06 -7.36,-10.61 -1.1,-1.55 -2.79,-3.56 -2.79,-7.24 0,-3.68 2.68,-7.5 2.91,-10.55 0.21,-3.05 -0.07,-9.42 0.41,-11.55 0.49,-2.13 2.87,-2.9 3.66,-4.02 0.79,-1.11 4.87,-5.78 6.11,-10.92 1.23,-5.13 2.24,-11.76 2.77,-13.75 0.53,-1.98 1.3,-0.94 1.3,-0.94zm14.99 -30.75c0.35,1.21 1.92,10.3 1.58,14.48 -0.37,4.62 -6.06,20.35 -6.12,20.48 -1.28,2.71 -1.59,3.39 -1.59,3.39 0,0 -0.51,10.19 -0.15,13.39 0.17,1.57 -1.88,16.9 -2.1,17.89 -1.01,4.74 -2.11,9.88 -3.3,11.57 -1.19,1.7 -3.04,3.78 -3.13,2.08 -0.09,-1.69 3.17,-6.24 3.3,-7.74 0.14,-1.51 -0.22,-5.28 0.18,-6.69 0.4,-1.4 0.84,-1.45 1.28,-3.34 0.44,-1.88 0.66,-4.11 0.97,-6 0.31,-1.89 0.31,-5.91 0.44,-6.25 0.13,-0.34 -0.99,-10.53 -0.51,-13.68 0.49,-3.14 0.6,-6.51 2.93,-11.88 2.34,-5.38 4.15,-9.11 4.45,-10.99 0.31,-1.89 1.17,-2.89 1.48,-5.26 0.31,-2.37 -0.75,-12.25 0.29,-11.45zm3.67 9.34c0.56,1.66 1.98,6.07 2.19,8.82 0.26,3.44 -1.72,14.28 -1.9,16.07 -0.17,1.79 -1.52,16.54 -2.49,19.35 -0.97,2.81 -0.83,16.51 -1.36,19.03 -0.53,2.51 -4.67,8.03 -4.67,9.87 0,1.84 -0.82,4.73 1.25,7.97 2.07,3.24 4.19,6.78 5.03,9.49 0.83,2.71 2.09,12.09 1.34,13.25 -0.75,1.16 -0.97,-1.56 -1.5,-3.2 -0.53,-1.65 -3.96,-8.48 -6.34,-12.69 -2.38,-4.21 -3.73,-7.14 -3.73,-9.37 0,-2.23 0.31,-5.66 0.97,-7.5 0.66,-1.84 1.61,-2.98 1.61,-4.39 0,-1.4 0.66,-7.5 2.03,-9.97 1.36,-2.47 1.45,-2.42 1.36,-4.89 -0.09,-2.47 -1.08,-7 -0.64,-10.73 0.45,-3.72 1.59,-7.6 2.03,-9.24 0.44,-1.65 3.55,-13.59 3.95,-15.62 0.39,-2.03 1.38,-7.09 1.3,-9.56 -0.08,-2.05 -0.94,-5.32 -0.85,-6.74 0.06,-1.04 0.23,-0.51 0.42,0.05zm18.93 -0.2c0,0 -0.31,-4.67 -4.9,-7.29 -4.58,-2.61 -8.15,-4.74 -9.3,-7.02 -1.14,-2.27 -1.05,-3.24 -2.16,-4.84 -1.1,-1.6 -4.93,-6.1 -6.12,-7.7 -1.19,-1.6 -1.91,-4.76 -3.34,-6.04 -1.43,-1.28 -1.96,-1.4 -3.72,-3.44 -1.77,-2.03 -2.65,-4.16 -3.4,-4.64 -0.75,-0.49 0.66,1.84 1.5,3.63 0.84,1.79 2.2,2.47 2.95,4.16 0.75,1.7 1.15,4.07 2.52,6.29 1.36,2.23 4.84,4.75 5.95,6.88 1.1,2.13 2.4,6.71 3.37,8.06 0.97,1.36 4.45,4.31 5.6,4.65 1.14,0.34 3.87,2.08 4.62,3.39 0.75,1.31 3.15,5.5 4.7,6.76 1.54,1.25 1.89,-1.06 1.73,-2.85zm-4.08 8.43c0,0 -0.79,-5.82 -3.44,-9.01 -2.64,-3.2 -9.39,-7.6 -10.44,-9.49 -1.06,-1.89 -1.74,-2.3 -2.63,-5.45 -0.88,-3.14 -2.29,-5.03 -2.86,-5.62 -0.57,-0.58 -3.44,-3.14 -4.01,-4.64 -0.57,-1.5 -3.7,-9.41 -5.4,-10.97 -1.7,-1.56 -9.29,-6.51 -12.98,-9.32l-4.24 0c2.3,1.95 5.41,4.49 6.55,4.96 1.9,0.78 5.25,2.23 6.04,3.68 0.8,1.45 2.16,3 3.66,4.5 1.5,1.51 6.61,11.38 7.32,12.06 0.7,0.68 2.02,1.26 2.64,2.37 0.62,1.12 1.21,6.27 2.05,7.82 0.84,1.55 0.79,2.72 5.55,5.62 4.76,2.91 10.18,9.68 10.98,11.33 0.79,1.65 0.44,2.76 1.21,2.16zm-13.18 -10.61c0,0 6.3,4.99 6.92,9.49 0.41,2.98 -1.09,19.59 -2.67,22.83 -1.32,2.71 -2.77,4.7 -2.86,3.73 -0.39,-4.32 5.13,-17.1 2.36,-27.09 -0.79,-2.86 -4.32,-8.04 -3.75,-8.96zm5.95 65.35c0,0 1.32,-7.39 1.9,-10.01 0.57,-2.61 2.62,-5.01 4.65,-9.03 2.02,-4.01 2.93,-6.46 3.41,-10.38 0.49,-3.92 -0.57,-9.64 -0.17,-12.49 0.39,-2.86 1.32,-5.33 0.57,-4.99 -0.75,0.34 -2.42,5.13 -2.42,6.68 0,1.55 0.61,9.2 -0.14,11.53 -0.75,2.32 -5.2,8.18 -5.86,10.94 -0.66,2.76 -3.68,14.4 -3.68,16.39 0,1.98 0.84,3.37 1.74,1.36zm-1.73 28.14c0,0 2.87,-9.64 1.99,-12.59 -0.89,-2.95 -5.25,-4.31 -5.47,-6.97 -0.22,-2.67 1.31,-7.55 1.87,-9.61 1.91,-7.04 1.21,-18.16 2.35,-21.32 0.38,-1.33 4.58,-5.93 5.86,-11.07 1.28,-5.13 5.27,-19.63 5.45,-21.37 0.17,-1.75 -0.67,-1.36 -1.28,0.19 -0.62,1.55 -9.74,26.05 -10.93,27.89 -1.19,1.84 -2.19,3.85 -2.49,6.17 -0.31,2.33 0.04,9.78 -0.05,11.29 -0.09,1.5 -4.56,13.72 -4.69,16.72 -0.13,3.01 1.03,5.02 1.87,6.42 0.84,1.4 2.91,2.08 3.57,4.75 0.66,2.66 0.66,11.37 1.95,9.5zm7.87 -3.66c0,0 2.25,-10.36 1.32,-12.78 -0.92,-2.42 -2.51,-1.65 -2.03,-4.5 0.49,-2.86 4.17,-7 4.3,-10 0.13,-3 -0.48,-3.34 0.05,-4.94 0.52,-1.6 6.19,-12.71 7.07,-17.8 0.88,-5.08 0.29,-8.35 0.15,-11.5 -0.13,-3.14 -0.83,-7.65 -0.35,-8.9 0.49,-1.26 5.05,-7.92 5.84,-9.66 0.79,-1.75 1.72,-4.27 1.01,-4.94 -0.7,-0.68 -2.95,5.86 -4.18,6.97 -1.24,1.11 -3.97,6.24 -4.41,6.88 -0.44,0.64 -0.22,1.19 -0.95,1.1 -0.72,-0.1 -0.24,-4.83 0.82,-6.43 1.06,-1.6 3.39,-3.63 4.01,-5.42 0.62,-1.8 0.62,-2.62 1.45,-3.39 0.84,-0.78 2.12,-1.46 1.33,-2.04 -0.8,-0.58 -5.73,1.46 -6.84,4.02 -1.1,2.57 -3.17,10.85 -3.04,12.54 0.13,1.7 1.02,9.25 1.02,11.04 0,1.79 -1,12.61 -1.79,15.23 -0.79,2.61 -4.36,6.58 -4.98,8.52 -0.61,1.94 -0.55,6.9 -0.59,8.4 -0.05,1.5 -3.93,10.41 -3.93,11.87 0,1.45 3.33,4.38 3.38,6.85 0.04,2.47 0.26,10.75 1.34,8.88zm14.73 -54.68c0,0 3.75,4.99 4.72,7.51 0.97,2.52 1.85,5.91 0.88,8.23 -0.97,2.32 -3.53,7.46 -3.66,8.67 -0.13,1.21 -0.9,14.16 -2.23,16 -1.32,1.84 -5.79,5.35 -6.45,7.63 -0.66,2.27 -1.26,7.14 -0.68,9.7 0.57,2.57 1.49,3.88 0.7,6.3 -0.79,2.42 -1.43,8.69 -1.7,9.71 -0.26,1.01 -0.86,3.99 -1.12,0.94 -0.27,-3.05 0.83,-10.18 0.84,-11.38 0.01,-1.2 -0.53,-4.06 -0.36,-6.24 0.18,-2.18 0.36,-11.14 0.36,-12.5 0,-1.35 0.14,-5.65 0.62,-7 0.49,-1.36 2.52,-3.9 2.96,-7.63 0.44,-3.73 -0.44,-9.97 -0.09,-11.62 0.35,-1.65 2.67,-5.98 3.59,-6.42 0.93,-0.43 0,2.57 -0.13,4.26 -0.13,1.7 -0.4,11.34 -0.49,13.71 -0.08,2.37 -3.37,7.72 -4.34,10.43 -2.12,5.95 4.43,-0.89 5.47,-4.55 0.95,-3.35 1.23,-11.19 1.54,-12.44 0.31,-1.26 2.51,-4.12 2.78,-5.09 0.26,-0.97 0.24,-6.17 -0.11,-8.16 -0.36,-1.98 -3.44,-7.26 -3.75,-8.32 -0.31,-1.07 -0.31,-2.76 0.65,-1.74zm16.53 8.33c0,0 -4.14,-3.73 -4.45,-5.28 -0.31,-1.54 -0.53,-4.45 -1.37,-5.81 -0.84,-1.35 -4.45,-4.74 -4.8,-5.85 -0.36,-1.12 -2.16,-10.9 -4.01,-13.8 -1.86,-2.91 -0.58,7.45 0.13,9.49 0.7,2.03 2.64,4.26 3.08,6 0.44,1.74 3.79,7.55 4.37,8.91 0.57,1.36 4.16,7.19 5.57,8.01 1.41,0.83 2.03,-0.48 1.48,-1.67zm3.74 -10.94c0,0 -3.52,-5.71 -4.31,-10.41 -0.8,-4.7 -1.46,-10.8 -3.05,-14.09 -1.58,-3.29 -4.23,-6.54 -4.23,-5.18 0,1.35 -0.3,6.97 0.36,8.42 0.66,1.46 2.64,2.09 3.48,5.23 0.83,3.15 0.92,7.07 1.76,8.82 0.84,1.74 3.92,6.43 4.5,7.21 0.57,0.77 2.02,1.16 1.49,0zm-0.29 73.63c0,0 -2.4,-1.33 -2.87,-3.34 -0.46,-2.01 0,-2.76 -0.48,-4.33 -0.49,-1.58 -2.26,-3.5 -2.77,-5.51 -0.51,-2.01 -0.39,-4.77 -0.75,-5.66 -0.35,-0.9 -4.42,-8.56 -4.81,-10.01 -0.4,-1.45 -0.19,-4.96 -0.19,-5.42 0,-0.46 -0.35,-8.66 0.09,-9.97 0.44,-1.31 1.28,-2.13 1.54,-3.05 0.27,-0.92 -0.31,-5.04 0.18,-5.67 0.48,-0.62 1.45,-1.69 1.45,-3 0,-1.31 0.2,-2.1 -1.61,-4.23 -1.8,-2.14 -2.73,-3.93 -3.21,-4.99 -0.49,-1.07 -3.53,-3.39 -4.15,-5.86 -0.62,-2.47 -2.31,-8.79 -2.88,-10.29 -0.58,-1.5 -1.94,-4.36 -1.02,-3.53 0.93,0.82 3.09,4.11 4.06,7.07 0.97,2.95 2.51,4.26 3.3,6.19 0.8,1.94 2.08,4.94 3.35,6.68 1.28,1.75 3.79,4.17 4.19,5.19 0.4,1.01 0.86,2.54 0.2,3.75 -0.66,1.21 -2.51,7.99 -2.51,9.92 0,1.94 0.37,7.1 -0.2,9.47 -0.58,2.37 -1.46,3.49 -1.46,6.3 0,2.8 2.38,6.58 3.22,8.23 0.84,1.64 1.87,3.26 1.87,5.01 0,1.74 0.93,4.11 1.55,5.37 0.61,1.26 1.76,2.04 2.38,4.26 0.61,2.23 3.35,8.33 1.53,7.42zm11.49 13.53c0,0 -5.95,-3.15 -7.54,-3.15 -1.58,0 -3.48,-0.44 -4.23,-1.99 -0.75,-1.55 -4.27,-5.66 -5.42,-6.78 -3.6,-3.5 -5.43,-8.09 -3.94,-13.48 1.9,-6.88 0.34,-7.16 -3.74,-13.47 -1.23,-1.92 -2.67,-3.67 -2.84,-6.28 -0.25,-3.85 0.04,-7.9 0.04,-11.37 0,-1.65 -0.11,-3.22 0.86,-4.68 0.97,-1.45 2.34,-8.66 2.91,-8.71 0.57,-0.05 1.59,4.31 0.13,6.58 -1.45,2.28 -1.72,8.96 -1.72,10.22 0,1.26 0.35,5.41 0.35,7.64 0,2.23 0.44,3.41 0.83,4.11 0.4,0.71 4.07,7.33 4.53,8.37 0.46,1.04 0.87,1.85 0.87,4.15 0,2.3 0,3.12 0.22,4.21 0.22,1.09 1.31,3.26 1.78,6.26 0.46,3 1.49,5.26 2.82,5.84 1.32,0.58 4.29,0.7 5.57,0.94 1.28,0.24 3.56,0.55 4.75,3.06 1.19,2.52 5.56,8.26 3.77,8.53zm-3.66 8.61c-1.98,-0.32 -4.89,-1.3 -8.2,-3.87 -3.3,-2.57 -9.85,-8.35 -11.83,-10.63 -1.98,-2.27 -2.73,-4.94 -2.82,-6.29 -0.09,-1.36 0.64,-8.4 0.73,-9.71 0.08,-1.31 -0.07,-8.4 -0.42,-10.05 -0.36,-1.64 -1.94,-6.05 -2.12,-6.97 -0.17,-0.92 0.18,-1.6 1.1,-0.05 0.93,1.55 3.18,5.62 3.27,9.44 0.08,3.83 -0.58,11.43 -0.62,13.32 -0.05,1.89 -0.35,2.32 0.53,3.58 0.88,1.26 2.77,2.52 3.44,3.63 0.66,1.12 5,7 6.8,8.02 1.81,1.01 5.16,2.13 7.63,2.66 2.47,0.53 4.94,0.29 6.7,3 2.32,3.58 1.18,7.16 0.96,7.91 -0.49,1.67 -3.17,-3.66 -5.15,-3.99zm-57.23 24.8c-2.34,-1.87 -3.96,-3.18 -5.49,-7.22 -1.14,-3.03 -4.89,-6.44 -5.77,-7.84 -0.88,-1.41 -4.19,-6.35 -4.36,-7.9 -0.18,-1.55 0.11,-5.93 -0.51,-7.57 -0.62,-1.65 -3,-5.91 -3.79,-7.27 -0.79,-1.35 -1.98,-4.02 -2.42,-5.66 -0.45,-1.65 0.19,-3.37 -3.38,-9.81 -3.57,-6.44 -2.38,-7.26 -6.12,-12 -3.75,-4.75 -5.62,-9.04 -5.75,-11.46 -0.14,-2.42 -0.71,-3.48 -0.89,-5.27 -0.17,-1.8 0.91,-4.1 1.79,-6.13 0.88,-2.04 1.94,-3.25 1.72,-5.42 -0.22,-2.18 1.41,-8.14 1.76,-8.62 0.35,-0.49 2.8,-4.29 4.56,-6.42 1.77,-2.13 5.58,-9.9 6.46,-13.34 0.88,-3.43 2.82,-9.53 3,-11.86 0.17,-2.32 -4.32,4.07 -5.95,6.63 -1.63,2.57 -3.75,8.58 -4.85,11.72 -1.1,3.15 -6.48,9.25 -7.67,10.32 -1.19,1.06 -1.5,2.9 -1.63,4.06 -0.13,1.16 -0.77,8.02 -2.09,11.26 -1.33,3.24 -1.82,8.55 -1.59,9.54 1.75,7.54 8.13,13.52 9.72,17.7 1.32,3.48 5.02,8.86 5.59,10.89 0.58,2.03 1.13,8.45 1.92,11.69 0.8,3.25 2.95,7.7 4.15,9.45 6.94,10.17 2.69,13.54 16.8,30.53l4.79 0zm13.2 0c-3.51,-3.64 -11.7,-8.14 -12.45,-10.95 -0.75,-2.81 -1.06,-9.01 -3.13,-11.86 -2.07,-2.86 -5.09,-3.95 -5.49,-7.53 -0.39,-3.58 0.05,-10.02 -0.83,-12.78 -0.89,-2.76 -4.17,-6.76 -5.05,-7.97 -0.88,-1.21 -1.15,-2.08 -1.19,-4.11 -0.04,-2.04 -3.2,-7.58 -3.2,-7.58 0,0 -3.21,-5.76 -3.17,-9.64 0.05,-3.87 1.01,-4.55 1.1,-5.23 0.09,-0.67 3.62,-6.39 3.35,-13.17 -0.26,-6.78 -1.14,-5.81 -0.53,-8.33 0.62,-2.51 2.36,-2.92 2.27,-11.25 -0.08,-8.33 1.33,-17.92 2.3,-20.73 0.96,-2.81 4.18,-5.47 5.5,-11.67 1.33,-6.19 2.3,-10.84 2.21,-15.59 -0.09,-4.74 -0.97,-8.23 -2.56,-10.36 -1.58,-2.13 -1.5,-1.55 -2.38,-3.19 -0.88,-1.65 -3.92,-7.12 -4.8,-8.57 -0.88,-1.46 -4.32,-5.62 -7.67,-8.04 -3.35,-2.42 -9.52,-5.03 -10.24,-5.89 -0.72,-0.86 -1.29,-1.7 -2.1,-2.56l-4.74 0c0.54,0.58 0.39,0.58 1.34,1.19 0.95,0.62 6.31,5.52 8.78,6.1 2.46,0.58 4.4,1.55 7.22,3.68 2.83,2.13 5.03,5.71 6.26,7.45 1.24,1.75 3.07,4.87 3.64,5.98 0.57,1.12 0.31,1.12 -1.28,-0.05 -1.59,-1.16 -3.53,-4.02 -6.96,-6.29 -3.44,-2.28 -4.68,-3.15 -8.02,-4.7 -3.35,-1.55 -5.69,-2.08 -7.59,-4.11 -0.6,-0.65 -1.61,-1.83 -2.65,-3.17 -1.67,-2.13 -2.74,-4.38 -3.78,-6.08l-2.59 0c1.32,2.39 3.07,5.65 5.75,8.65 2.68,3.01 9.54,6.13 9.54,6.13 0,0 5.7,2.17 7.46,3.81 1.77,1.65 5.56,6.35 6.7,7.17 1.15,0.82 3.84,1.5 4.81,2.37 0.97,0.87 1.94,2.37 1.98,5.67 0.05,3.29 0.42,3.95 -0.29,6.27 -0.7,2.31 -7.22,7.26 -8.81,7.84 -1.59,0.58 -4.06,2.57 -5.29,4.7 -1.23,2.13 -5.53,15.27 -6.06,16.73 -0.53,1.45 -8.04,13.48 -7.34,14.89 0.71,1.4 4.72,-7.41 6.66,-10.12 1.94,-2.72 4.84,-5.62 5.86,-8.14 1.01,-2.52 3.94,-12.37 5.22,-13.14 1.28,-0.78 4.98,-2.96 6.57,-4.41 1.59,-1.45 2.91,-4.7 3.66,-3.73 0.75,0.97 -1.28,5.96 -2.65,8.04 -1.36,2.08 -4.41,6.78 -4.54,8.66 -0.13,1.89 0.18,8.38 0.18,8.38 0,0 -1.74,17.07 -3.42,21.52 -1.67,4.46 -1.87,8.7 -2.05,12.04 -0.17,3.34 -2.73,9.63 -3.21,11.67 -0.49,2.03 -1.66,5.98 -1.3,9.36 0.35,3.39 4.54,10.17 4.98,11.19 0.44,1.02 2.51,4.65 2.86,5.86 0.35,1.21 0.29,3.46 1.79,7.92 1.49,4.45 3.83,11.37 4.58,12.63 0.75,1.26 3.02,6.76 3.42,11.99 0.39,5.23 2.1,9.42 2.46,10.46 0.37,1.03 9.94,9.02 12.07,12.59l6.84 0zm-6.87 -13.3c0.83,-0.43 -2.43,-7.84 -3.84,-11.62 -1.41,-3.77 -4.23,-4.94 -4.41,-7.55 -0.17,-2.62 0.62,-9.49 -0.17,-11.62 -0.8,-2.13 -2.25,-5.76 -5.07,-9.73 -2.82,-3.97 -4.06,-4.65 -4.76,-7.27 -0.71,-2.61 -2.91,-8.52 -4.76,-9.29 -1.85,-0.78 0.71,1.74 1.76,6.29 1.06,4.55 2.47,7.94 3.7,9.98 1.24,2.03 4.32,5.42 5.73,10.84 1.41,5.42 0.53,10.56 1.15,12.59 0.62,2.03 4.85,5.91 5.99,9.49 0.64,1.99 3.84,8.33 4.68,7.89zm4.56 -13.38c-0.62,-1.8 -4.06,-5.14 -3.93,-7.27 0.14,-2.13 1.77,-2.81 1.94,-4.89 0.18,-2.08 0.55,-6.17 1.22,-8.54 0.66,-2.38 2.24,-2.86 2.69,-7.02 0.44,-4.17 -0.05,-10.03 -0.75,-10.46 -0.71,-0.44 -1.5,8.18 -3.22,11.71 -1.72,3.54 -5.47,10.46 -5.47,14.58 0,4.11 3.18,8.86 3.53,10.26 0.35,1.41 1.04,13.39 1.52,15.18 0.48,1.79 2.51,6.57 3.13,7.41 3.27,4.44 -0.2,-7.67 -0.32,-8.2 -0.75,-3.22 0.41,-10.59 -0.34,-12.76zm7.91 19.44c-4.17,-6.65 -0.17,-11.97 -3.46,-19.44 -1.28,-2.91 -2.38,-3.39 -2.38,-2.57 0,0.82 0.79,18.01 1.37,19.32 2.26,5.17 8.58,9.24 4.47,2.69zm11.45 7.24c-1.55,-2.59 -3.78,-6.52 -5.26,-8.72 -6.56,-9.74 -2.03,-6.34 -3.74,-15.98 -0.71,-3.97 -5.21,-8.04 -5.12,-9.97 0.09,-1.94 0.69,-4.19 0.77,-7.39 0.09,-3.19 -0.04,-3.97 0.53,-6.05 0.58,-2.08 1.81,-4.16 1.81,-6.34 0,-2.18 -0.82,-3.85 -0.86,-6.23 -0.04,-2.37 0,-8.76 0.31,-9.78 0.31,-1.01 -0.27,-0.77 -1.06,0.44 -0.79,1.21 -1.01,10.65 -1.06,12.73 -0.04,2.09 -2.91,9.64 -2.99,11.67 -0.09,2.04 -0.42,11.55 -0.07,13.15 0.35,1.6 3,4.26 3.66,5.81 3.64,8.55 -0.49,14.45 9.37,26.66l3.71 0zm12.79 0c-0.71,-0.89 -10.99,-10.05 -11.68,-10.49 -2.51,-1.6 -6.74,-3.87 -6.83,-3.29 -0.09,0.58 6.38,5.82 7.49,8.04 1.11,2.22 2.43,3.87 3.72,5.74l7.3 0zm15.41 0c-0.89,-1.52 -2.87,-3.39 -4.22,-4.6 -1.54,-1.39 -3.59,-2.59 -8.1,-4.44 -2.38,-0.96 -12.64,-8.49 -13.93,-11.04 -1.1,-2.17 -1.54,-1.3 -0.84,0.59 0.71,1.88 9.22,10.22 10.58,12.05 1.36,1.84 10.91,5.23 12.53,7.44l3.98 0zm-17.01 -21.67c-3.19,-2.17 -2.73,-3.7 -6.38,-5.66 -1.81,-0.97 -2.4,-0.86 -2.05,0.26 0.79,2.47 8.02,8.28 10.4,10.66 1.9,1.89 -0.48,-4.17 -1.97,-5.26zm27.38 21.67c-4.86,-4.63 -13.61,-8.34 -16.79,-12.57 -1.16,-1.55 -2.32,-3.33 -3.47,-4.43 -1.09,-1.05 -1.57,-0.66 -0.68,0.78 1.78,2.92 4.26,7.81 6.4,9.85 2.46,2.34 6.14,3.32 9.74,6.37l4.8 0zm5.07 0c-0.92,-2.82 -6.06,-7.93 -9.03,-10.44 -2.98,-2.51 -11.68,-8.33 -13.27,-10.56 -1.59,-2.22 -10.6,-8.47 -11.97,-10.26 -1.36,-1.79 -1.01,-3.75 -4.67,-5.79 -3.66,-2.03 -2.11,0.11 -1.32,1.56 0.8,1.46 4.76,6.72 7.98,9.24 3.21,2.52 4.1,1.21 6.61,4.89 2.51,3.68 7.4,9.98 8.42,10.8 0.47,0.38 13.82,10.47 13.83,10.56l3.42 0zm-20.42 -59.87c0,0 -0.57,-8.52 0.23,-12.53 0.79,-4.02 5.39,-19.78 6.01,-21.72 0.62,-1.94 0.44,-2.52 0.75,-4.5 0.31,-1.99 2.05,-7.44 1.83,-10.63 -0.22,-3.2 -3.97,-8.72 -4.67,-10.27 -0.71,-1.55 -2.89,-5.3 -5.4,-11.74 -2.51,-6.44 -5.84,-14.55 -6.72,-17.02 -0.88,-2.47 -0.84,-3.63 -1.99,-5.42 -1.14,-1.79 -9.54,-11.11 -11.83,-13.58 -2.29,-2.47 -5.73,-7.56 -8.77,-9.4 -3.04,-1.84 -8.22,-5.78 -11.97,-10.43 -3.18,-3.96 -5.19,-7.7 -5.89,-9 -0.34,-0.61 -0.6,-0.99 -0.67,0.19 -0.05,0.92 0.02,2.56 0.26,4.45 0.32,2.54 1.68,10.31 2.64,12.4 0.97,2.08 3.88,6.19 6.13,7.5 2.25,1.31 7.3,6.71 9.98,8.6 0.59,0.41 7.85,6.46 3.64,5.62 -0.78,-0.15 -4.54,-2.14 -7.16,-3.54 -6.33,-3.39 -13.24,-11.64 -15.12,-15.2 -0.97,-1.84 -2.52,-14.47 -2.75,-16.15 -0.24,-1.69 -0.64,-3.43 -2,-4.76l-4.79 0c1.21,1.4 2.44,5.01 2.55,6.4 0.12,1.4 -3.6,-3.08 -6.03,-6.4l-6.66 0c2.16,2.4 6.61,6.07 8.37,8.53 1.77,2.47 5.29,5.43 7.98,10.46 2.69,5.04 4.01,8.43 5.47,9.98 1.45,1.55 2.97,3.22 5.44,5.59 2.47,2.37 4.94,4.41 8.38,6.63 3.43,2.23 8.94,2.18 10.88,3.73 1.94,1.55 2.43,2.37 2.69,4.21 0.26,1.84 0.46,10.24 2.18,15.13 1.72,4.89 4.45,9.4 5.2,10.51 0.75,1.11 4.87,4.72 5.93,7.48 1.06,2.76 0.97,6.2 -0.13,8.72 -1.1,2.52 -2.69,5.81 -2.69,7.65 0,1.84 -1.61,11.11 -1.61,14.4 0,3.3 -1.45,7.41 -1.23,9.64 0.22,2.23 2.18,4.31 2.93,5.13 0.75,0.82 2.29,-0.17 1.81,-3.9 -0.49,-3.73 -1.64,-9.92 -1.55,-12.68 0.09,-2.76 0.69,-7.29 1.04,-8.45 0.35,-1.16 1.58,-2.18 1.89,-4.55 0.31,-2.38 0.18,-3.2 0.88,-5.14 0.71,-1.93 2.3,-4.6 2.3,-7.79 0,-3.2 -4.26,-7.34 -4.26,-7.34 0,0 -5.95,-8.18 -6.21,-10.12 -0.27,-1.93 -0.53,-4.21 -1.1,-5.61 -0.58,-1.41 -2.32,-3.18 -2.58,-5.5 -0.27,-2.32 -0.88,-10.51 -1.54,-12.5 -0.67,-1.98 -4.08,-4.37 -5.23,-6.94 -1.14,-2.57 -8.37,-9.82 -9.83,-10.7 -13.66,-8.27 -13.29,-17.35 -13.06,-16.97 0.88,1.45 3.04,3.73 4.01,6.2 0.97,2.47 2.86,4.64 5.99,6.68 3.13,2.03 4.14,2.08 6.13,3.68 1.98,1.6 9.01,11.06 10.91,12.42 1.89,1.35 3.92,2.22 5.24,4.36 1.32,2.13 1.35,0.65 3.59,5.73 2.25,5.09 9.74,25.81 10.27,27.55 0.53,1.75 3.99,5.35 4.96,10.92 0.97,5.57 -1.5,12.69 -1.81,14.67 -0.3,1.99 -3.99,14.89 -4.87,16.59 -0.88,1.69 -2.68,5.37 -2.55,7.55 0.13,2.18 3.95,14.83 4.18,11.18zm21.52 -104.69c0,0 4.76,3.92 4.94,5.23 0.18,1.31 0.48,3.53 -1.94,6.68 -2.42,3.15 -5.82,8.33 -7.1,11.09 -1.27,2.76 -3.48,8.09 -3.65,9.1 -0.18,1.02 -0.64,8.69 -1.04,9.52 -0.4,0.82 -1.01,-1.21 -0.88,-2.96 0.13,-1.74 -0.04,-6.73 1.06,-9.54 1.1,-2.8 1.76,-5.71 3.7,-8.71 1.94,-3 4.25,-6.22 5.97,-8.11 1.72,-1.89 2.38,-2.57 2.34,-4.75 -0.05,-2.17 -0.97,-2.56 -1.19,-2.47 -0.22,0.1 -0.13,2.57 -2.34,4.51 -2.2,1.93 -5.55,7.26 -7.98,10.89 -5.84,8.76 -3.78,16.66 -3.78,27.3 0,1.98 -0.39,4.02 -1.23,2.18 -0.84,-1.84 -1.85,-9.83 -1.89,-13.17 -0.09,-6.75 2.05,-11.87 5.26,-17.51 1.32,-2.32 3.57,-6.19 5.16,-7.79 1.59,-1.6 4.52,-4.29 4.56,-6.13 0.04,-1.84 -1.41,-5.23 0.03,-5.36zm6.61 13.46c0,0 0.22,6.59 -1.98,10.36 -2.2,3.78 -4.89,8.52 -5.46,10.51 -0.58,1.99 -6.68,19.59 -7.25,20.55 -0.58,0.97 -1.02,-1.06 -0.8,-2.47 0.22,-1.4 1.63,-10.26 2.25,-14.91 0.62,-4.65 0.75,-6.2 1.45,-8.23 0.71,-2.03 1.45,-4.64 2.77,-7.2 1.32,-2.57 4.23,-5.18 5.02,-6.2 0.8,-1.02 1.57,-2.42 1.59,-1.67 0.02,0.75 -3.15,6.51 -3.68,7.65 -0.53,1.14 -1.63,4.99 -2.25,6.17 -0.61,1.19 -2,3.3 -1.87,4.07 0.13,0.78 2.18,-1.23 3.22,-3.37 1.03,-2.13 3.02,-6.31 3.85,-7.84 0.84,-1.52 2.44,-8.31 3.14,-7.42zm-32.37 -33.86c0,0 0.22,2.83 0.88,4.91 0.66,2.08 2.38,6.39 3.13,8.76 0.75,2.38 0.77,5.74 -0.37,9.03 -1.15,3.3 -2.43,7.75 -2.69,8.86 -0.26,1.12 -0.24,7.39 0.9,11.36 1.15,3.97 2.38,7.12 2.78,8.47 0.4,1.36 1.55,3.06 1.73,4.42 0.18,1.36 1.17,6.44 1.78,6.95 0.62,0.51 0.8,-10.32 0.91,-12.01 0.11,-1.69 2.1,-6.38 3.01,-8.29 2.81,-5.95 9.81,-12.9 10.97,-16.92 0.57,-1.99 0.55,-6.71 0.02,-9.81 -0.53,-3.1 -3.29,-5.99 -3.29,-5.51 0,0.49 0.91,1.78 1.18,6.33 0.26,4.56 0.26,8.14 -0.36,9.15 -1.74,2.89 -9.54,12.11 -10.18,14.29 -0.39,1.35 -2.31,7.72 -2.8,8.45 -0.48,0.72 -1.41,0.87 -1.8,-1.31 -0.4,-2.18 -0.66,-6.29 -1.5,-7.99 -0.84,-1.69 -0.75,-4.84 -0.66,-7.02 0.09,-2.18 3.02,-10.87 3.46,-15.47 0.44,-4.6 -1.55,-7.94 -1.72,-8.81 -0.18,-0.87 -3.15,-4.77 -3.24,-6.66 -0.09,-1.89 -2.29,-3.48 -2.14,-1.18zm-6.19 -12.04c1.14,1.16 3.11,1.26 3.95,1.38 3.36,0.48 4.79,-0.44 7.4,5.11 2.11,4.5 6.34,14.38 6.79,15.93 0.44,1.55 0.22,6.05 -0.4,7.46 -0.62,1.4 -2.4,9.61 -3.02,13.19 -0.62,3.58 -1.45,7.7 -1.59,8.62 -0.13,0.92 -0.83,0.97 -0.66,-1.5 0.18,-2.47 0.36,-12.78 1.15,-15.64 0.79,-2.86 1.32,-6.83 1.76,-9.06 0.44,-2.22 -3.66,-11.76 -3.66,-11.76 0,0 -2.88,-7.82 -4.65,-8.01 -1.76,-0.2 -9.85,-1.46 -11.57,-2.91 -1.72,-1.46 -2.14,-1.96 -2.8,-2.81l7.3 0zm15.41 0c1.35,2.35 5.28,11.87 6.52,14.09 2.8,5.02 4.96,19.84 1.12,24.72 -0.84,1.07 -6.08,8.18 -7.05,10.22 -0.97,2.03 -1.72,4.06 -1.72,3.34 0,-0.73 1.72,-8.91 3.26,-12.01 1.54,-3.1 2.51,-3.63 3.88,-8.38 1.37,-4.74 -3.17,-16.41 -3.17,-16.41 -1.56,-3.57 -5,-12.95 -6.82,-15.57l3.98 0zm32.03 8.23c-1.53,-1.76 -6.37,-3.91 -8.06,-4.84 -1.7,-0.93 -3.63,-2.25 -5.3,-3.39l5.7 0c0.75,0.54 0.87,0.8 2.82,1.94 1.94,1.14 3.5,-0.03 4.84,0.44l0 5.85zm-6.56 0.1c-1.46,-0.63 -4.85,-3.92 -5.07,-4.74 -0.22,-0.83 1.23,0.55 2.42,1.37 1.19,0.83 3.71,1.99 4.72,2.19 2.13,0.4 8.77,5.87 -2.07,1.18zm-3.86 2.35c-1.45,-0.68 -4.87,-4 -6.9,-6.56 -0.88,-1.12 -1.59,-2.82 -2.69,-4.12l3.42 0c0.78,1.47 1.82,3.47 3.77,5.62 0.74,0.81 20.61,13.54 2.4,5.06zm10.42 7.15c-1.48,-0.38 -4.53,-0.91 -7.88,-1.25 -3.34,-0.34 -9.05,-5.69 -11.68,-8.38 -2.62,-2.68 -5.46,-7.14 -6.9,-8.2l4.8 0c0.96,1.15 1.8,3.46 3.05,5.35 1.05,1.59 2.24,3.13 3.5,4.31 4.32,4.01 5.42,4.45 7.36,4.98 0.84,0.23 6.11,0.09 7.75,0.44l0 2.75zm-4.75 2.58c-1.89,-1.46 -4.19,-1.94 -3.97,-2.38 0.22,-0.43 4.3,0.44 6,1.41 2.3,1.31 4.18,5.72 -2.03,0.97zm4.75 10.79c-0.91,-0.63 -5.32,-2.09 -7.64,-4.19 -2.31,-2.09 -3.96,-5.18 -6.74,-5.9 -2.78,-0.73 -8.66,-7.82 -9.85,-10.34 -1.19,-2.52 -4.73,-8.69 -4.86,-9.66 -0.24,-1.71 1.64,-0.38 2.08,0.14 0.18,0.22 0.38,0.47 0.58,0.76 1.93,2.76 6.17,11.18 10,14.13 3.84,2.96 7.89,3.73 8.99,4.94 2.89,3.18 6.39,3.2 7.44,4.34l0 5.78zm0 14.11c-1.16,-1.09 -1.46,-3.3 -1.5,-4.41 -0.04,-1.09 0.11,-0.96 -0.4,-1.96 -0.77,-1.52 -2.33,-3.91 -2.41,-4.54 -0.1,-0.79 2.86,0.17 4.31,1.65l0 9.26zm0 80.64c-1.89,0.48 -7.07,-7.8 -7.03,-10.75 0.04,-2.95 2.07,-5.76 2.47,-7.31 1.04,-4.09 1.27,-23.6 4.56,-23.43l0 20.57c-4.14,4.32 -4.4,12.56 -3.9,13.43 3.26,5.62 0.58,-4.44 3.9,-8.12l0 15.61zm-3.83 5.54c-0.41,-3.14 -2.96,-5.13 -3.88,-6.78 -2.11,-3.74 -7.71,-13.19 -6.42,-16.97 0.4,-1.16 2.34,-7.07 2.34,-9.59 0,-4.47 3.36,-11.06 5.54,-18.03 1.24,-3.97 1.47,-10.42 2.05,-10.77 0.54,-0.33 0.63,10.2 -0.2,12.66 -3.11,9.12 -4.04,9.3 -3.4,19.12 0.29,4.53 -4.22,2.65 -2.01,12.62 1.76,7.89 5.46,9.46 7.19,14.47 1.66,4.82 -0.81,6.41 -1.21,3.27zm3.83 18.85c-0.83,-0.67 -3.27,-3.62 -3.77,-5.8 -0.5,-2.18 0.44,-5.23 -0.48,-6.34 -0.93,-1.12 -4.04,-1.89 -5.01,-3.78 -0.97,-1.88 -6.47,-12.82 -7.18,-15.09 -0.71,-2.28 -0.31,-3.17 0.18,-2.93 0.48,0.24 0.39,-0.79 2.86,4.49 2.47,5.27 5.57,11.5 6.81,12.61 1.23,1.12 1.32,0.53 2.86,1.69 1.09,0.82 1.07,4.35 3.73,6.98l0 8.17zm0 17.33c-4.09,-0.71 -7.14,-9.29 -7.14,-12.11 0,-2.28 -0.71,-13.8 -1.81,-15.98 -1.1,-2.18 -3.3,-2.66 -3.92,-4.6 -0.62,-1.94 -8.35,-14.36 -8.79,-17.12 -0.44,-2.76 -0.44,-4.89 0.35,-6.68 0.79,-1.79 1.52,-3.22 1.96,-6.03 0.44,-2.81 -0.66,-5.08 0.18,-7.36 0.83,-2.27 1.14,-3.78 0.97,-5.03 -1.17,-8.37 0.14,-10.07 2.44,-17.17 0.66,-2.03 1.81,-4.89 2.47,-6.34 0.66,-1.45 5,-10.87 5.62,-15.57 0.62,-4.7 1.33,-10.06 -0.68,-15.08 -2.01,-5.02 -8.6,-10.36 -9.65,-12.83 -1.06,-2.47 -1.59,-3.78 -0.53,-3.34 1.05,0.43 7.62,3.34 9.3,5.95 0.29,0.46 5.29,8.26 5.68,10.7 0.36,2.23 0.09,3.2 -0.4,6.01 -0.48,2.81 -0.92,3.97 -1.36,5.61 -0.44,1.65 -0.97,1.94 -0.44,2.38 0.53,0.43 2.08,-5.07 5.75,-5.18l0 9.68c-3.2,2.76 -5.6,3.93 -5.97,5.88 -0.37,1.94 -0.16,1.36 -1.04,3.59 -0.88,2.22 -3.3,3.67 -3.39,5.32 -0.09,1.65 0.04,4.12 -0.62,5.76 -0.66,1.65 -3.9,3.66 -4.3,5.3 -0.39,1.65 -0.33,10.78 -0.33,13.68 0,2.91 0.66,5.23 -0.13,7.22 -1.96,4.89 -5.34,8.49 -3.24,14.5 0.66,1.89 5.49,10.05 6.28,11.89 0.8,1.84 0.58,2.56 2.29,4.6 1.72,2.03 2.78,1.74 3.44,3.05 2.96,5.84 1.19,20.55 7.01,19.63l0 9.67zm0 19.79c-1.51,-1.46 -4.42,-5.54 -5.53,-8.54 -1.12,-3 -1.81,-9.06 -2.51,-11.52 -0.71,-2.47 -3.29,-8.74 -4.79,-10.25 -1.49,-1.5 -4.89,-6.24 -5.37,-8.66 -0.49,-2.42 0.37,-4.09 -0.77,-7.77 -1.15,-3.68 -3.35,-3.78 -4.24,-5.81 -0.88,-2.04 -0.44,-3.88 -1.63,-5.57 -1.19,-1.7 -5.35,-5.45 -5.84,-11.31 -0.48,-5.86 -0.19,-10.29 1,-13.19 1.19,-2.91 2.2,-5.33 2.51,-6.93 0.31,-1.6 0.17,-6.63 2.11,-6.92 1.94,-0.29 0.97,8.71 0.49,9.88 -0.49,1.16 -4.01,10.16 -3.79,13.46 0.22,3.29 3.08,6.92 4.19,8.57 1.1,1.64 8.56,13.83 9.2,15.58 0.63,1.74 0.14,4.49 0.71,6.04 0.57,1.55 2.95,4.6 3.42,5.81 0.46,1.21 1.01,4.5 1.8,7.81 1.35,5.64 2.11,4.72 3.54,9.17 0.51,1.58 0.42,2.19 1.48,3.45 0.9,1.07 2.43,2.36 4.02,1.54l0 6.29c-1.6,0.63 -1.55,2.33 -1.52,2.58 0.1,1 0.49,1.72 1.52,2.42l0 3.87zm-9.42 0.86c-0.86,-1.69 -2.34,-3.87 -3.66,-5.73 -1.32,-1.87 -3.54,-3.5 -4.44,-6.84 -0.9,-3.34 -0.48,-4.6 -1.23,-6.49 -0.75,-1.89 -2.27,-10.34 -6.24,-16.54 -3.97,-6.19 -12.09,-13.88 -15.79,-16.98 -3.7,-3.1 -4.14,-2.28 -3.57,-0.97 0.57,1.31 3.79,5.91 4.67,7.6 0.88,1.7 2.12,2.96 3.44,4.36 1.32,1.41 1.19,1.46 2.6,3.1 1.41,1.65 2.64,2.86 4.01,5.47 1.37,2.62 3.25,7.88 3.52,10.45 0.26,2.57 0,4.94 1.19,9.3 1.19,4.35 2.62,5.01 3.76,8.15 1.15,3.15 2.97,6.02 3.93,7.56 0.95,1.54 1.78,4.58 3.87,6.24l5.7 0c-1.73,-1.05 -3.63,-3.27 -4.46,-4.06 -0.83,-0.8 -4.1,-4.12 -5.11,-6.44 -1.02,-2.33 -1.55,-4.75 -2.43,-6.98 -0.88,-2.22 -2.33,-4.69 -1.67,-5.18 0.66,-0.48 3.08,3.83 3.79,6.15 0.7,2.33 2.47,4.75 3.96,6.44 1.77,2 6.14,8 7.11,8.38 0.52,0.21 1.25,1.29 -2.95,-6.99zm3.8 -3.3c-1.5,-3.54 -2.51,-6.59 -3.57,-10.8 -1.06,-4.21 -1.48,-9.17 -4.08,-11.98 -2.6,-2.81 -5.64,-6.3 -6.74,-8.91 -1.1,-2.61 -2.78,-11.82 -3.69,-13.52 -0.73,-1.36 -3.69,-2.48 -5.12,-4.64 -1.44,-2.15 -4.38,-6.18 -4.97,-8.02 -0.6,-1.84 -0.75,-1.39 -0.93,-1 -0.18,0.39 -0.42,4 0.42,5.98 0.84,1.99 3.7,5.81 5.13,7.27 1.44,1.45 3.98,5.31 4.49,7.25 0.51,1.93 5.52,12.79 6.2,14.22 1.34,2.8 1.51,6.82 2.44,8.61 0.7,1.35 1.8,2.05 2.24,3.48 0.44,1.43 1.19,3.46 1.9,4.82 0.7,1.36 4.82,12.11 6.95,14.15 3.06,2.93 2.91,3.91 3.8,4.35 0.21,0.1 0.52,0.45 0.82,0.23 0.23,-0.17 -0.12,-0.63 -0.23,-0.99 -0.91,-2.9 -3.87,-7.7 -5.06,-10.5z"/>
</svg>
