<?xml version="1.0" encoding="utf-8"?>
<!-- Generator: Adobe Illustrator 19.0.1, SVG Export Plug-In . SVG Version: 6.00 Build 0)  -->
<svg version="1.1" id="Layer_1" xmlns="http://www.w3.org/2000/svg" xmlns:xlink="http://www.w3.org/1999/xlink" x="0px" y="0px"
	 viewBox="0 0 2048 2048" style="enable-background:new 0 0 2048 2048;" xml:space="preserve">

<path id="color1" fill="#37558C" d="M990.5,1717.6c-0.9-9.7-1.8-19.7-2.7-30.1c-9.5-105.2-21.3-236.1-18.8-317.4c1.5-47.2,9.2-119.3,26.6-179.8
	l0.7-2.5l-2-1.7C900,1109,894.2,1037.1,890,984.7c-4.3-53,1.8-118.6,19.2-206.4l0.7-3.3l-3.2-1.2c-0.2-0.1-2.1-0.8-5.4-2.1
	c-2.3-0.9-5.4-2-9-3.4c-31.9-12.3-110-42.2-162.2-61.9c-16.6-6.3-30.7-11.5-39.7-14.9l-3.8-1.4l-1.3,3.9c-0.7,2.1-1.5,4.5-2.3,7
	c-8.7,26-23.2,69.6-54.4,99.9c-41.2,40-80.1,45.1-109.5,45.1c-40.1,0-72.4-11.6-98.6-35.5c-39.7-36.2-55.2-77.3-67.6-116.3l-1.3-4
	l-223.3,84.1l0.5,3.2c2.2,14.3,4.4,27,6.5,39.2c6.7,39.3,11.9,70.4,12.8,111.6c1.6,75.9-9.3,134.1-33.2,178
	c-17.2,31.6-52.3,62.1-71.1,78.5l-3.3,2.9l0.8,2.5c16.5,52.7,21.6,94.2,26.2,161.9c4.8,70.9-8.1,238.9-13.8,307.9
	c-0.6,6.7-1.4,16-2.3,27.1c-6.7,77.9-22.4,260.3-20.2,311.9l0.2,3.8H1006v-4C1006,1962.6,997.6,1797.7,990.5,1717.6z M1991.2,1717.6
	c-0.8-9.7-1.7-19.7-2.7-30c-9.3-105.2-20.9-236.2-18.5-317.5c1.6-52.9,11.9-117.5,27.4-172.7l0.5-1.7l-0.9-1.5
	c-39.2-64.2-59.8-117.4-73.5-189.7c-9.9-52.6-14.6-126.3-13.9-218.9l0-2.8l-2.6-1c-1.7-0.6-168.6-65-213-81.5l-3-1.1l-1.8,2.6
	c-32.8,48.8-88.4,58.7-161.7,58.7c-85.8,0-126.5-14.9-161.6-59l-1.8-2.3l-216.7,82.5l0,2.8c0.7,62.5-6.7,183.1-15.9,229.5
	c-11.1,55.9-35.6,118.2-70.9,180.1l-0.8,1.4l0.4,1.6c13,51.6,18.2,86.4,23.2,155c5.9,80.8-6,227.6-13.6,307.8
	c-3.8,40.5-24.1,274.4-21.5,336.3l0.2,3.8h3.8c9.2,0,916.6,0.7,951.1,0.7h4v-4C2007.7,1962.2,1998.5,1800.5,1991.2,1717.6z
	 M1936.4,378.9c-45.4-16.7-107.7-50-166.5-88.9c-82.5-54.6-158.1-80-238-80c-1.6,0-3.3,0-4.9,0c-81.4,1.1-154.2,27.5-222.4,80.8
	c-67.7,52.9-103.3,75-129.2,89.7l-2.9,1.7l1.1,3.2c1.1,3.2,2.6,7.2,4.3,11.9c16.6,46.1,60.7,168.7,75.2,253l0.6,3.3h604.1l0.6-3.3
	c15.7-88.4,61.5-215.6,80.5-266.2l1.4-3.8L1936.4,378.9z M894,351.5c-25.9-14.7-61.5-36.8-129.2-89.7
	c-67.1-52.4-139.9-78.4-222.8-79.5c-1.4,0-2.9,0-4.3,0c-77.5,0-156.7,28.1-235.4,83.4c-61.7,43.4-137.7,74.3-167.5,85.5l-3.7,1.4
	l1.4,3.7c18.7,49.9,63.9,175.5,79.8,265.2l0.6,3.3h602.7l0.6-3.3c1.7-10.1,3.9-20.7,6.4-31.6c18.3-81.1,54.3-181.3,69-222
	c1.6-4.6,3-8.4,4.1-11.6l1.1-3.2L894,351.5z M639.3,122V75.6h815.5V122H639.3z"/>
<path id="color2" fill="#2D3448" d="M892.3,768.2L261.4,1922.1H145.8v-143.2L730.1,706.3C782.3,726.1,860.3,756,892.3,768.2z"/>
<path id="color3" fill="#FFFFFF" d="M136.3,1922.1v-125.4l9.5-17.4v142.8H136.3z M892.3,768.2L261.4,1922.1h10.9l629-1150.4
	C898.9,770.8,895.9,769.6,892.3,768.2z"/>
</svg>
