<?xml version="1.0" encoding="utf-8"?>
<!-- Generator: Adobe Illustrator 19.0.1, SVG Export Plug-In . SVG Version: 6.00 Build 0)  -->
<svg version="1.1" baseProfile="tiny" id="_x30_" xmlns="http://www.w3.org/2000/svg" xmlns:xlink="http://www.w3.org/1999/xlink"
	 x="0px" y="0px" viewBox="0 0 2048 2048" xml:space="preserve">
<path id="color1" fill="#37558C" d="M1980.4,1257.2v773.1H1050v-773.1l0.4-0.4l1-0.8c5.9-5.2,11.5-10.2,16.8-15.1c8-7.4,15.4-14.4,22.2-21.2
	c10.3-10.2,19.2-19.8,27-28.6c4.8-5.5,9.2-10.6,13.1-15.5c4.5-5.5,8.4-10.7,11.9-15.5c6-8.3,10.7-15.6,14.2-21.8
	c9.7-16.7,20.2-38.3,31.3-61.2c13.4-27.6,27.2-56,39.8-75.9c6.8-10.7,14.8-22.1,24-33.6c30.7-38.3,75.2-77.4,135.8-93.8l2.7-0.7
	l1.6,2.3c22.6,32.3,68.8,86.6,123.4,86.6c20.7,0,38.5-5.5,54.2-14.6c7.5-4.3,14.5-9.5,21.2-15.3c16.3-14.1,30.3-32,43.5-50.3
	c1.5-2.1,3-4.3,4.5-6.4l1.6-2.3l1.1,0.3l1.6,0.4c23.7,6.4,44.9,16.3,63.8,28.2c44,27.8,75.4,66.8,96,99.2
	c8.9,14,18.3,32.3,27.8,51.4c4,8.1,8,16.3,12,24.5c11.1,22.9,21.6,44.6,31.3,61.2c3.6,6.2,8.2,13.4,14.3,21.8
	c3.5,4.8,7.4,10,11.9,15.5c4,4.9,8.3,10.1,13.1,15.5c7.8,8.8,16.7,18.3,27,28.6c6.8,6.8,14.2,13.8,22.2,21.2
	c5.3,4.9,10.9,9.9,16.8,15.1L1980.4,1257.2L1980.4,1257.2z M975.9,1256.5c-42.4-50.3-109.2-156.2-119.3-182.5l-0.1-0.2
	c-12.1-27.6-21.7-54-28.5-78.5c-10.3-37.4-18.5-63.8-37.3-89c-23.9-32.1-86-88.3-149.2-112.8l-2.1-0.8l-1.8,1.4
	c-40.2,30.5-58.2,42.9-100.2,42.9s-60-12.4-100.2-42.9l-1.8-1.4l-2.1,0.8c-63.2,24.6-125.3,80.8-149.2,112.8
	c-18.8,25.2-27,51.6-37.3,89c-6.8,24.5-16.4,50.9-28.5,78.5l-0.1,0.2c-10.1,26.3-76.9,132.2-119.3,182.5l-0.9,1.1v771.9h878.8
	v-771.9L975.9,1256.5z M1037,747.3v46.3h895.1v-46.3H1037z M819.4,497.5C669.5,358.2,592.6,232.6,525.6,17.3l-1.2-4l-3.9,1.4
	c-33.1,11.6-59.4,13.2-82.8,13.2c-13.1,0-40.7-1.8-78-13.3l-4.1-1.3l-1,4.2c-55.4,244-142.8,357.7-251.4,480.9l-1.2,1.4l0.3,1.9
	c6.4,39.2,27.3,136.9,29.6,147.7v39h642.8v-38.1c2.4-7.3,25.4-79.3,45.8-148.7l0.7-2.4L819.4,497.5z"/>
<path id="color2" fill="#2D3448" d="M1561.5,519.7l-0.3,1.9c-6.3,39.2-27.3,136.9-29.6,147.7v38.8H888.8v-38c-2.3-7.3-25.3-79.2-45.8-148.7
	l-0.7-2.4l1.8-1.7C994,378.1,1070.9,252.5,1137.9,37.2l1.2-4l3.9,1.4c33.1,11.6,59.4,13.2,82.8,13.2c13.1,0,40.7-1.7,78-13.3
	l4.1-1.3l1,4.2c55.4,244,142.8,357.7,251.4,480.9L1561.5,519.7z M725.3,419C663.4,360,576,265.3,445.6,268.3
	c-115.4,2.6-175.1,85-235.2,145.2c-39.7,39.8-86.3,64.3-88.4,65.4c0,0-0.1,0-0.1,0c-2,2.3-4,4.5-5.8,6.5c-0.8,0.9-2.4,2-4.4,3.2
	c-2.8,3.2-5.7,6.5-8.5,9.7l-1.2,1.4l0.3,1.9c6.4,39.2,27.3,136.9,29.6,147.7v39h642.8v-38.1c2.4-7.3,25.4-79.3,45.8-148.7
	c0,0,0,0,0,0l0.7-2.4l-1.9-1.7C768.1,451.5,756.1,448.3,725.3,419z M1979,1256c-5.9-5.2-11.5-10.2-16.8-15.1
	c-8-7.4-15.4-14.4-22.2-21.2c-10.3-10.2-19.2-19.8-27-28.6c-4.8-5.5-9.2-10.6-13.1-15.5c-4.5-5.5-8.4-10.7-11.9-15.5
	c-6-8.3-10.7-15.6-14.3-21.8c-9.7-16.6-20.2-38.3-31.3-61.2c-4-8.2-8-16.4-12-24.5c-9.5-19.2-18.9-37.4-27.8-51.4
	c-20.6-32.4-52-71.4-96-99.2c-18.9-11.9-40.1-21.8-63.8-28.2l-1.6-0.4l-0.2,0.6c-0.8,2.7-3.3,5.3-7,7.8l0,0
	c-13.1,18.4-27.1,36.2-43.5,50.3c-6.7,5.8-13.7,10.9-21.2,15.3c-15.7,9.1-33.5,14.6-54.2,14.6c-54.6,0-100.8-54.3-123.4-86.6
	l-1.6-2.3l-2.7,0.7c-60.4,16.3-104.8,55.2-135.5,93.4c-22.1,29.1-38.5,58.1-56.5,94.9c304.6,18,420.2,30.5,567.1,91.5
	c140.9,58.6,209,160.8,217.8,174.8v-71.2l-0.1-0.1L1979,1256z M405.6,1110.1c143.2-40.9,302.6-55.5,440.2-62.1
	c-7.2-18.3-13.1-35.9-17.8-52.6c-10.3-37.4-18.5-63.8-37.3-89c-23.9-32.1-86-88.3-149.2-112.8l-2.1-0.8l-0.4,0.4
	c-14.5,12.9-28.9,23.7-45.3,31.1C577,833.1,561,837,537.4,837c-42,0-60-12.4-100.2-42.9l-1.8-1.4l-2.1,0.8
	c-63.2,24.6-125.3,80.8-149.2,112.8c-18.8,25.2-27,51.6-37.3,89c-6.8,24.5-16.4,50.9-28.5,78.5l-0.1,0.2
	c-7.4,19.1-44.8,80.5-80.9,131.8c-12.8,19.9-25.5,38.5-36.8,53l-0.8,1.1v47.8C136.8,1260.5,233,1159.4,405.6,1110.1z"/>
<path id="color3" fill="#FFFFFF" d="M1980.4,1328.4c-8.8-14-76.9-116.2-217.8-174.8c-146.8-61.1-262.5-73.5-567.1-91.5c-0.1,0-0.2,0.1-0.4,0.2
	c-2,4.2-4.1,8.3-6.1,12.5c143.7,5.9,316.4,19.4,470,63.2c215.1,61.4,310.8,203.8,321.4,220.4V1328.4z"/>
</svg>
