<?xml version="1.0" encoding="utf-8"?>
<!-- Generator: Adobe Illustrator 19.0.1, SVG Export Plug-In . SVG Version: 6.00 Build 0)  -->
<svg version="1.1" id="Layer_1" xmlns="http://www.w3.org/2000/svg" xmlns:xlink="http://www.w3.org/1999/xlink" x="0px" y="0px"
	 viewBox="0 0 2048 2048" style="enable-background:new 0 0 2048 2048;" xml:space="preserve">

<path id="color1" fill="#37558C" d="M1006,1999v4H31.2l-0.2-3.8c-2.2-51.6,13.5-234,20.2-311.9c1-11.1,1.8-20.4,2.3-27.1
	c5.8-69,18.6-237,13.8-307.9c-4.6-67.7-9.7-109.2-26.2-161.9l-0.8-2.5l3.3-2.9c18.8-16.4,53.9-47,71.1-78.5
	c23.9-43.9,34.8-102.1,33.2-178c-0.9-41.2-6.1-72.3-12.8-111.6c-2.1-12.3-4.2-25-6.5-39.2l-0.5-3.2l223.3-84.1l1.3,4
	c12.5,39,27.9,80.1,67.6,116.3c26.2,23.9,58.4,35.5,98.6,35.5c29.3,0,68.3-5.1,109.5-45.1c31.3-30.4,45.8-73.9,54.4-99.9
	c0.8-2.5,1.6-4.8,2.3-7l1.3-3.9l3.8,1.4c9,3.3,23.1,8.6,39.7,14.9c52.2,19.7,130.3,49.6,162.2,61.9c3.6,1.4,6.6,2.5,9,3.4
	c3.3,1.3,5.3,2,5.4,2.1l3.2,1.2l-0.7,3.3c-17.3,87.8-23.4,153.4-19.2,206.4c4.2,52.5,10,124.3,104.3,201.4l2,1.7l-0.7,2.5
	c-17.4,60.6-25.1,132.6-26.6,179.8c-2.5,81.3,9.3,212.2,18.8,317.4c0.9,10.3,1.8,20.4,2.7,30.1C997.6,1797.7,1006,1962.6,1006,1999z
	 M1991.2,1717.6c-0.8-9.7-1.7-19.7-2.7-30c-9.3-105.2-20.9-236.2-18.5-317.5c1.6-52.9,11.9-117.5,27.4-172.7l0.5-1.7l-0.9-1.5
	c-39.2-64.2-59.8-117.4-73.5-189.7c-9.9-52.6-14.6-126.3-13.9-218.9l0-2.8l-2.6-1c-1.7-0.6-168.6-65-213-81.5l-3-1.1l-1.8,2.6
	c-32.8,48.8-88.4,58.7-161.7,58.7c-85.8,0-126.5-14.9-161.6-59l-1.8-2.3l-216.7,82.5l0,2.8c0.7,62.5-6.7,183.1-15.9,229.5
	c-11.1,55.9-35.6,118.2-70.9,180.1l-0.8,1.4l0.4,1.6c13,51.6,18.2,86.4,23.2,155c5.9,80.8-6,227.6-13.6,307.8
	c-3.8,40.5-24.1,274.4-21.5,336.3l0.2,3.8h3.8c9.2,0,916.6,0.7,951.1,0.7h4v-4C2007.7,1962.2,1998.5,1800.5,1991.2,1717.6z
	 M1936.4,378.9c-45.4-16.7-107.7-50-166.5-88.9c-82.5-54.6-158.1-80-238-80c-1.6,0-3.3,0-4.9,0c-81.4,1.1-154.2,27.5-222.4,80.8
	c-67.7,52.9-103.3,75-129.2,89.7l-2.9,1.7l1.1,3.2c1.1,3.2,2.6,7.2,4.3,11.9c16.6,46.1,60.7,168.7,75.2,253l0.6,3.3h604.1l0.6-3.3
	c15.7-88.4,61.5-215.6,80.5-266.2l1.4-3.8L1936.4,378.9z M894,351.5c-25.9-14.7-61.5-36.8-129.2-89.7
	c-67.1-52.4-139.9-78.4-222.8-79.5c-1.4,0-2.9,0-4.3,0c-77.5,0-156.7,28.1-235.4,83.4c-61.7,43.4-137.7,74.3-167.5,85.5l-3.7,1.4
	l1.4,3.7c18.7,49.9,63.9,175.5,79.8,265.2l0.6,3.3h602.7l0.6-3.3c1.7-10.1,3.9-20.7,6.4-31.6c18.3-81.1,54.3-181.3,69-222
	c1.6-4.6,3-8.4,4.1-11.6l1.1-3.2L894,351.5z M1454.8,122V75.6H639.3V122H1454.8z"/>
<path id="color3" fill="#FFFFFF" d="M980.2,1602c0.4,4.7,0.8,9.5,1.2,14.2H57c0.4-4.6,0.7-9.3,1.1-14.2H980.2z M450.5,831.3H137.6
	c0.8,4.8,1.6,9.5,2.3,14.2h364C484.2,843.9,466.5,839.2,450.5,831.3z M899.6,831.3c-0.8,4.8-1.5,9.5-2.2,14.2h-363
	c15.7-1.2,33.3-4.8,52-14.2H899.6z"/>
<path id="color2" fill="#2D3448" d="M969,1370.1c-1.9,60.3,4.1,147.8,11.2,231.9H58.1c6-80.4,13-194.6,9.2-249.8c-4-58.6-8.3-97.6-20.1-141.2h942.9
	C976.6,1266.7,970.3,1328.2,969,1370.1z M420.4,810.5c-39.7-36.2-55.2-77.3-67.6-116.3l-1.3-4l-223.3,84.1l0.5,3.2
	c2.2,14.3,4.4,27,6.5,39.2c0.8,4.9,1.6,9.7,2.4,14.4h312.9C439.7,825.9,429.7,819,420.4,810.5z M906.7,773.8l3.2,1.2l-0.7,3.3
	c-3.7,18.6-6.9,36.3-9.5,53H586.5c13.5-6.7,27.6-16.4,41.9-30.4c31.3-30.4,45.8-73.9,54.4-99.9c0.8-2.5,1.6-4.8,2.3-7l1.3-3.9
	l3.8,1.4c9,3.3,23.1,8.6,39.7,14.9c52.2,19.7,130.3,49.6,162.2,61.9c3.6,1.4,6.6,2.5,9,3.4C904.6,773,906.5,773.7,906.7,773.8z"/>
</svg>
