<?xml version="1.0" encoding="utf-8"?>
<!-- Generator: Adobe Illustrator 19.0.1, SVG Export Plug-In . SVG Version: 6.00 Build 0)  -->
<svg version="1.1" id="Layer_3" xmlns="http://www.w3.org/2000/svg" xmlns:xlink="http://www.w3.org/1999/xlink" x="0px" y="0px"
	 viewBox="0 0 2048 2048" style="enable-background:new 0 0 2048 2048;" xml:space="preserve">

<path id="color1" fill="black" d="M132.7,777L349,695.5c13.5,42.3,29.3,82,68.8,118C448.3,841.3,483.3,850,519,850s73.3-8.4,112.3-46.3
	c35-34,49.4-84.1,57.8-108.5c45.8,16.8,216.3,82.3,216.3,82.3C888.8,861,881.5,929,886,985s11.3,126.9,105.8,204.2
	c-17.5,61-25.3,132.5-26.8,180.8c-2.8,89.7,12,241.5,21.5,348c7.2,80.4,15.5,245,15.5,281c-35.5,0-967,0-967,0
	c-2.5-58.5,17.9-283.1,22.5-338.5c8.2-97.8,18.2-244.5,13.8-308.5c-4.5-66.3-9.3-108.5-26.3-162.8c18.3-16,55.3-47.8,73.3-80.8
	c18-33,35.7-85,33.7-180C150.9,874.3,142.3,838.3,132.7,777z M1135.7,1015c-11,55.3-35.7,118.7-71.3,181.3
	c13.7,54.2,18.5,89.4,23.3,155.7c5.3,73.5-3.7,203.5-13.6,308.5c-5.2,55.4-23.9,277.3-21.4,335.8c0,0,916.2,0.7,951.1,0.7
	c0-36-9.4-198.5-16.5-279c-9.3-106.5-23.9-258.3-21.1-348c1.5-48.3,10.4-112.7,27.6-173.7c-36.7-60-59.3-113.3-74-191
	c-14.2-75-14.3-175.3-14-219.7c0,0-168-64.8-213-81.5c-33,49-87.7,60.5-165,60.5c-86,0-128.7-15.2-164.7-60.5l-211.3,80.5
	C1152.3,847.7,1145.1,967.7,1135.7,1015z M216.3,620.9c38.7,0,550,0,596,0c16-93,67-230.2,79.7-265.9c-27.7-15.7-64.1-38.8-129.7-90
	c-71.7-56-144.7-77.7-220.3-78.7c-90.3-1.2-171,36-237.3,82.7c-54.6,38.4-123.3,69-168.3,86C148.3,387,199.3,525,216.3,620.9z
	 M1935,382.7c-48-17.7-111.7-52.5-167.3-89.3c-73-48.3-150.3-80.5-240.7-79.3c-75.7,1-148.3,24-220,80c-65.6,51.2-102,74.3-129.7,90
	c12.7,35.7,63.7,172.6,79.7,265.6c46,0,558.7,0,597.3,0C1871.3,553.7,1923,414.7,1935,382.7z"/>
</svg>
